<svg xmlns="http://www.w3.org/2000/svg" xmlns:xlink="http://www.w3.org/1999/xlink" width="500" zoomAndPan="magnify" viewBox="0 0 375 374.999991" height="500" preserveAspectRatio="xMidYMid meet" version="1.0"><defs><g/><radialGradient gradientTransform="matrix(1, 0, 0, 1, 0.0000045, 0)" gradientUnits="userSpaceOnUse" r="265.164751" cx="187.499996" id="aac7739d7d" cy="187.499996" fx="187.499996" fy="187.499996"><stop stop-opacity="1" stop-color="rgb(54.80957%, 32.159424%, 99.824524%)" offset="0"/><stop stop-opacity="1" stop-color="rgb(54.629517%, 32.080078%, 99.473572%)" offset="0.00390625"/><stop stop-opacity="1" stop-color="rgb(54.450989%, 31.999207%, 99.12262%)" offset="0.0078125"/><stop stop-opacity="1" stop-color="rgb(54.270935%, 31.919861%, 98.771667%)" offset="0.0117188"/><stop stop-opacity="1" stop-color="rgb(54.092407%, 31.840515%, 98.420715%)" offset="0.015625"/><stop stop-opacity="1" stop-color="rgb(53.912354%, 31.761169%, 98.069763%)" offset="0.0195312"/><stop stop-opacity="1" stop-color="rgb(53.733826%, 31.681824%, 97.718811%)" offset="0.0234375"/><stop stop-opacity="1" stop-color="rgb(53.553772%, 31.600952%, 97.367859%)" offset="0.0273438"/><stop stop-opacity="1" stop-color="rgb(53.375244%, 31.521606%, 97.016907%)" offset="0.03125"/><stop stop-opacity="1" stop-color="rgb(53.19519%, 31.442261%, 96.66748%)" offset="0.0351562"/><stop stop-opacity="1" stop-color="rgb(53.016663%, 31.362915%, 96.316528%)" offset="0.0390625"/><stop stop-opacity="1" stop-color="rgb(52.836609%, 31.282043%, 95.965576%)" offset="0.0429688"/><stop stop-opacity="1" stop-color="rgb(52.658081%, 31.202698%, 95.614624%)" offset="0.046875"/><stop stop-opacity="1" stop-color="rgb(52.478027%, 31.123352%, 95.263672%)" offset="0.0507812"/><stop stop-opacity="1" stop-color="rgb(52.2995%, 31.044006%, 94.91272%)" offset="0.0546875"/><stop stop-opacity="1" stop-color="rgb(52.119446%, 30.964661%, 94.561768%)" offset="0.0585938"/><stop stop-opacity="1" stop-color="rgb(51.940918%, 30.883789%, 94.210815%)" offset="0.0625"/><stop stop-opacity="1" stop-color="rgb(51.760864%, 30.804443%, 93.859863%)" offset="0.0664062"/><stop stop-opacity="1" stop-color="rgb(51.582336%, 30.725098%, 93.510437%)" offset="0.0703125"/><stop stop-opacity="1" stop-color="rgb(51.402283%, 30.645752%, 93.159485%)" offset="0.0742188"/><stop stop-opacity="1" stop-color="rgb(51.223755%, 30.56488%, 92.808533%)" offset="0.078125"/><stop stop-opacity="1" stop-color="rgb(51.043701%, 30.485535%, 92.457581%)" offset="0.0820312"/><stop stop-opacity="1" stop-color="rgb(50.865173%, 30.406189%, 92.106628%)" offset="0.0859375"/><stop stop-opacity="1" stop-color="rgb(50.68512%, 30.326843%, 91.755676%)" offset="0.0898438"/><stop stop-opacity="1" stop-color="rgb(50.506592%, 30.245972%, 91.404724%)" offset="0.09375"/><stop stop-opacity="1" stop-color="rgb(50.326538%, 30.166626%, 91.053772%)" offset="0.0976562"/><stop stop-opacity="1" stop-color="rgb(50.14801%, 30.08728%, 90.70282%)" offset="0.101562"/><stop stop-opacity="1" stop-color="rgb(49.967957%, 30.007935%, 90.353394%)" offset="0.105469"/><stop stop-opacity="1" stop-color="rgb(49.789429%, 29.928589%, 90.002441%)" offset="0.109375"/><stop stop-opacity="1" stop-color="rgb(49.609375%, 29.847717%, 89.651489%)" offset="0.113281"/><stop stop-opacity="1" stop-color="rgb(49.430847%, 29.768372%, 89.300537%)" offset="0.117188"/><stop stop-opacity="1" stop-color="rgb(49.250793%, 29.689026%, 88.949585%)" offset="0.121094"/><stop stop-opacity="1" stop-color="rgb(49.072266%, 29.60968%, 88.598633%)" offset="0.125"/><stop stop-opacity="1" stop-color="rgb(48.892212%, 29.528809%, 88.247681%)" offset="0.128906"/><stop stop-opacity="1" stop-color="rgb(48.713684%, 29.449463%, 87.896729%)" offset="0.132812"/><stop stop-opacity="1" stop-color="rgb(48.53363%, 29.370117%, 87.545776%)" offset="0.136719"/><stop stop-opacity="1" stop-color="rgb(48.355103%, 29.290771%, 87.19635%)" offset="0.140625"/><stop stop-opacity="1" stop-color="rgb(48.175049%, 29.211426%, 86.845398%)" offset="0.144531"/><stop stop-opacity="1" stop-color="rgb(47.996521%, 29.130554%, 86.494446%)" offset="0.148438"/><stop stop-opacity="1" stop-color="rgb(47.816467%, 29.051208%, 86.143494%)" offset="0.152344"/><stop stop-opacity="1" stop-color="rgb(47.637939%, 28.971863%, 85.792542%)" offset="0.15625"/><stop stop-opacity="1" stop-color="rgb(47.457886%, 28.892517%, 85.441589%)" offset="0.160156"/><stop stop-opacity="1" stop-color="rgb(47.279358%, 28.811646%, 85.090637%)" offset="0.164062"/><stop stop-opacity="1" stop-color="rgb(47.099304%, 28.7323%, 84.739685%)" offset="0.167969"/><stop stop-opacity="1" stop-color="rgb(46.920776%, 28.652954%, 84.388733%)" offset="0.171875"/><stop stop-opacity="1" stop-color="rgb(46.740723%, 28.573608%, 84.039307%)" offset="0.175781"/><stop stop-opacity="1" stop-color="rgb(46.562195%, 28.494263%, 83.688354%)" offset="0.179688"/><stop stop-opacity="1" stop-color="rgb(46.382141%, 28.413391%, 83.337402%)" offset="0.183594"/><stop stop-opacity="1" stop-color="rgb(46.203613%, 28.334045%, 82.98645%)" offset="0.1875"/><stop stop-opacity="1" stop-color="rgb(46.02356%, 28.2547%, 82.635498%)" offset="0.191406"/><stop stop-opacity="1" stop-color="rgb(45.845032%, 28.175354%, 82.284546%)" offset="0.195312"/><stop stop-opacity="1" stop-color="rgb(45.664978%, 28.094482%, 81.933594%)" offset="0.199219"/><stop stop-opacity="1" stop-color="rgb(45.48645%, 28.015137%, 81.582642%)" offset="0.203125"/><stop stop-opacity="1" stop-color="rgb(45.306396%, 27.935791%, 81.231689%)" offset="0.207031"/><stop stop-opacity="1" stop-color="rgb(45.127869%, 27.856445%, 80.882263%)" offset="0.210938"/><stop stop-opacity="1" stop-color="rgb(44.947815%, 27.7771%, 80.531311%)" offset="0.214844"/><stop stop-opacity="1" stop-color="rgb(44.769287%, 27.696228%, 80.180359%)" offset="0.21875"/><stop stop-opacity="1" stop-color="rgb(44.589233%, 27.616882%, 79.829407%)" offset="0.222656"/><stop stop-opacity="1" stop-color="rgb(44.410706%, 27.537537%, 79.478455%)" offset="0.226562"/><stop stop-opacity="1" stop-color="rgb(44.230652%, 27.458191%, 79.127502%)" offset="0.230469"/><stop stop-opacity="1" stop-color="rgb(44.052124%, 27.377319%, 78.77655%)" offset="0.234375"/><stop stop-opacity="1" stop-color="rgb(43.87207%, 27.297974%, 78.425598%)" offset="0.238281"/><stop stop-opacity="1" stop-color="rgb(43.693542%, 27.218628%, 78.074646%)" offset="0.242188"/><stop stop-opacity="1" stop-color="rgb(43.513489%, 27.139282%, 77.72522%)" offset="0.246094"/><stop stop-opacity="1" stop-color="rgb(43.334961%, 27.059937%, 77.374268%)" offset="0.25"/><stop stop-opacity="1" stop-color="rgb(43.154907%, 26.979065%, 77.023315%)" offset="0.253906"/><stop stop-opacity="1" stop-color="rgb(42.976379%, 26.899719%, 76.672363%)" offset="0.257812"/><stop stop-opacity="1" stop-color="rgb(42.796326%, 26.820374%, 76.321411%)" offset="0.261719"/><stop stop-opacity="1" stop-color="rgb(42.616272%, 26.741028%, 75.970459%)" offset="0.265625"/><stop stop-opacity="1" stop-color="rgb(42.437744%, 26.660156%, 75.619507%)" offset="0.269531"/><stop stop-opacity="1" stop-color="rgb(42.25769%, 26.580811%, 75.268555%)" offset="0.273438"/><stop stop-opacity="1" stop-color="rgb(42.079163%, 26.501465%, 74.917603%)" offset="0.277344"/><stop stop-opacity="1" stop-color="rgb(41.899109%, 26.422119%, 74.568176%)" offset="0.28125"/><stop stop-opacity="1" stop-color="rgb(41.720581%, 26.342773%, 74.217224%)" offset="0.285156"/><stop stop-opacity="1" stop-color="rgb(41.540527%, 26.261902%, 73.866272%)" offset="0.289062"/><stop stop-opacity="1" stop-color="rgb(41.362%, 26.182556%, 73.51532%)" offset="0.292969"/><stop stop-opacity="1" stop-color="rgb(41.181946%, 26.10321%, 73.164368%)" offset="0.296875"/><stop stop-opacity="1" stop-color="rgb(41.003418%, 26.023865%, 72.813416%)" offset="0.300781"/><stop stop-opacity="1" stop-color="rgb(40.823364%, 25.942993%, 72.462463%)" offset="0.304688"/><stop stop-opacity="1" stop-color="rgb(40.644836%, 25.863647%, 72.111511%)" offset="0.308594"/><stop stop-opacity="1" stop-color="rgb(40.464783%, 25.784302%, 71.760559%)" offset="0.3125"/><stop stop-opacity="1" stop-color="rgb(40.286255%, 25.704956%, 71.411133%)" offset="0.316406"/><stop stop-opacity="1" stop-color="rgb(40.106201%, 25.62561%, 71.060181%)" offset="0.320312"/><stop stop-opacity="1" stop-color="rgb(39.927673%, 25.544739%, 70.709229%)" offset="0.324219"/><stop stop-opacity="1" stop-color="rgb(39.74762%, 25.465393%, 70.358276%)" offset="0.328125"/><stop stop-opacity="1" stop-color="rgb(39.569092%, 25.386047%, 70.007324%)" offset="0.332031"/><stop stop-opacity="1" stop-color="rgb(39.389038%, 25.306702%, 69.656372%)" offset="0.335938"/><stop stop-opacity="1" stop-color="rgb(39.21051%, 25.22583%, 69.30542%)" offset="0.339844"/><stop stop-opacity="1" stop-color="rgb(39.030457%, 25.146484%, 68.954468%)" offset="0.34375"/><stop stop-opacity="1" stop-color="rgb(38.851929%, 25.067139%, 68.603516%)" offset="0.347656"/><stop stop-opacity="1" stop-color="rgb(38.671875%, 24.987793%, 68.254089%)" offset="0.351562"/><stop stop-opacity="1" stop-color="rgb(38.493347%, 24.906921%, 67.903137%)" offset="0.355469"/><stop stop-opacity="1" stop-color="rgb(38.313293%, 24.827576%, 67.552185%)" offset="0.359375"/><stop stop-opacity="1" stop-color="rgb(38.134766%, 24.74823%, 67.201233%)" offset="0.363281"/><stop stop-opacity="1" stop-color="rgb(37.954712%, 24.668884%, 66.850281%)" offset="0.367188"/><stop stop-opacity="1" stop-color="rgb(37.776184%, 24.589539%, 66.499329%)" offset="0.371094"/><stop stop-opacity="1" stop-color="rgb(37.59613%, 24.508667%, 66.148376%)" offset="0.375"/><stop stop-opacity="1" stop-color="rgb(37.417603%, 24.429321%, 65.797424%)" offset="0.378906"/><stop stop-opacity="1" stop-color="rgb(37.237549%, 24.349976%, 65.446472%)" offset="0.382812"/><stop stop-opacity="1" stop-color="rgb(37.059021%, 24.27063%, 65.097046%)" offset="0.386719"/><stop stop-opacity="1" stop-color="rgb(36.878967%, 24.189758%, 64.746094%)" offset="0.390625"/><stop stop-opacity="1" stop-color="rgb(36.700439%, 24.110413%, 64.395142%)" offset="0.394531"/><stop stop-opacity="1" stop-color="rgb(36.520386%, 24.031067%, 64.044189%)" offset="0.398438"/><stop stop-opacity="1" stop-color="rgb(36.341858%, 23.951721%, 63.693237%)" offset="0.402344"/><stop stop-opacity="1" stop-color="rgb(36.161804%, 23.872375%, 63.342285%)" offset="0.40625"/><stop stop-opacity="1" stop-color="rgb(35.983276%, 23.791504%, 62.991333%)" offset="0.410156"/><stop stop-opacity="1" stop-color="rgb(35.803223%, 23.712158%, 62.640381%)" offset="0.414062"/><stop stop-opacity="1" stop-color="rgb(35.624695%, 23.632812%, 62.289429%)" offset="0.417969"/><stop stop-opacity="1" stop-color="rgb(35.444641%, 23.553467%, 61.940002%)" offset="0.421875"/><stop stop-opacity="1" stop-color="rgb(35.266113%, 23.472595%, 61.58905%)" offset="0.425781"/><stop stop-opacity="1" stop-color="rgb(35.08606%, 23.39325%, 61.238098%)" offset="0.429688"/><stop stop-opacity="1" stop-color="rgb(34.907532%, 23.313904%, 60.887146%)" offset="0.433594"/><stop stop-opacity="1" stop-color="rgb(34.727478%, 23.234558%, 60.536194%)" offset="0.4375"/><stop stop-opacity="1" stop-color="rgb(34.54895%, 23.155212%, 60.185242%)" offset="0.441406"/><stop stop-opacity="1" stop-color="rgb(34.368896%, 23.074341%, 59.83429%)" offset="0.445312"/><stop stop-opacity="1" stop-color="rgb(34.190369%, 22.994995%, 59.483337%)" offset="0.449219"/><stop stop-opacity="1" stop-color="rgb(34.010315%, 22.915649%, 59.132385%)" offset="0.453125"/><stop stop-opacity="1" stop-color="rgb(33.831787%, 22.836304%, 58.782959%)" offset="0.457031"/><stop stop-opacity="1" stop-color="rgb(33.651733%, 22.755432%, 58.432007%)" offset="0.460938"/><stop stop-opacity="1" stop-color="rgb(33.473206%, 22.676086%, 58.081055%)" offset="0.464844"/><stop stop-opacity="1" stop-color="rgb(33.293152%, 22.596741%, 57.730103%)" offset="0.46875"/><stop stop-opacity="1" stop-color="rgb(33.114624%, 22.517395%, 57.37915%)" offset="0.472656"/><stop stop-opacity="1" stop-color="rgb(32.93457%, 22.438049%, 57.028198%)" offset="0.476562"/><stop stop-opacity="1" stop-color="rgb(32.756042%, 22.357178%, 56.677246%)" offset="0.480469"/><stop stop-opacity="1" stop-color="rgb(32.575989%, 22.277832%, 56.326294%)" offset="0.484375"/><stop stop-opacity="1" stop-color="rgb(32.397461%, 22.198486%, 55.976868%)" offset="0.488281"/><stop stop-opacity="1" stop-color="rgb(32.217407%, 22.119141%, 55.625916%)" offset="0.492188"/><stop stop-opacity="1" stop-color="rgb(32.038879%, 22.038269%, 55.274963%)" offset="0.496094"/><stop stop-opacity="1" stop-color="rgb(31.858826%, 21.958923%, 54.924011%)" offset="0.5"/><stop stop-opacity="1" stop-color="rgb(31.680298%, 21.879578%, 54.573059%)" offset="0.503906"/><stop stop-opacity="1" stop-color="rgb(31.500244%, 21.800232%, 54.222107%)" offset="0.507812"/><stop stop-opacity="1" stop-color="rgb(31.321716%, 21.720886%, 53.871155%)" offset="0.511719"/><stop stop-opacity="1" stop-color="rgb(31.141663%, 21.640015%, 53.520203%)" offset="0.515625"/><stop stop-opacity="1" stop-color="rgb(30.963135%, 21.560669%, 53.16925%)" offset="0.519531"/><stop stop-opacity="1" stop-color="rgb(30.783081%, 21.481323%, 52.819824%)" offset="0.523438"/><stop stop-opacity="1" stop-color="rgb(30.604553%, 21.401978%, 52.468872%)" offset="0.527344"/><stop stop-opacity="1" stop-color="rgb(30.4245%, 21.321106%, 52.11792%)" offset="0.53125"/><stop stop-opacity="1" stop-color="rgb(30.245972%, 21.24176%, 51.766968%)" offset="0.535156"/><stop stop-opacity="1" stop-color="rgb(30.065918%, 21.162415%, 51.416016%)" offset="0.539062"/><stop stop-opacity="1" stop-color="rgb(29.88739%, 21.083069%, 51.065063%)" offset="0.542969"/><stop stop-opacity="1" stop-color="rgb(29.707336%, 21.003723%, 50.714111%)" offset="0.546875"/><stop stop-opacity="1" stop-color="rgb(29.528809%, 20.922852%, 50.363159%)" offset="0.550781"/><stop stop-opacity="1" stop-color="rgb(29.348755%, 20.843506%, 50.012207%)" offset="0.554688"/><stop stop-opacity="1" stop-color="rgb(29.170227%, 20.76416%, 49.662781%)" offset="0.558594"/><stop stop-opacity="1" stop-color="rgb(28.990173%, 20.684814%, 49.311829%)" offset="0.5625"/><stop stop-opacity="1" stop-color="rgb(28.811646%, 20.603943%, 48.960876%)" offset="0.566406"/><stop stop-opacity="1" stop-color="rgb(28.631592%, 20.524597%, 48.609924%)" offset="0.570312"/><stop stop-opacity="1" stop-color="rgb(28.453064%, 20.445251%, 48.258972%)" offset="0.574219"/><stop stop-opacity="1" stop-color="rgb(28.27301%, 20.365906%, 47.90802%)" offset="0.578125"/><stop stop-opacity="1" stop-color="rgb(28.094482%, 20.285034%, 47.557068%)" offset="0.582031"/><stop stop-opacity="1" stop-color="rgb(27.914429%, 20.205688%, 47.206116%)" offset="0.585938"/><stop stop-opacity="1" stop-color="rgb(27.735901%, 20.126343%, 46.855164%)" offset="0.589844"/><stop stop-opacity="1" stop-color="rgb(27.555847%, 20.046997%, 46.505737%)" offset="0.59375"/><stop stop-opacity="1" stop-color="rgb(27.377319%, 19.967651%, 46.154785%)" offset="0.597656"/><stop stop-opacity="1" stop-color="rgb(27.197266%, 19.88678%, 45.803833%)" offset="0.601562"/><stop stop-opacity="1" stop-color="rgb(27.018738%, 19.807434%, 45.452881%)" offset="0.605469"/><stop stop-opacity="1" stop-color="rgb(26.838684%, 19.728088%, 45.101929%)" offset="0.609375"/><stop stop-opacity="1" stop-color="rgb(26.660156%, 19.648743%, 44.750977%)" offset="0.613281"/><stop stop-opacity="1" stop-color="rgb(26.480103%, 19.567871%, 44.400024%)" offset="0.617188"/><stop stop-opacity="1" stop-color="rgb(26.301575%, 19.488525%, 44.049072%)" offset="0.621094"/><stop stop-opacity="1" stop-color="rgb(26.121521%, 19.40918%, 43.69812%)" offset="0.625"/><stop stop-opacity="1" stop-color="rgb(25.942993%, 19.329834%, 43.348694%)" offset="0.628906"/><stop stop-opacity="1" stop-color="rgb(25.762939%, 19.250488%, 42.997742%)" offset="0.632812"/><stop stop-opacity="1" stop-color="rgb(25.584412%, 19.169617%, 42.64679%)" offset="0.636719"/><stop stop-opacity="1" stop-color="rgb(25.404358%, 19.090271%, 42.295837%)" offset="0.640625"/><stop stop-opacity="1" stop-color="rgb(25.22583%, 19.010925%, 41.944885%)" offset="0.644531"/><stop stop-opacity="1" stop-color="rgb(25.045776%, 18.93158%, 41.593933%)" offset="0.648438"/><stop stop-opacity="1" stop-color="rgb(24.867249%, 18.850708%, 41.242981%)" offset="0.652344"/><stop stop-opacity="1" stop-color="rgb(24.687195%, 18.771362%, 40.892029%)" offset="0.65625"/><stop stop-opacity="1" stop-color="rgb(24.508667%, 18.692017%, 40.541077%)" offset="0.660156"/><stop stop-opacity="1" stop-color="rgb(24.328613%, 18.612671%, 40.19165%)" offset="0.664062"/><stop stop-opacity="1" stop-color="rgb(24.150085%, 18.533325%, 39.840698%)" offset="0.667969"/><stop stop-opacity="1" stop-color="rgb(23.970032%, 18.452454%, 39.489746%)" offset="0.671875"/><stop stop-opacity="1" stop-color="rgb(23.791504%, 18.373108%, 39.138794%)" offset="0.675781"/><stop stop-opacity="1" stop-color="rgb(23.61145%, 18.293762%, 38.787842%)" offset="0.679688"/><stop stop-opacity="1" stop-color="rgb(23.432922%, 18.214417%, 38.43689%)" offset="0.683594"/><stop stop-opacity="1" stop-color="rgb(23.252869%, 18.133545%, 38.085938%)" offset="0.6875"/><stop stop-opacity="1" stop-color="rgb(23.074341%, 18.054199%, 37.734985%)" offset="0.691406"/><stop stop-opacity="1" stop-color="rgb(22.894287%, 17.974854%, 37.384033%)" offset="0.695312"/><stop stop-opacity="1" stop-color="rgb(22.715759%, 17.895508%, 37.034607%)" offset="0.699219"/><stop stop-opacity="1" stop-color="rgb(22.535706%, 17.816162%, 36.683655%)" offset="0.703125"/><stop stop-opacity="1" stop-color="rgb(22.357178%, 17.735291%, 36.332703%)" offset="0.707031"/><stop stop-opacity="1" stop-color="rgb(22.177124%, 17.655945%, 35.98175%)" offset="0.710938"/><stop stop-opacity="1" stop-color="rgb(21.998596%, 17.576599%, 35.630798%)" offset="0.714844"/><stop stop-opacity="1" stop-color="rgb(21.818542%, 17.497253%, 35.279846%)" offset="0.71875"/><stop stop-opacity="1" stop-color="rgb(21.640015%, 17.416382%, 34.928894%)" offset="0.722656"/><stop stop-opacity="1" stop-color="rgb(21.459961%, 17.337036%, 34.577942%)" offset="0.726562"/><stop stop-opacity="1" stop-color="rgb(21.281433%, 17.25769%, 34.22699%)" offset="0.730469"/><stop stop-opacity="1" stop-color="rgb(21.101379%, 17.178345%, 33.877563%)" offset="0.734375"/><stop stop-opacity="1" stop-color="rgb(20.922852%, 17.098999%, 33.526611%)" offset="0.738281"/><stop stop-opacity="1" stop-color="rgb(20.742798%, 17.018127%, 33.175659%)" offset="0.742188"/><stop stop-opacity="1" stop-color="rgb(20.56427%, 16.938782%, 32.824707%)" offset="0.746094"/><stop stop-opacity="1" stop-color="rgb(20.384216%, 16.859436%, 32.473755%)" offset="0.75"/><stop stop-opacity="1" stop-color="rgb(20.204163%, 16.78009%, 32.122803%)" offset="0.753906"/><stop stop-opacity="1" stop-color="rgb(20.025635%, 16.699219%, 31.771851%)" offset="0.757812"/><stop stop-opacity="1" stop-color="rgb(19.845581%, 16.619873%, 31.420898%)" offset="0.761719"/><stop stop-opacity="1" stop-color="rgb(19.667053%, 16.540527%, 31.069946%)" offset="0.765625"/><stop stop-opacity="1" stop-color="rgb(19.487%, 16.461182%, 30.72052%)" offset="0.769531"/><stop stop-opacity="1" stop-color="rgb(19.308472%, 16.381836%, 30.369568%)" offset="0.773438"/><stop stop-opacity="1" stop-color="rgb(19.128418%, 16.300964%, 30.018616%)" offset="0.777344"/><stop stop-opacity="1" stop-color="rgb(18.94989%, 16.221619%, 29.667664%)" offset="0.78125"/><stop stop-opacity="1" stop-color="rgb(18.769836%, 16.142273%, 29.316711%)" offset="0.785156"/><stop stop-opacity="1" stop-color="rgb(18.591309%, 16.062927%, 28.965759%)" offset="0.789062"/><stop stop-opacity="1" stop-color="rgb(18.411255%, 15.982056%, 28.614807%)" offset="0.792969"/><stop stop-opacity="1" stop-color="rgb(18.232727%, 15.90271%, 28.263855%)" offset="0.796875"/><stop stop-opacity="1" stop-color="rgb(18.052673%, 15.823364%, 27.912903%)" offset="0.800781"/><stop stop-opacity="1" stop-color="rgb(17.874146%, 15.744019%, 27.563477%)" offset="0.804688"/><stop stop-opacity="1" stop-color="rgb(17.694092%, 15.664673%, 27.212524%)" offset="0.808594"/><stop stop-opacity="1" stop-color="rgb(17.515564%, 15.583801%, 26.861572%)" offset="0.8125"/><stop stop-opacity="1" stop-color="rgb(17.33551%, 15.504456%, 26.51062%)" offset="0.816406"/><stop stop-opacity="1" stop-color="rgb(17.156982%, 15.42511%, 26.159668%)" offset="0.820312"/><stop stop-opacity="1" stop-color="rgb(16.976929%, 15.345764%, 25.808716%)" offset="0.824219"/><stop stop-opacity="1" stop-color="rgb(16.798401%, 15.264893%, 25.457764%)" offset="0.828125"/><stop stop-opacity="1" stop-color="rgb(16.618347%, 15.185547%, 25.106812%)" offset="0.832031"/><stop stop-opacity="1" stop-color="rgb(16.439819%, 15.106201%, 24.755859%)" offset="0.835938"/><stop stop-opacity="1" stop-color="rgb(16.259766%, 15.026855%, 24.406433%)" offset="0.839844"/><stop stop-opacity="1" stop-color="rgb(16.081238%, 14.945984%, 24.055481%)" offset="0.84375"/><stop stop-opacity="1" stop-color="rgb(15.901184%, 14.866638%, 23.704529%)" offset="0.847656"/><stop stop-opacity="1" stop-color="rgb(15.722656%, 14.787292%, 23.353577%)" offset="0.851562"/><stop stop-opacity="1" stop-color="rgb(15.542603%, 14.707947%, 23.002625%)" offset="0.855469"/><stop stop-opacity="1" stop-color="rgb(15.364075%, 14.628601%, 22.651672%)" offset="0.859375"/><stop stop-opacity="1" stop-color="rgb(15.184021%, 14.547729%, 22.30072%)" offset="0.863281"/><stop stop-opacity="1" stop-color="rgb(15.005493%, 14.468384%, 21.949768%)" offset="0.867188"/><stop stop-opacity="1" stop-color="rgb(14.825439%, 14.389038%, 21.598816%)" offset="0.871094"/><stop stop-opacity="1" stop-color="rgb(14.646912%, 14.309692%, 21.24939%)" offset="0.875"/><stop stop-opacity="1" stop-color="rgb(14.466858%, 14.228821%, 20.898438%)" offset="0.878906"/><stop stop-opacity="1" stop-color="rgb(14.28833%, 14.149475%, 20.547485%)" offset="0.882812"/><stop stop-opacity="1" stop-color="rgb(14.108276%, 14.070129%, 20.196533%)" offset="0.886719"/><stop stop-opacity="1" stop-color="rgb(13.929749%, 13.990784%, 19.845581%)" offset="0.890625"/><stop stop-opacity="1" stop-color="rgb(13.749695%, 13.911438%, 19.494629%)" offset="0.894531"/><stop stop-opacity="1" stop-color="rgb(13.571167%, 13.830566%, 19.143677%)" offset="0.898438"/><stop stop-opacity="1" stop-color="rgb(13.391113%, 13.751221%, 18.792725%)" offset="0.902344"/><stop stop-opacity="1" stop-color="rgb(13.212585%, 13.671875%, 18.441772%)" offset="0.90625"/><stop stop-opacity="1" stop-color="rgb(13.032532%, 13.592529%, 18.092346%)" offset="0.910156"/><stop stop-opacity="1" stop-color="rgb(12.854004%, 13.511658%, 17.741394%)" offset="0.914062"/><stop stop-opacity="1" stop-color="rgb(12.67395%, 13.432312%, 17.390442%)" offset="0.917969"/><stop stop-opacity="1" stop-color="rgb(12.495422%, 13.352966%, 17.03949%)" offset="0.921875"/><stop stop-opacity="1" stop-color="rgb(12.315369%, 13.273621%, 16.688538%)" offset="0.925781"/><stop stop-opacity="1" stop-color="rgb(12.136841%, 13.194275%, 16.337585%)" offset="0.929688"/><stop stop-opacity="1" stop-color="rgb(11.956787%, 13.113403%, 15.986633%)" offset="0.933594"/><stop stop-opacity="1" stop-color="rgb(11.778259%, 13.034058%, 15.635681%)" offset="0.9375"/><stop stop-opacity="1" stop-color="rgb(11.598206%, 12.954712%, 15.284729%)" offset="0.941406"/><stop stop-opacity="1" stop-color="rgb(11.419678%, 12.875366%, 14.935303%)" offset="0.945312"/><stop stop-opacity="1" stop-color="rgb(11.239624%, 12.794495%, 14.584351%)" offset="0.949219"/><stop stop-opacity="1" stop-color="rgb(11.061096%, 12.715149%, 14.233398%)" offset="0.953125"/><stop stop-opacity="1" stop-color="rgb(10.881042%, 12.635803%, 13.882446%)" offset="0.957031"/><stop stop-opacity="1" stop-color="rgb(10.702515%, 12.556458%, 13.531494%)" offset="0.960938"/><stop stop-opacity="1" stop-color="rgb(10.522461%, 12.477112%, 13.180542%)" offset="0.964844"/><stop stop-opacity="1" stop-color="rgb(10.343933%, 12.39624%, 12.82959%)" offset="0.96875"/><stop stop-opacity="1" stop-color="rgb(10.163879%, 12.316895%, 12.478638%)" offset="0.972656"/><stop stop-opacity="1" stop-color="rgb(9.985352%, 12.237549%, 12.129211%)" offset="0.976562"/><stop stop-opacity="1" stop-color="rgb(9.805298%, 12.158203%, 11.778259%)" offset="0.980469"/><stop stop-opacity="1" stop-color="rgb(9.62677%, 12.077332%, 11.427307%)" offset="0.984375"/><stop stop-opacity="1" stop-color="rgb(9.446716%, 11.997986%, 11.076355%)" offset="0.988281"/><stop stop-opacity="1" stop-color="rgb(9.268188%, 11.91864%, 10.725403%)" offset="0.992188"/><stop stop-opacity="1" stop-color="rgb(9.088135%, 11.839294%, 10.374451%)" offset="0.996094"/><stop stop-opacity="1" stop-color="rgb(8.999634%, 11.799622%, 10.198975%)" offset="1"/></radialGradient><clipPath id="73b7786793"><path d="M 113 75.546875 L 261 75.546875 L 261 186 L 113 186 Z M 113 75.546875 " clip-rule="nonzero"/></clipPath></defs><rect x="-37.5" width="450" fill="#ffffff" y="-37.499999" height="449.999989" fill-opacity="1"/><rect x="-37.5" fill="url(#aac7739d7d)" width="450" y="-37.499999" height="449.999989"/><g clip-path="url(#73b7786793)"><path fill="#ffffff" d="M 158.542969 176.980469 C 165.582031 172.8125 158.691406 163.761719 152.882812 162.796875 C 147.417969 161.898438 142.019531 163.757812 136.558594 162.105469 C 130.539062 160.277344 125.496094 155.640625 122.703125 150.066406 C 111.472656 127.640625 128.738281 99.523438 149.84375 90.585938 C 162.238281 85.335938 176.359375 84.746094 189.652344 84.582031 C 200.605469 84.445312 211.914062 85.285156 222.394531 88.644531 C 232.078125 91.75 241.121094 97.253906 246.585938 106.058594 C 252.742188 115.984375 253.644531 128.992188 248.847656 139.636719 C 242.984375 152.648438 230.859375 158.898438 217.363281 160.800781 C 211.757812 161.59375 205.261719 164.027344 202.042969 168.996094 C 199.488281 172.9375 199.140625 177.964844 202.390625 181.566406 C 202.71875 180.292969 203.042969 179.019531 203.371094 177.742188 C 198.699219 179.648438 191.320312 182.152344 187.496094 177.464844 C 186.371094 176.085938 184.289062 176.460938 183.566406 178.027344 C 181.953125 181.539062 177.078125 181.515625 175.003906 178.53125 C 174.269531 177.472656 172.839844 177.554688 171.875 178.167969 C 169.53125 179.660156 166.488281 181.453125 163.566406 181.113281 C 160.96875 180.8125 158.050781 177.78125 159.976562 175.121094 C 161.578125 172.910156 158.398438 170.636719 156.632812 172.617188 C 153.425781 176.214844 155.035156 181.507812 158.8125 184.066406 C 163.902344 187.511719 170.101562 184.554688 174.640625 181.664062 C 173.597656 181.539062 172.554688 181.417969 171.511719 181.296875 C 175.621094 187.195312 184.765625 185.988281 187.824219 179.753906 C 186.515625 179.941406 185.203125 180.128906 183.894531 180.316406 C 189.175781 187.125 198.339844 184.835938 205.304688 182.3125 C 206.804688 181.765625 207.277344 179.679688 206.28125 178.488281 C 204.054688 175.8125 205.710938 171.933594 208.359375 170.136719 C 211.351562 168.109375 216.417969 168.796875 219.933594 168.460938 C 225.878906 167.894531 231.625 166.390625 236.90625 163.550781 C 247.074219 158.085938 255.265625 148.855469 258.605469 137.707031 C 265.40625 114.992188 253.253906 92.421875 232.226562 82.859375 C 222.027344 78.222656 210.648438 76.5 199.535156 76.058594 C 186.792969 75.550781 173.59375 76.101562 161.125 78.863281 C 137.265625 84.148438 117.796875 101.445312 113.90625 126.226562 C 111.871094 139.199219 114.769531 153.640625 125.390625 162.222656 C 129.722656 165.726562 135.308594 168.15625 140.945312 168.121094 C 144.085938 168.097656 147.132812 167.285156 150.261719 167.136719 C 152.53125 167.03125 155.171875 167.167969 156.769531 169.015625 C 158.171875 170.644531 158.566406 173.214844 156.582031 174.5 C 154.851562 175.625 156.835938 177.988281 158.542969 176.980469 " fill-opacity="1" fill-rule="nonzero"/></g><path fill="#ffffff" d="M 161.671875 132.636719 C 163.148438 130.867188 164.292969 128.929688 164.84375 126.964844 C 164.910156 129.148438 163.558594 131.054688 161.671875 132.636719 Z M 161.101562 116.160156 C 159.945312 115.871094 158.828125 115.746094 157.746094 115.746094 C 149.160156 112.558594 138.269531 117.511719 133.894531 125.179688 C 131.578125 129.238281 130.441406 134.503906 132.195312 139.007812 C 134.203125 144.164062 139.078125 145.570312 144.179688 145.183594 C 153.589844 144.46875 172.246094 138.113281 170.15625 125.585938 C 169.390625 121.023438 165.503906 117.257812 161.101562 116.160156 " fill-opacity="1" fill-rule="nonzero"/><path fill="#ffffff" d="M 235.742188 126.152344 C 232.746094 119.835938 222.832031 115.492188 216.113281 116.300781 C 214.757812 116.464844 213.363281 116.773438 211.96875 117.152344 C 206.285156 117.65625 200.589844 119.832031 197.511719 124.722656 C 193.820312 130.59375 195.601562 137.589844 201.425781 141.230469 C 208.613281 145.726562 218.160156 145.472656 225.707031 142.125 C 232.4375 139.144531 239.726562 134.554688 235.742188 126.152344 " fill-opacity="1" fill-rule="nonzero"/><path fill="#ffffff" d="M 180.027344 146.910156 C 178.636719 150.199219 177.695312 153.695312 176.644531 157.105469 C 176.019531 159.128906 174.253906 162.355469 174.832031 164.558594 C 175.921875 168.726562 180.535156 166.117188 181.695312 163.589844 C 180.910156 163.703125 180.125 163.816406 179.339844 163.925781 C 180.375 164.964844 180.902344 166.753906 182.609375 166.890625 C 183.914062 166.992188 184.867188 166.0625 185.273438 164.921875 C 186.074219 162.6875 185.109375 159.691406 184.695312 157.472656 C 184.117188 154.390625 183.339844 151.355469 182.480469 148.34375 C 182.09375 146.980469 179.78125 147.339844 179.730469 148.71875 C 179.554688 153.34375 179.382812 157.96875 179.203125 162.589844 C 180.125 162.589844 181.050781 162.585938 181.976562 162.585938 C 181.796875 160.710938 181.617188 158.839844 181.441406 156.964844 C 181.304688 155.542969 179.308594 155.394531 178.777344 156.625 C 178.066406 158.277344 177.351562 159.929688 176.640625 161.585938 C 175.9375 163.214844 178.488281 164.25 179.191406 162.617188 C 179.65625 161.546875 180.117188 160.472656 180.582031 159.402344 C 181.207031 157.949219 179.164062 156.859375 178.214844 158.066406 C 177.023438 159.578125 176.339844 161.035156 175.992188 162.925781 C 175.734375 164.324219 177.996094 164.949219 178.429688 163.5625 C 178.875 162.128906 179.464844 160.894531 180.410156 159.707031 C 179.621094 159.261719 178.828125 158.816406 178.039062 158.371094 C 177.574219 159.441406 177.105469 160.515625 176.640625 161.585938 C 177.492188 161.929688 178.34375 162.273438 179.191406 162.617188 C 179.910156 160.96875 180.628906 159.316406 181.347656 157.667969 C 180.460938 157.554688 179.574219 157.441406 178.6875 157.328125 C 178.859375 159.203125 179.03125 161.078125 179.203125 162.953125 C 179.34375 164.507812 181.90625 164.546875 181.976562 162.949219 C 182.171875 158.328125 182.378906 153.710938 182.582031 149.089844 C 181.667969 149.214844 180.746094 149.339844 179.832031 149.464844 C 180.722656 152.648438 181.457031 155.867188 182.042969 159.117188 C 182.25 160.28125 182.65625 161.746094 182.65625 162.929688 C 182.65625 164.851562 182.367188 163.0625 181.5 162.214844 C 180.765625 161.5 179.601562 161.519531 179.144531 162.554688 C 177.578125 162.429688 177.183594 161.753906 177.96875 160.53125 C 178.082031 160.097656 178.195312 159.660156 178.3125 159.226562 C 178.667969 157.878906 179.03125 156.53125 179.382812 155.183594 C 180.070312 152.550781 180.828125 149.921875 181.257812 147.234375 C 181.371094 146.503906 180.308594 146.25 180.027344 146.910156 " fill-opacity="1" fill-rule="nonzero"/><g fill="#ffffff" fill-opacity="1"><g transform="translate(74.626983, 234.647653)"><g><path d="M 21.765625 -34.015625 C 16.578125 -33.609375 13.515625 -33.3125 12.578125 -33.125 C 11.648438 -32.9375 10.867188 -33.007812 10.234375 -33.34375 C 9.597656 -33.6875 8.953125 -33.894531 8.296875 -33.96875 C 7.648438 -34.039062 7.160156 -34.03125 6.828125 -33.9375 C 6.492188 -33.84375 6.066406 -33.738281 5.546875 -33.625 L 5.3125 -33.40625 L 5.421875 -33.015625 C 5.648438 -32.785156 5.828125 -32.632812 5.953125 -32.5625 C 6.085938 -32.488281 6.265625 -32.421875 6.484375 -32.359375 C 6.710938 -32.304688 6.9375 -32.148438 7.15625 -31.890625 C 7.382812 -31.628906 7.78125 -31.273438 8.34375 -30.828125 C 8.820312 -30.117188 9.359375 -29.503906 9.953125 -28.984375 C 10.253906 -28.867188 10.476562 -28.78125 10.625 -28.71875 C 10.78125 -28.664062 11.023438 -28.640625 11.359375 -28.640625 C 11.691406 -28.640625 12.210938 -28.601562 12.921875 -28.53125 C 12.921875 -28.382812 12.929688 -28.265625 12.953125 -28.171875 C 12.972656 -28.078125 12.75 -27.515625 12.28125 -26.484375 C 11.8125 -25.460938 11.328125 -24.253906 10.828125 -22.859375 C 10.328125 -21.460938 10.007812 -20.519531 9.875 -20.03125 C 9.75 -19.539062 9.570312 -18.90625 9.34375 -18.125 C 9.226562 -18.007812 8.648438 -17.800781 7.609375 -17.5 C 6.566406 -17.207031 5.894531 -16.988281 5.59375 -16.84375 C 5.289062 -16.695312 4.957031 -16.53125 4.59375 -16.34375 L 4.46875 -16.109375 C 5.21875 -15.328125 6.039062 -14.65625 6.9375 -14.09375 L 8.0625 -12.8125 C 7.988281 -12.175781 7.929688 -11.101562 7.890625 -9.59375 C 7.847656 -8.082031 7.898438 -7.007812 8.046875 -6.375 C 8.203125 -5.738281 8.332031 -5.335938 8.4375 -5.171875 C 8.550781 -5.003906 8.742188 -4.769531 9.015625 -4.46875 C 9.304688 -4.289062 9.597656 -4.144531 9.890625 -4.03125 C 10.191406 -3.914062 10.460938 -3.765625 10.703125 -3.578125 C 10.953125 -3.390625 11.335938 -3.019531 11.859375 -2.46875 L 13.3125 -0.78125 L 13.875 -0.78125 C 13.914062 -0.894531 13.972656 -0.976562 14.046875 -1.03125 C 14.117188 -1.09375 14.132812 -1.445312 14.09375 -2.09375 C 14.0625 -2.75 13.921875 -3.515625 13.671875 -4.390625 C 13.429688 -5.265625 13.148438 -6.03125 12.828125 -6.6875 C 12.515625 -7.34375 12.40625 -7.992188 12.5 -8.640625 C 12.59375 -9.296875 12.75 -10.253906 12.96875 -11.515625 C 13.195312 -12.785156 13.425781 -13.796875 13.65625 -14.546875 C 13.769531 -14.585938 13.84375 -14.65625 13.875 -14.75 C 13.914062 -14.84375 14.445312 -15.019531 15.46875 -15.28125 C 16.5 -15.539062 17.65625 -15.882812 18.9375 -16.3125 C 20.226562 -16.738281 22.796875 -17.625 26.640625 -18.96875 L 26.75 -19.078125 C 26.96875 -19.265625 27.242188 -19.414062 27.578125 -19.53125 C 23.328125 -19.71875 19.132812 -19.585938 15 -19.140625 C 15 -19.328125 15 -19.503906 15 -19.671875 C 15 -19.835938 15.414062 -21.140625 16.25 -23.578125 C 17.09375 -26.023438 17.53125 -27.4375 17.5625 -27.8125 C 17.601562 -28.1875 17.679688 -28.578125 17.796875 -28.984375 C 18.171875 -29.054688 18.539062 -29.140625 18.90625 -29.234375 C 19.28125 -29.328125 20.378906 -29.457031 22.203125 -29.625 C 24.035156 -29.789062 25.378906 -29.882812 26.234375 -29.90625 C 27.097656 -29.925781 27.921875 -30.046875 28.703125 -30.265625 C 29.484375 -30.492188 29.910156 -30.644531 29.984375 -30.71875 C 30.066406 -30.789062 30.144531 -30.847656 30.21875 -30.890625 C 30.175781 -31.078125 30.15625 -31.21875 30.15625 -31.3125 C 30.15625 -31.40625 30.070312 -31.523438 29.90625 -31.671875 C 29.738281 -31.816406 29.523438 -32.054688 29.265625 -32.390625 C 28.847656 -32.691406 28.535156 -32.925781 28.328125 -33.09375 C 28.128906 -33.257812 27.820312 -33.414062 27.40625 -33.5625 C 27 -33.71875 26.453125 -33.832031 25.765625 -33.90625 C 25.078125 -33.976562 24.472656 -34.003906 23.953125 -33.984375 C 23.429688 -33.972656 22.703125 -33.984375 21.765625 -34.015625 Z M 21.765625 -34.015625 "/></g></g></g><g fill="#ffffff" fill-opacity="1"><g transform="translate(104.835448, 234.647653)"><g><path d="M 5.375 -25.625 C 5.300781 -25.550781 5.253906 -25.445312 5.234375 -25.3125 C 5.210938 -25.1875 5.285156 -24.972656 5.453125 -24.671875 C 5.617188 -24.378906 5.65625 -23.882812 5.5625 -23.1875 C 5.46875 -22.5 5.269531 -21.269531 4.96875 -19.5 C 4.675781 -17.726562 4.4375 -15.914062 4.25 -14.0625 C 4.0625 -12.21875 3.945312 -10.613281 3.90625 -9.25 C 3.875 -7.894531 3.875 -6.691406 3.90625 -5.640625 C 3.945312 -4.597656 3.976562 -4.003906 4 -3.859375 C 4.019531 -3.710938 4.066406 -3.5625 4.140625 -3.40625 C 4.328125 -3.332031 4.457031 -3.273438 4.53125 -3.234375 C 4.601562 -3.203125 4.734375 -3.15625 4.921875 -3.09375 C 5.109375 -3.039062 5.332031 -2.894531 5.59375 -2.65625 C 5.851562 -2.414062 6.265625 -2 6.828125 -1.40625 L 8.109375 0 C 8.296875 -0.851562 8.425781 -1.515625 8.5 -1.984375 C 8.570312 -2.453125 8.65625 -3.226562 8.75 -4.3125 C 8.84375 -5.394531 9.054688 -6.601562 9.390625 -7.9375 C 9.734375 -9.28125 9.921875 -10.507812 9.953125 -11.625 C 9.992188 -12.75 10.003906 -13.609375 9.984375 -14.203125 C 9.960938 -14.804688 10 -15.160156 10.09375 -15.265625 C 10.1875 -15.378906 10.3125 -15.515625 10.46875 -15.671875 C 11.207031 -15.890625 11.769531 -16.046875 12.15625 -16.140625 C 12.550781 -16.234375 12.9375 -16.398438 13.3125 -16.640625 C 13.6875 -16.890625 14.015625 -17.148438 14.296875 -17.421875 C 14.578125 -17.703125 15 -18.101562 15.5625 -18.625 C 15.96875 -19.257812 16.265625 -19.707031 16.453125 -19.96875 C 16.640625 -20.226562 16.816406 -20.59375 16.984375 -21.0625 C 17.148438 -21.53125 17.234375 -22.0625 17.234375 -22.65625 C 17.234375 -23.257812 17.175781 -23.660156 17.0625 -23.859375 C 16.945312 -24.066406 16.851562 -24.300781 16.78125 -24.5625 L 16.28125 -24.625 C 15.570312 -23.945312 14.984375 -23.410156 14.515625 -23.015625 C 14.054688 -22.628906 13.441406 -22.085938 12.671875 -21.390625 C 11.910156 -20.703125 11.460938 -20.3125 11.328125 -20.21875 C 11.203125 -20.132812 11.023438 -19.976562 10.796875 -19.75 L 10.578125 -19.8125 C 10.535156 -20.257812 10.523438 -20.582031 10.546875 -20.78125 C 10.566406 -20.988281 10.484375 -21.285156 10.296875 -21.671875 C 10.109375 -22.066406 9.863281 -22.394531 9.5625 -22.65625 C 9.269531 -22.914062 8.863281 -23.363281 8.34375 -24 C 7.78125 -24.414062 7.347656 -24.710938 7.046875 -24.890625 C 6.753906 -25.078125 6.4375 -25.253906 6.09375 -25.421875 C 5.757812 -25.597656 5.5625 -25.675781 5.5 -25.65625 C 5.445312 -25.632812 5.40625 -25.625 5.375 -25.625 Z M 5.375 -25.625 "/></g></g></g><g fill="#ffffff" fill-opacity="1"><g transform="translate(122.065465, 234.647653)"><g><path d="M 5.9375 -35.078125 C 5.820312 -34.859375 5.726562 -34.671875 5.65625 -34.515625 C 5.582031 -34.367188 5.453125 -33.90625 5.265625 -33.125 C 5.078125 -32.34375 4.972656 -31.613281 4.953125 -30.9375 C 4.929688 -30.269531 5.015625 -29.691406 5.203125 -29.203125 C 5.390625 -28.722656 5.601562 -28.3125 5.84375 -27.96875 C 6.082031 -27.632812 6.210938 -27.441406 6.234375 -27.390625 C 6.253906 -27.335938 6.285156 -27.269531 6.328125 -27.1875 L 6.828125 -26.75 C 7.273438 -26.820312 7.703125 -27.046875 8.109375 -27.421875 C 8.335938 -27.898438 8.550781 -28.257812 8.75 -28.5 C 8.957031 -28.75 9.132812 -29.21875 9.28125 -29.90625 C 9.4375 -30.59375 9.515625 -31.1875 9.515625 -31.6875 C 9.515625 -32.195312 9.398438 -32.597656 9.171875 -32.890625 C 8.953125 -33.191406 8.75 -33.398438 8.5625 -33.515625 C 8.375 -33.628906 8.128906 -33.875 7.828125 -34.25 C 7.421875 -34.507812 7.132812 -34.691406 6.96875 -34.796875 C 6.800781 -34.910156 6.640625 -34.96875 6.484375 -34.96875 C 6.335938 -34.96875 6.15625 -35.003906 5.9375 -35.078125 Z M 4.03125 -25.625 C 3.957031 -25.550781 3.875 -25.035156 3.78125 -24.078125 C 3.6875 -23.128906 3.488281 -21.769531 3.1875 -20 C 2.882812 -18.226562 2.648438 -16.503906 2.484375 -14.828125 C 2.316406 -13.148438 2.242188 -11.710938 2.265625 -10.515625 C 2.285156 -9.328125 2.347656 -8.21875 2.453125 -7.1875 C 2.566406 -6.164062 2.726562 -5.28125 2.9375 -4.53125 C 3.144531 -3.78125 3.359375 -3.25 3.578125 -2.9375 C 3.804688 -2.625 3.945312 -2.390625 4 -2.234375 C 4.050781 -2.085938 4.132812 -1.957031 4.25 -1.84375 C 4.394531 -1.582031 4.601562 -1.453125 4.875 -1.453125 C 5.019531 -1.640625 5.117188 -1.78125 5.171875 -1.875 C 5.234375 -1.96875 5.375 -2.289062 5.59375 -2.84375 C 5.820312 -3.40625 6.082031 -4.46875 6.375 -6.03125 C 6.675781 -7.601562 6.925781 -9.523438 7.125 -11.796875 C 7.332031 -14.078125 7.601562 -16.140625 7.9375 -17.984375 C 8.28125 -19.835938 8.441406 -21.023438 8.421875 -21.546875 C 8.398438 -22.066406 8.296875 -22.398438 8.109375 -22.546875 C 7.921875 -22.691406 7.644531 -23.03125 7.28125 -23.5625 C 6.90625 -23.96875 6.613281 -24.265625 6.40625 -24.453125 C 6.195312 -24.640625 5.90625 -24.832031 5.53125 -25.03125 C 5.164062 -25.238281 4.859375 -25.378906 4.609375 -25.453125 C 4.367188 -25.535156 4.175781 -25.59375 4.03125 -25.625 Z M 4.03125 -25.625 "/></g></g></g><g fill="#ffffff" fill-opacity="1"><g transform="translate(132.694371, 234.647653)"><g><path d="M 19.8125 -25.6875 C 19.207031 -25.613281 18.738281 -25.554688 18.40625 -25.515625 C 18.070312 -25.472656 17.550781 -25.3125 16.84375 -25.03125 C 16.132812 -24.757812 15.429688 -24.390625 14.734375 -23.921875 C 14.046875 -23.453125 13.503906 -23.03125 13.109375 -22.65625 C 12.722656 -22.28125 12.160156 -21.722656 11.421875 -20.984375 C 8.921875 -18.441406 7.070312 -15.566406 5.875 -12.359375 C 5.570312 -12.253906 4.984375 -12.097656 4.109375 -11.890625 C 3.234375 -11.679688 2.515625 -11.578125 1.953125 -11.578125 C 1.398438 -11.578125 0.925781 -11.632812 0.53125 -11.75 C 0.132812 -11.863281 -0.414062 -12.050781 -1.125 -12.3125 L -1.0625 -11.96875 C -0.726562 -11.75 -0.484375 -11.59375 -0.328125 -11.5 C -0.179688 -11.40625 -0.015625 -11.3125 0.171875 -11.21875 C 0.359375 -11.125 0.535156 -11.007812 0.703125 -10.875 C 0.867188 -10.75 1.175781 -10.484375 1.625 -10.078125 L 3.25 -8.21875 C 4.0625 -7.664062 4.957031 -7.367188 5.9375 -7.328125 C 6.15625 -6.660156 6.46875 -6.082031 6.875 -5.59375 C 7.507812 -4.84375 8.3125 -4.285156 9.28125 -3.921875 L 11.1875 -2.015625 C 11.519531 -1.785156 11.789062 -1.601562 12 -1.46875 C 12.207031 -1.34375 12.550781 -1.242188 13.03125 -1.171875 C 13.519531 -1.097656 14.070312 -1.078125 14.6875 -1.109375 C 15.300781 -1.148438 16.035156 -1.316406 16.890625 -1.609375 C 17.753906 -1.910156 18.695312 -2.359375 19.71875 -2.953125 C 20.75 -3.554688 21.476562 -4.046875 21.90625 -4.421875 C 22.332031 -4.796875 22.882812 -5.316406 23.5625 -5.984375 L 24 -6.484375 L 23.890625 -6.546875 L 24.0625 -6.828125 L 23.890625 -7.15625 C 23.671875 -7.125 23.472656 -7.097656 23.296875 -7.078125 C 23.128906 -7.054688 22.222656 -6.703125 20.578125 -6.015625 C 18.941406 -5.328125 17.582031 -4.867188 16.5 -4.640625 C 15.425781 -4.421875 14.523438 -4.265625 13.796875 -4.171875 C 13.066406 -4.078125 12.382812 -4.035156 11.75 -4.046875 C 11.113281 -4.066406 10.703125 -4.113281 10.515625 -4.1875 C 10.328125 -4.269531 10.066406 -4.347656 9.734375 -4.421875 C 9.328125 -5.535156 9.21875 -6.671875 9.40625 -7.828125 C 10.59375 -8.203125 11.539062 -8.5 12.25 -8.71875 C 12.957031 -8.945312 14.007812 -9.367188 15.40625 -9.984375 C 16.8125 -10.597656 18.09375 -11.203125 19.25 -11.796875 C 20.40625 -12.398438 21.382812 -12.976562 22.1875 -13.53125 C 22.988281 -14.09375 23.554688 -14.523438 23.890625 -14.828125 C 24.222656 -15.128906 24.707031 -15.539062 25.34375 -16.0625 C 25.789062 -16.613281 26.097656 -17 26.265625 -17.21875 C 26.429688 -17.445312 26.609375 -17.726562 26.796875 -18.0625 C 26.984375 -18.40625 27.101562 -18.769531 27.15625 -19.15625 C 27.21875 -19.550781 27.203125 -19.984375 27.109375 -20.453125 C 27.015625 -20.921875 26.851562 -21.335938 26.625 -21.703125 C 26.40625 -22.078125 26.15625 -22.375 25.875 -22.59375 C 25.59375 -22.820312 25.191406 -23.21875 24.671875 -23.78125 C 24.148438 -24.226562 23.710938 -24.546875 23.359375 -24.734375 C 23.003906 -24.921875 22.59375 -25.109375 22.125 -25.296875 C 21.664062 -25.484375 21.191406 -25.601562 20.703125 -25.65625 C 20.210938 -25.707031 19.914062 -25.71875 19.8125 -25.6875 Z M 22.4375 -23.71875 C 23.101562 -23.6875 23.71875 -23.519531 24.28125 -23.21875 C 24.28125 -23.03125 24.289062 -22.863281 24.3125 -22.71875 C 24.332031 -22.570312 24.25 -22.320312 24.0625 -21.96875 C 23.875 -21.613281 23.609375 -21.296875 23.265625 -21.015625 C 22.929688 -20.734375 22.410156 -20.21875 21.703125 -19.46875 C 20.703125 -18.613281 19.882812 -17.988281 19.25 -17.59375 C 18.613281 -17.207031 17.78125 -16.722656 16.75 -16.140625 C 15.726562 -15.566406 14.609375 -15.046875 13.390625 -14.578125 C 12.179688 -14.109375 11.519531 -13.875 11.40625 -13.875 C 11.300781 -13.875 11.171875 -13.875 11.015625 -13.875 C 12.097656 -16.300781 13.613281 -18.460938 15.5625 -20.359375 C 16.269531 -20.960938 16.789062 -21.421875 17.125 -21.734375 C 17.457031 -22.054688 17.894531 -22.375 18.4375 -22.6875 C 18.976562 -23.007812 19.5 -23.257812 20 -23.4375 C 20.507812 -23.625 20.910156 -23.71875 21.203125 -23.71875 C 21.503906 -23.71875 21.894531 -23.738281 22.375 -23.78125 Z M 22.4375 -23.71875 "/></g></g></g><g fill="#ffffff" fill-opacity="1"><g transform="translate(160.4414, 234.647653)"><g><path d="M 9.015625 -24.84375 C 8.785156 -24.539062 8.585938 -24.296875 8.421875 -24.109375 C 8.253906 -23.929688 7.945312 -23.46875 7.5 -22.71875 C 7.050781 -21.96875 6.582031 -20.976562 6.09375 -19.75 C 5.613281 -18.519531 5.113281 -17.054688 4.59375 -15.359375 C 4.070312 -13.660156 3.613281 -12.035156 3.21875 -10.484375 C 2.820312 -8.941406 2.550781 -7.75 2.40625 -6.90625 C 2.257812 -6.070312 2.203125 -5.429688 2.234375 -4.984375 C 2.273438 -4.535156 2.320312 -4.265625 2.375 -4.171875 C 2.4375 -4.078125 2.519531 -3.957031 2.625 -3.8125 C 2.882812 -3.695312 3.097656 -3.617188 3.265625 -3.578125 C 3.441406 -3.546875 3.664062 -3.414062 3.9375 -3.1875 C 4.21875 -2.96875 4.695312 -2.578125 5.375 -2.015625 L 6.875 -0.21875 C 7.101562 -0.113281 7.265625 -0.0507812 7.359375 -0.03125 C 7.453125 -0.0078125 7.582031 -0.0234375 7.75 -0.078125 C 7.914062 -0.140625 8.054688 -0.21875 8.171875 -0.3125 C 8.285156 -0.40625 8.453125 -0.546875 8.671875 -0.734375 C 9.078125 -1.472656 9.390625 -1.972656 9.609375 -2.234375 C 9.835938 -2.492188 10.082031 -2.863281 10.34375 -3.34375 C 10.613281 -3.832031 10.878906 -4.585938 11.140625 -5.609375 C 11.398438 -6.640625 11.675781 -8.066406 11.96875 -9.890625 C 12.269531 -11.722656 12.550781 -13.132812 12.8125 -14.125 C 13.070312 -15.113281 13.3125 -15.925781 13.53125 -16.5625 C 13.757812 -17.195312 13.992188 -17.753906 14.234375 -18.234375 C 14.484375 -18.722656 14.765625 -19.097656 15.078125 -19.359375 C 15.398438 -19.617188 15.859375 -20.085938 16.453125 -20.765625 C 17.046875 -21.171875 17.488281 -21.472656 17.78125 -21.671875 C 18.082031 -21.878906 18.445312 -22.078125 18.875 -22.265625 C 19.3125 -22.453125 19.59375 -22.535156 19.71875 -22.515625 C 19.851562 -22.503906 20.015625 -22.5 20.203125 -22.5 C 20.304688 -21.75 20.425781 -21.140625 20.5625 -20.671875 C 20.695312 -20.203125 20.804688 -19.285156 20.890625 -17.921875 C 20.984375 -16.566406 21.019531 -15.253906 21 -13.984375 C 20.988281 -12.710938 21.019531 -11.414062 21.09375 -10.09375 C 21.164062 -8.769531 21.273438 -7.6875 21.421875 -6.84375 C 21.578125 -6.007812 21.738281 -5.359375 21.90625 -4.890625 C 22.070312 -4.429688 22.21875 -4.085938 22.34375 -3.859375 C 22.476562 -3.640625 22.695312 -3.304688 23 -2.859375 C 23.5625 -2.253906 24.140625 -1.769531 24.734375 -1.40625 L 25.34375 -0.671875 C 25.832031 -0.441406 26.335938 -0.367188 26.859375 -0.453125 L 27.140625 -0.734375 L 26.90625 -1 C 26.09375 -1.039062 25.367188 -1.285156 24.734375 -1.734375 C 24.617188 -2.179688 24.53125 -2.535156 24.46875 -2.796875 C 24.414062 -3.054688 24.34375 -3.765625 24.25 -4.921875 C 24.15625 -6.078125 24.117188 -7.921875 24.140625 -10.453125 C 24.160156 -12.992188 24.101562 -14.984375 23.96875 -16.421875 C 23.84375 -17.859375 23.6875 -18.910156 23.5 -19.578125 C 23.3125 -20.253906 23.097656 -20.867188 22.859375 -21.421875 C 22.617188 -21.984375 22.375 -22.375 22.125 -22.59375 C 21.882812 -22.820312 21.539062 -23.179688 21.09375 -23.671875 C 20.601562 -23.960938 20.238281 -24.21875 20 -24.4375 C 19.757812 -24.664062 19.46875 -24.835938 19.125 -24.953125 C 18.789062 -25.066406 18.378906 -25.085938 17.890625 -25.015625 C 17.410156 -24.941406 16.832031 -24.742188 16.15625 -24.421875 C 15.488281 -24.109375 14.78125 -23.707031 14.03125 -23.21875 C 13.289062 -22.738281 12.875 -22.457031 12.78125 -22.375 C 12.6875 -22.300781 12.566406 -22.207031 12.421875 -22.09375 C 12.421875 -22.207031 12.421875 -22.300781 12.421875 -22.375 C 12.421875 -22.457031 12.457031 -22.550781 12.53125 -22.65625 C 12.601562 -22.769531 12.570312 -22.957031 12.4375 -23.21875 C 12.3125 -23.476562 12.164062 -23.671875 12 -23.796875 C 11.832031 -23.929688 11.582031 -24.1875 11.25 -24.5625 C 10.832031 -24.75 10.554688 -24.90625 10.421875 -25.03125 C 10.296875 -25.164062 10.164062 -25.222656 10.03125 -25.203125 C 9.90625 -25.179688 9.769531 -25.191406 9.625 -25.234375 Z M 9.015625 -24.84375 "/></g></g></g><g fill="#ffffff" fill-opacity="1"><g transform="translate(188.691902, 234.647653)"><g><path d="M 20.8125 -35.8125 C 20.738281 -35.769531 20.691406 -35.710938 20.671875 -35.640625 C 20.648438 -35.566406 20.488281 -35.191406 20.1875 -34.515625 C 19.894531 -33.847656 19.523438 -32.710938 19.078125 -31.109375 C 18.628906 -29.503906 18.160156 -27.59375 17.671875 -25.375 C 17.191406 -23.15625 16.894531 -21.632812 16.78125 -20.8125 C 16.75 -20.8125 16.703125 -20.8125 16.640625 -20.8125 C 16.585938 -20.8125 16.316406 -21 15.828125 -21.375 C 15.347656 -21.75 14.882812 -22.03125 14.4375 -22.21875 C 13.988281 -22.40625 13.566406 -22.515625 13.171875 -22.546875 C 12.785156 -22.585938 12.40625 -22.597656 12.03125 -22.578125 C 11.65625 -22.554688 11.253906 -22.460938 10.828125 -22.296875 C 10.398438 -22.128906 9.976562 -21.921875 9.5625 -21.671875 C 9.15625 -21.429688 8.785156 -21.171875 8.453125 -20.890625 C 8.117188 -20.617188 7.707031 -20.203125 7.21875 -19.640625 C 6.582031 -18.785156 6.113281 -18.171875 5.8125 -17.796875 C 5.519531 -17.421875 5.15625 -16.859375 4.71875 -16.109375 C 4.289062 -15.367188 3.890625 -14.53125 3.515625 -13.59375 C 3.148438 -12.664062 2.851562 -11.722656 2.625 -10.765625 C 2.40625 -9.816406 2.273438 -8.929688 2.234375 -8.109375 C 2.203125 -7.285156 2.234375 -6.640625 2.328125 -6.171875 C 2.421875 -5.710938 2.566406 -5.351562 2.765625 -5.09375 C 2.972656 -4.832031 3.125 -4.625 3.21875 -4.46875 C 3.3125 -4.320312 3.46875 -4.15625 3.6875 -3.96875 C 4.132812 -3.78125 4.460938 -3.640625 4.671875 -3.546875 C 4.878906 -3.453125 5.066406 -3.332031 5.234375 -3.1875 C 5.398438 -3.039062 5.671875 -2.816406 6.046875 -2.515625 L 7.671875 -0.734375 C 8.003906 -0.617188 8.269531 -0.503906 8.46875 -0.390625 C 8.675781 -0.273438 9.039062 -0.21875 9.5625 -0.21875 C 10.082031 -0.21875 10.554688 -0.28125 10.984375 -0.40625 C 11.421875 -0.539062 11.769531 -0.691406 12.03125 -0.859375 C 12.289062 -1.035156 12.625 -1.269531 13.03125 -1.5625 C 13.476562 -1.976562 14.09375 -2.753906 14.875 -3.890625 C 15.664062 -5.023438 16.285156 -6.039062 16.734375 -6.9375 C 16.804688 -6.71875 16.890625 -6.550781 16.984375 -6.4375 C 17.078125 -6.320312 17.1875 -6.066406 17.3125 -5.671875 C 17.445312 -5.285156 17.65625 -4.859375 17.9375 -4.390625 C 18.21875 -3.921875 18.488281 -3.535156 18.75 -3.234375 C 19.007812 -2.941406 19.378906 -2.476562 19.859375 -1.84375 C 20.796875 -0.988281 21.503906 -0.375 21.984375 0 C 22.472656 0.375 22.734375 0.5625 22.765625 0.5625 C 22.804688 0.5625 22.847656 0.5625 22.890625 0.5625 C 22.328125 -0.113281 21.914062 -0.582031 21.65625 -0.84375 C 21.394531 -1.101562 21.171875 -1.484375 20.984375 -1.984375 C 20.796875 -2.484375 20.664062 -3.039062 20.59375 -3.65625 C 20.519531 -4.28125 20.460938 -5.054688 20.421875 -5.984375 C 20.378906 -6.921875 20.394531 -8.085938 20.46875 -9.484375 C 20.550781 -10.878906 20.703125 -12.535156 20.921875 -14.453125 C 21.148438 -16.378906 21.457031 -18.300781 21.84375 -20.21875 C 22.238281 -22.144531 22.671875 -23.957031 23.140625 -25.65625 C 23.609375 -27.351562 23.972656 -28.65625 24.234375 -29.5625 C 24.492188 -30.476562 24.6875 -31.195312 24.8125 -31.71875 C 24.945312 -32.25 24.882812 -32.679688 24.625 -33.015625 C 24.363281 -33.347656 24.128906 -33.613281 23.921875 -33.8125 C 23.710938 -34.019531 23.367188 -34.347656 22.890625 -34.796875 C 22.398438 -35.140625 22.070312 -35.375 21.90625 -35.5 C 21.738281 -35.632812 21.570312 -35.703125 21.40625 -35.703125 C 21.238281 -35.703125 21.039062 -35.738281 20.8125 -35.8125 Z M 16.21875 -18.796875 C 16.257812 -18.347656 16.316406 -17.972656 16.390625 -17.671875 C 16.460938 -17.378906 16.425781 -16.53125 16.28125 -15.125 C 16.132812 -13.726562 16.15625 -12.476562 16.34375 -11.375 C 16.53125 -10.28125 16.453125 -9.535156 16.109375 -9.140625 C 15.773438 -8.753906 15.3125 -8.09375 14.71875 -7.15625 C 14.15625 -6.632812 13.742188 -6.234375 13.484375 -5.953125 C 13.222656 -5.679688 12.859375 -5.421875 12.390625 -5.171875 C 11.921875 -4.929688 11.34375 -4.660156 10.65625 -4.359375 C 9.96875 -4.066406 9.367188 -3.875 8.859375 -3.78125 C 8.359375 -3.6875 7.988281 -3.640625 7.75 -3.640625 C 7.507812 -3.640625 7.144531 -3.65625 6.65625 -3.6875 C 6.695312 -4.4375 6.707031 -4.976562 6.6875 -5.3125 C 6.664062 -5.644531 6.738281 -6.210938 6.90625 -7.015625 C 7.070312 -7.816406 7.34375 -8.691406 7.71875 -9.640625 C 8.09375 -10.597656 8.503906 -11.503906 8.953125 -12.359375 C 9.398438 -13.222656 9.863281 -13.976562 10.34375 -14.625 C 10.832031 -15.28125 11.222656 -15.753906 11.515625 -16.046875 C 11.816406 -16.347656 12.269531 -16.800781 12.875 -17.40625 C 13.425781 -17.769531 13.84375 -18.046875 14.125 -18.234375 C 14.40625 -18.421875 14.757812 -18.578125 15.1875 -18.703125 C 15.613281 -18.835938 15.863281 -18.882812 15.9375 -18.84375 C 16.019531 -18.8125 16.113281 -18.796875 16.21875 -18.796875 Z M 16.21875 -18.796875 "/></g></g></g><g fill="#ffffff" fill-opacity="1"><g transform="translate(213.585914, 234.647653)"><g><path d="M 11.296875 -25.734375 C 10.960938 -25.660156 10.679688 -25.601562 10.453125 -25.5625 C 10.234375 -25.53125 9.945312 -25.429688 9.59375 -25.265625 C 9.238281 -25.097656 8.929688 -24.898438 8.671875 -24.671875 C 8.410156 -24.453125 7.984375 -24.117188 7.390625 -23.671875 C 6.785156 -23.035156 6.34375 -22.554688 6.0625 -22.234375 C 5.789062 -21.921875 5.4375 -21.390625 5 -20.640625 C 4.570312 -19.898438 4.15625 -19.085938 3.75 -18.203125 C 3.34375 -17.328125 2.957031 -16.378906 2.59375 -15.359375 C 2.238281 -14.335938 2.003906 -13.347656 1.890625 -12.390625 C 1.785156 -11.441406 1.710938 -10.484375 1.671875 -9.515625 C 1.640625 -8.546875 1.707031 -7.796875 1.875 -7.265625 C 2.039062 -6.742188 2.207031 -6.367188 2.375 -6.140625 C 2.539062 -5.921875 2.773438 -5.570312 3.078125 -5.09375 C 3.710938 -4.414062 4.476562 -3.910156 5.375 -3.578125 C 6.007812 -2.867188 6.660156 -2.144531 7.328125 -1.40625 C 7.660156 -1.132812 7.9375 -0.941406 8.15625 -0.828125 C 8.382812 -0.722656 8.722656 -0.59375 9.171875 -0.4375 C 9.617188 -0.289062 10.207031 -0.21875 10.9375 -0.21875 C 11.664062 -0.21875 12.375 -0.3125 13.0625 -0.5 C 13.75 -0.6875 14.351562 -0.921875 14.875 -1.203125 C 15.40625 -1.484375 15.835938 -1.753906 16.171875 -2.015625 C 16.503906 -2.273438 16.953125 -2.648438 17.515625 -3.140625 C 17.847656 -3.585938 18.097656 -3.894531 18.265625 -4.0625 C 18.429688 -4.226562 18.597656 -4.46875 18.765625 -4.78125 C 18.941406 -5.101562 19.03125 -5.363281 19.03125 -5.5625 C 19.03125 -5.769531 19.007812 -5.890625 18.96875 -5.921875 C 18.925781 -5.960938 18.890625 -6.019531 18.859375 -6.09375 L 18.234375 -5.875 L 18.234375 -6.09375 C 17.265625 -5.613281 16.441406 -5.242188 15.765625 -4.984375 C 15.097656 -4.722656 14.382812 -4.5 13.625 -4.3125 C 12.863281 -4.125 12.039062 -3.960938 11.15625 -3.828125 C 10.28125 -3.703125 9.328125 -3.675781 8.296875 -3.75 C 7.273438 -3.820312 6.695312 -3.867188 6.5625 -3.890625 C 6.4375 -3.910156 6.316406 -3.9375 6.203125 -3.96875 C 6.128906 -4.75 6.070312 -5.316406 6.03125 -5.671875 C 6 -6.023438 5.992188 -6.53125 6.015625 -7.1875 C 6.035156 -7.84375 6.117188 -8.644531 6.265625 -9.59375 C 6.410156 -10.539062 6.671875 -11.582031 7.046875 -12.71875 C 7.421875 -13.863281 7.8125 -14.890625 8.21875 -15.796875 C 8.632812 -16.710938 9 -17.421875 9.3125 -17.921875 C 9.632812 -18.429688 9.90625 -18.828125 10.125 -19.109375 C 10.351562 -19.390625 10.691406 -19.863281 11.140625 -20.53125 C 11.660156 -20.945312 12.066406 -21.265625 12.359375 -21.484375 C 12.660156 -21.710938 13.046875 -21.925781 13.515625 -22.125 C 13.984375 -22.332031 14.421875 -22.453125 14.828125 -22.484375 C 15.234375 -22.523438 15.519531 -22.523438 15.6875 -22.484375 C 15.863281 -22.453125 16.117188 -22.4375 16.453125 -22.4375 C 16.710938 -21.800781 16.804688 -21.164062 16.734375 -20.53125 C 16.804688 -20.71875 16.878906 -20.941406 16.953125 -21.203125 C 17.066406 -20.867188 17.046875 -20.585938 16.890625 -20.359375 C 17.304688 -19.765625 17.8125 -19.675781 18.40625 -20.09375 C 18.550781 -20.3125 18.644531 -20.457031 18.6875 -20.53125 C 18.726562 -20.601562 18.738281 -20.734375 18.71875 -20.921875 C 18.695312 -21.109375 18.609375 -21.285156 18.453125 -21.453125 C 18.304688 -21.617188 18.140625 -21.890625 17.953125 -22.265625 C 17.398438 -22.828125 16.984375 -23.253906 16.703125 -23.546875 C 16.421875 -23.847656 15.972656 -24.1875 15.359375 -24.5625 C 14.742188 -24.9375 14.164062 -25.222656 13.625 -25.421875 C 13.082031 -25.628906 12.679688 -25.722656 12.421875 -25.703125 C 12.160156 -25.691406 11.785156 -25.703125 11.296875 -25.734375 Z M 11.296875 -25.734375 "/></g></g></g><g fill="#ffffff" fill-opacity="1"><g transform="translate(234.2843, 234.647653)"><g><path d="M 14.4375 -25.734375 C 14.101562 -25.703125 13.8125 -25.644531 13.5625 -25.5625 C 13.320312 -25.488281 12.976562 -25.3125 12.53125 -25.03125 C 12.082031 -24.757812 11.695312 -24.484375 11.375 -24.203125 C 11.0625 -23.921875 10.609375 -23.5 10.015625 -22.9375 C 9.304688 -22.039062 8.773438 -21.394531 8.421875 -21 C 8.066406 -20.613281 7.65625 -20 7.1875 -19.15625 C 6.71875 -18.320312 6.234375 -17.421875 5.734375 -16.453125 C 5.234375 -15.484375 4.679688 -14.242188 4.078125 -12.734375 C 3.484375 -11.222656 3.128906 -10.082031 3.015625 -9.3125 C 2.910156 -8.550781 2.847656 -7.878906 2.828125 -7.296875 C 2.804688 -6.722656 2.84375 -6.332031 2.9375 -6.125 C 3.03125 -5.914062 3.1875 -5.585938 3.40625 -5.140625 C 3.707031 -4.878906 3.941406 -4.691406 4.109375 -4.578125 C 4.273438 -4.472656 4.46875 -4.382812 4.6875 -4.3125 C 4.914062 -4.238281 5.125 -4.085938 5.3125 -3.859375 C 5.5 -3.640625 5.835938 -3.285156 6.328125 -2.796875 L 7.4375 -1.28125 C 7.738281 -1.09375 8 -0.941406 8.21875 -0.828125 C 8.445312 -0.722656 8.789062 -0.671875 9.25 -0.671875 C 9.71875 -0.671875 10.109375 -0.734375 10.421875 -0.859375 C 10.742188 -0.992188 11.148438 -1.191406 11.640625 -1.453125 L 11.75 -1.671875 L 12.3125 -1.953125 C 12.71875 -2.441406 13.03125 -2.84375 13.25 -3.15625 C 13.476562 -3.476562 13.863281 -4.113281 14.40625 -5.0625 C 14.945312 -6.007812 15.3125 -6.601562 15.5 -6.84375 C 15.6875 -7.09375 15.875 -7.382812 16.0625 -7.71875 C 16.4375 -6.039062 17.144531 -4.644531 18.1875 -3.53125 L 19.75 -2.1875 L 20.421875 -1.34375 C 20.867188 -1.082031 21.191406 -0.894531 21.390625 -0.78125 C 21.597656 -0.664062 21.796875 -0.609375 21.984375 -0.609375 C 22.171875 -0.609375 22.414062 -0.628906 22.71875 -0.671875 L 22.828125 -0.890625 C 22.710938 -0.929688 22.628906 -0.988281 22.578125 -1.0625 C 22.523438 -1.132812 22.273438 -1.253906 21.828125 -1.421875 C 21.378906 -1.585938 21.03125 -1.742188 20.78125 -1.890625 C 20.539062 -2.046875 20.21875 -2.253906 19.8125 -2.515625 C 19.625 -2.773438 19.484375 -2.976562 19.390625 -3.125 C 19.296875 -3.28125 19.144531 -3.664062 18.9375 -4.28125 C 18.726562 -4.894531 18.597656 -5.613281 18.546875 -6.4375 C 18.492188 -7.257812 18.484375 -8.160156 18.515625 -9.140625 C 18.554688 -10.128906 18.765625 -11.453125 19.140625 -13.109375 C 19.515625 -14.773438 19.8125 -16 20.03125 -16.78125 C 20.25 -17.5625 20.382812 -18.007812 20.4375 -18.125 C 20.5 -18.238281 20.550781 -18.332031 20.59375 -18.40625 L 20.140625 -19.078125 C 19.734375 -19.597656 19.25 -19.988281 18.6875 -20.25 L 18.46875 -20.09375 C 18.28125 -19.675781 18.101562 -19.347656 17.9375 -19.109375 C 17.769531 -18.867188 17.582031 -18.394531 17.375 -17.6875 C 17.164062 -16.976562 16.894531 -15.894531 16.5625 -14.4375 C 16.226562 -12.976562 15.710938 -11.742188 15.015625 -10.734375 C 14.328125 -9.734375 13.820312 -9.054688 13.5 -8.703125 C 13.1875 -8.347656 12.769531 -7.890625 12.25 -7.328125 C 11.695312 -6.921875 11.234375 -6.601562 10.859375 -6.375 C 10.484375 -6.15625 9.863281 -5.820312 9 -5.375 C 8.144531 -4.925781 7.648438 -4.703125 7.515625 -4.703125 C 7.390625 -4.703125 7.253906 -4.703125 7.109375 -4.703125 C 7.109375 -5.035156 7.125 -5.320312 7.15625 -5.5625 C 7.195312 -5.8125 7.382812 -6.457031 7.71875 -7.5 C 8.050781 -8.539062 8.476562 -9.617188 9 -10.734375 C 9.53125 -11.859375 10.195312 -13.15625 11 -14.625 C 11.800781 -16.101562 12.394531 -17.035156 12.78125 -17.421875 C 13.175781 -17.816406 13.726562 -18.441406 14.4375 -19.296875 C 15.257812 -20.046875 16.171875 -20.679688 17.171875 -21.203125 L 17.296875 -20.765625 L 17.453125 -20.765625 L 17.5625 -20.640625 C 17.820312 -20.640625 18.035156 -20.640625 18.203125 -20.640625 C 18.378906 -20.640625 18.53125 -20.660156 18.65625 -20.703125 C 18.789062 -20.742188 18.910156 -20.765625 19.015625 -20.765625 C 19.128906 -20.765625 19.265625 -20.722656 19.421875 -20.640625 L 19.578125 -20.921875 C 19.390625 -21.367188 19.238281 -21.722656 19.125 -21.984375 C 19.019531 -22.242188 18.835938 -22.492188 18.578125 -22.734375 C 18.316406 -22.984375 17.890625 -23.460938 17.296875 -24.171875 C 16.734375 -24.578125 16.335938 -24.882812 16.109375 -25.09375 C 15.890625 -25.300781 15.617188 -25.457031 15.296875 -25.5625 C 14.984375 -25.675781 14.796875 -25.722656 14.734375 -25.703125 C 14.679688 -25.691406 14.582031 -25.703125 14.4375 -25.734375 Z M 14.4375 -25.734375 "/></g></g></g><g fill="#ffffff" fill-opacity="1"><g transform="translate(258.227308, 234.647653)"><g><path d="M 5.375 -25.625 C 5.300781 -25.550781 5.253906 -25.445312 5.234375 -25.3125 C 5.210938 -25.1875 5.285156 -24.972656 5.453125 -24.671875 C 5.617188 -24.378906 5.65625 -23.882812 5.5625 -23.1875 C 5.46875 -22.5 5.269531 -21.269531 4.96875 -19.5 C 4.675781 -17.726562 4.4375 -15.914062 4.25 -14.0625 C 4.0625 -12.21875 3.945312 -10.613281 3.90625 -9.25 C 3.875 -7.894531 3.875 -6.691406 3.90625 -5.640625 C 3.945312 -4.597656 3.976562 -4.003906 4 -3.859375 C 4.019531 -3.710938 4.066406 -3.5625 4.140625 -3.40625 C 4.328125 -3.332031 4.457031 -3.273438 4.53125 -3.234375 C 4.601562 -3.203125 4.734375 -3.15625 4.921875 -3.09375 C 5.109375 -3.039062 5.332031 -2.894531 5.59375 -2.65625 C 5.851562 -2.414062 6.265625 -2 6.828125 -1.40625 L 8.109375 0 C 8.296875 -0.851562 8.425781 -1.515625 8.5 -1.984375 C 8.570312 -2.453125 8.65625 -3.226562 8.75 -4.3125 C 8.84375 -5.394531 9.054688 -6.601562 9.390625 -7.9375 C 9.734375 -9.28125 9.921875 -10.507812 9.953125 -11.625 C 9.992188 -12.75 10.003906 -13.609375 9.984375 -14.203125 C 9.960938 -14.804688 10 -15.160156 10.09375 -15.265625 C 10.1875 -15.378906 10.3125 -15.515625 10.46875 -15.671875 C 11.207031 -15.890625 11.769531 -16.046875 12.15625 -16.140625 C 12.550781 -16.234375 12.9375 -16.398438 13.3125 -16.640625 C 13.6875 -16.890625 14.015625 -17.148438 14.296875 -17.421875 C 14.578125 -17.703125 15 -18.101562 15.5625 -18.625 C 15.96875 -19.257812 16.265625 -19.707031 16.453125 -19.96875 C 16.640625 -20.226562 16.816406 -20.59375 16.984375 -21.0625 C 17.148438 -21.53125 17.234375 -22.0625 17.234375 -22.65625 C 17.234375 -23.257812 17.175781 -23.660156 17.0625 -23.859375 C 16.945312 -24.066406 16.851562 -24.300781 16.78125 -24.5625 L 16.28125 -24.625 C 15.570312 -23.945312 14.984375 -23.410156 14.515625 -23.015625 C 14.054688 -22.628906 13.441406 -22.085938 12.671875 -21.390625 C 11.910156 -20.703125 11.460938 -20.3125 11.328125 -20.21875 C 11.203125 -20.132812 11.023438 -19.976562 10.796875 -19.75 L 10.578125 -19.8125 C 10.535156 -20.257812 10.523438 -20.582031 10.546875 -20.78125 C 10.566406 -20.988281 10.484375 -21.285156 10.296875 -21.671875 C 10.109375 -22.066406 9.863281 -22.394531 9.5625 -22.65625 C 9.269531 -22.914062 8.863281 -23.363281 8.34375 -24 C 7.78125 -24.414062 7.347656 -24.710938 7.046875 -24.890625 C 6.753906 -25.078125 6.4375 -25.253906 6.09375 -25.421875 C 5.757812 -25.597656 5.5625 -25.675781 5.5 -25.65625 C 5.445312 -25.632812 5.40625 -25.625 5.375 -25.625 Z M 5.375 -25.625 "/></g></g></g><g fill="#ffffff" fill-opacity="1"><g transform="translate(275.457325, 234.647653)"><g><path d="M 20.8125 -35.8125 C 20.738281 -35.769531 20.691406 -35.710938 20.671875 -35.640625 C 20.648438 -35.566406 20.488281 -35.191406 20.1875 -34.515625 C 19.894531 -33.847656 19.523438 -32.710938 19.078125 -31.109375 C 18.628906 -29.503906 18.160156 -27.59375 17.671875 -25.375 C 17.191406 -23.15625 16.894531 -21.632812 16.78125 -20.8125 C 16.75 -20.8125 16.703125 -20.8125 16.640625 -20.8125 C 16.585938 -20.8125 16.316406 -21 15.828125 -21.375 C 15.347656 -21.75 14.882812 -22.03125 14.4375 -22.21875 C 13.988281 -22.40625 13.566406 -22.515625 13.171875 -22.546875 C 12.785156 -22.585938 12.40625 -22.597656 12.03125 -22.578125 C 11.65625 -22.554688 11.253906 -22.460938 10.828125 -22.296875 C 10.398438 -22.128906 9.976562 -21.921875 9.5625 -21.671875 C 9.15625 -21.429688 8.785156 -21.171875 8.453125 -20.890625 C 8.117188 -20.617188 7.707031 -20.203125 7.21875 -19.640625 C 6.582031 -18.785156 6.113281 -18.171875 5.8125 -17.796875 C 5.519531 -17.421875 5.15625 -16.859375 4.71875 -16.109375 C 4.289062 -15.367188 3.890625 -14.53125 3.515625 -13.59375 C 3.148438 -12.664062 2.851562 -11.722656 2.625 -10.765625 C 2.40625 -9.816406 2.273438 -8.929688 2.234375 -8.109375 C 2.203125 -7.285156 2.234375 -6.640625 2.328125 -6.171875 C 2.421875 -5.710938 2.566406 -5.351562 2.765625 -5.09375 C 2.972656 -4.832031 3.125 -4.625 3.21875 -4.46875 C 3.3125 -4.320312 3.46875 -4.15625 3.6875 -3.96875 C 4.132812 -3.78125 4.460938 -3.640625 4.671875 -3.546875 C 4.878906 -3.453125 5.066406 -3.332031 5.234375 -3.1875 C 5.398438 -3.039062 5.671875 -2.816406 6.046875 -2.515625 L 7.671875 -0.734375 C 8.003906 -0.617188 8.269531 -0.503906 8.46875 -0.390625 C 8.675781 -0.273438 9.039062 -0.21875 9.5625 -0.21875 C 10.082031 -0.21875 10.554688 -0.28125 10.984375 -0.40625 C 11.421875 -0.539062 11.769531 -0.691406 12.03125 -0.859375 C 12.289062 -1.035156 12.625 -1.269531 13.03125 -1.5625 C 13.476562 -1.976562 14.09375 -2.753906 14.875 -3.890625 C 15.664062 -5.023438 16.285156 -6.039062 16.734375 -6.9375 C 16.804688 -6.71875 16.890625 -6.550781 16.984375 -6.4375 C 17.078125 -6.320312 17.1875 -6.066406 17.3125 -5.671875 C 17.445312 -5.285156 17.65625 -4.859375 17.9375 -4.390625 C 18.21875 -3.921875 18.488281 -3.535156 18.75 -3.234375 C 19.007812 -2.941406 19.378906 -2.476562 19.859375 -1.84375 C 20.796875 -0.988281 21.503906 -0.375 21.984375 0 C 22.472656 0.375 22.734375 0.5625 22.765625 0.5625 C 22.804688 0.5625 22.847656 0.5625 22.890625 0.5625 C 22.328125 -0.113281 21.914062 -0.582031 21.65625 -0.84375 C 21.394531 -1.101562 21.171875 -1.484375 20.984375 -1.984375 C 20.796875 -2.484375 20.664062 -3.039062 20.59375 -3.65625 C 20.519531 -4.28125 20.460938 -5.054688 20.421875 -5.984375 C 20.378906 -6.921875 20.394531 -8.085938 20.46875 -9.484375 C 20.550781 -10.878906 20.703125 -12.535156 20.921875 -14.453125 C 21.148438 -16.378906 21.457031 -18.300781 21.84375 -20.21875 C 22.238281 -22.144531 22.671875 -23.957031 23.140625 -25.65625 C 23.609375 -27.351562 23.972656 -28.65625 24.234375 -29.5625 C 24.492188 -30.476562 24.6875 -31.195312 24.8125 -31.71875 C 24.945312 -32.25 24.882812 -32.679688 24.625 -33.015625 C 24.363281 -33.347656 24.128906 -33.613281 23.921875 -33.8125 C 23.710938 -34.019531 23.367188 -34.347656 22.890625 -34.796875 C 22.398438 -35.140625 22.070312 -35.375 21.90625 -35.5 C 21.738281 -35.632812 21.570312 -35.703125 21.40625 -35.703125 C 21.238281 -35.703125 21.039062 -35.738281 20.8125 -35.8125 Z M 16.21875 -18.796875 C 16.257812 -18.347656 16.316406 -17.972656 16.390625 -17.671875 C 16.460938 -17.378906 16.425781 -16.53125 16.28125 -15.125 C 16.132812 -13.726562 16.15625 -12.476562 16.34375 -11.375 C 16.53125 -10.28125 16.453125 -9.535156 16.109375 -9.140625 C 15.773438 -8.753906 15.3125 -8.09375 14.71875 -7.15625 C 14.15625 -6.632812 13.742188 -6.234375 13.484375 -5.953125 C 13.222656 -5.679688 12.859375 -5.421875 12.390625 -5.171875 C 11.921875 -4.929688 11.34375 -4.660156 10.65625 -4.359375 C 9.96875 -4.066406 9.367188 -3.875 8.859375 -3.78125 C 8.359375 -3.6875 7.988281 -3.640625 7.75 -3.640625 C 7.507812 -3.640625 7.144531 -3.65625 6.65625 -3.6875 C 6.695312 -4.4375 6.707031 -4.976562 6.6875 -5.3125 C 6.664062 -5.644531 6.738281 -6.210938 6.90625 -7.015625 C 7.070312 -7.816406 7.34375 -8.691406 7.71875 -9.640625 C 8.09375 -10.597656 8.503906 -11.503906 8.953125 -12.359375 C 9.398438 -13.222656 9.863281 -13.976562 10.34375 -14.625 C 10.832031 -15.28125 11.222656 -15.753906 11.515625 -16.046875 C 11.816406 -16.347656 12.269531 -16.800781 12.875 -17.40625 C 13.425781 -17.769531 13.84375 -18.046875 14.125 -18.234375 C 14.40625 -18.421875 14.757812 -18.578125 15.1875 -18.703125 C 15.613281 -18.835938 15.863281 -18.882812 15.9375 -18.84375 C 16.019531 -18.8125 16.113281 -18.796875 16.21875 -18.796875 Z M 16.21875 -18.796875 "/></g></g></g><g fill="#ffffff" fill-opacity="1"><g transform="translate(105.296836, 280.505419)"><g><path d="M 15.453125 -32.6875 C 16.335938 -32.601562 17.164062 -32.453125 17.9375 -32.234375 C 18.707031 -32.015625 19.460938 -31.613281 20.203125 -31.03125 C 21.273438 -30.144531 21.828125 -29.238281 21.859375 -28.3125 C 21.929688 -27.988281 21.894531 -27.828125 21.75 -27.828125 C 21.675781 -27.828125 21.535156 -27.863281 21.328125 -27.9375 C 21.128906 -28.007812 20.882812 -28.132812 20.59375 -28.3125 C 19.707031 -28.863281 18.882812 -29.273438 18.125 -29.546875 C 17.375 -29.828125 16.484375 -29.96875 15.453125 -29.96875 C 14.316406 -29.96875 13.304688 -29.765625 12.421875 -29.359375 C 11.535156 -28.960938 10.75 -28.410156 10.0625 -27.703125 C 9.382812 -27.003906 8.785156 -26.210938 8.265625 -25.328125 C 7.753906 -24.453125 7.300781 -23.535156 6.90625 -22.578125 C 6.90625 -22.460938 6.863281 -22.332031 6.78125 -22.1875 C 6.707031 -22.039062 6.65625 -21.96875 6.625 -21.96875 C 6.550781 -21.78125 6.484375 -21.585938 6.421875 -21.390625 C 6.367188 -21.191406 6.304688 -20.976562 6.234375 -20.75 C 5.828125 -19.320312 5.515625 -17.898438 5.296875 -16.484375 C 5.078125 -15.066406 4.96875 -13.582031 4.96875 -12.03125 C 4.96875 -11.550781 5.003906 -10.820312 5.078125 -9.84375 C 5.148438 -8.875 5.316406 -7.890625 5.578125 -6.890625 C 5.835938 -5.898438 6.1875 -5.035156 6.625 -4.296875 C 7.0625 -3.566406 7.628906 -3.203125 8.328125 -3.203125 C 9.109375 -3.203125 9.898438 -3.53125 10.703125 -4.1875 C 11.515625 -4.851562 12.28125 -5.65625 13 -6.59375 C 13.71875 -7.53125 14.351562 -8.492188 14.90625 -9.484375 C 15.457031 -10.484375 15.878906 -11.296875 16.171875 -11.921875 C 17.054688 -13.910156 17.441406 -15.195312 17.328125 -15.78125 C 17.296875 -15.894531 16.46875 -15.988281 14.84375 -16.0625 C 14 -16.101562 13.273438 -16.128906 12.671875 -16.140625 C 12.066406 -16.160156 11.578125 -16.207031 11.203125 -16.28125 C 9.835938 -16.5 9.835938 -16.867188 11.203125 -17.390625 C 11.648438 -17.609375 12.238281 -17.789062 12.96875 -17.9375 C 13.707031 -18.082031 14.488281 -18.203125 15.3125 -18.296875 C 16.144531 -18.390625 16.960938 -18.453125 17.765625 -18.484375 C 18.578125 -18.523438 19.28125 -18.546875 19.875 -18.546875 C 20.90625 -18.546875 21.660156 -18.488281 22.140625 -18.375 C 22.578125 -18.269531 22.796875 -17.921875 22.796875 -17.328125 C 22.796875 -17.003906 22.78125 -16.804688 22.75 -16.734375 C 22.5625 -16.429688 22.320312 -16.226562 22.03125 -16.125 C 21.769531 -16.050781 21.34375 -16.03125 20.75 -16.0625 C 20.195312 -16.0625 19.882812 -15.96875 19.8125 -15.78125 C 19.738281 -15.632812 19.757812 -14.863281 19.875 -13.46875 C 19.945312 -12.726562 20 -11.988281 20.03125 -11.25 C 20.070312 -10.519531 20.113281 -9.84375 20.15625 -9.21875 C 20.1875 -9 20.210938 -8.582031 20.234375 -7.96875 C 20.253906 -7.363281 20.28125 -6.582031 20.3125 -5.625 C 20.3125 -3.050781 20.238281 -1.597656 20.09375 -1.265625 C 19.832031 -0.710938 19.375 -0.492188 18.71875 -0.609375 C 18.125 -0.640625 17.773438 -0.894531 17.671875 -1.375 C 17.585938 -1.675781 17.523438 -2.222656 17.484375 -3.015625 C 17.453125 -3.804688 17.421875 -4.898438 17.390625 -6.296875 L 17.328125 -9.9375 L 16.890625 -9.046875 C 16.410156 -8.128906 15.96875 -7.335938 15.5625 -6.671875 C 15.15625 -6.015625 14.773438 -5.425781 14.421875 -4.90625 C 14.078125 -4.394531 13.738281 -3.945312 13.40625 -3.5625 C 13.082031 -3.175781 12.734375 -2.796875 12.359375 -2.421875 C 11.554688 -1.691406 10.859375 -1.207031 10.265625 -0.96875 C 9.679688 -0.726562 8.910156 -0.609375 7.953125 -0.609375 C 6.953125 -0.609375 6.25 -0.773438 5.84375 -1.109375 C 5 -1.660156 4.316406 -2.46875 3.796875 -3.53125 C 3.285156 -4.601562 2.921875 -5.597656 2.703125 -6.515625 C 2.628906 -6.804688 2.570312 -7.085938 2.53125 -7.359375 C 2.5 -7.640625 2.484375 -7.890625 2.484375 -8.109375 C 2.441406 -8.335938 2.382812 -8.753906 2.3125 -9.359375 C 2.238281 -9.960938 2.203125 -10.78125 2.203125 -11.8125 C 2.203125 -13.351562 2.300781 -15.007812 2.5 -16.78125 C 2.707031 -18.550781 3.066406 -20.269531 3.578125 -21.9375 C 4.097656 -23.613281 4.789062 -25.1875 5.65625 -26.65625 C 6.519531 -28.132812 7.632812 -29.367188 9 -30.359375 C 10.101562 -31.097656 11.113281 -31.671875 12.03125 -32.078125 C 12.957031 -32.484375 14.097656 -32.6875 15.453125 -32.6875 Z M 15.453125 -32.6875 "/></g></g></g><g fill="#ffffff" fill-opacity="1"><g transform="translate(130.026491, 280.505419)"><g><path d="M 8.78125 -19.8125 C 9.03125 -19.851562 9.421875 -19.875 9.953125 -19.875 C 10.492188 -19.875 10.875 -19.851562 11.09375 -19.8125 C 11.757812 -19.59375 12.441406 -19.113281 13.140625 -18.375 C 13.648438 -17.820312 14 -17.289062 14.1875 -16.78125 C 14.375 -16.269531 14.46875 -15.609375 14.46875 -14.796875 C 14.46875 -13.242188 14.078125 -12 13.296875 -11.0625 C 12.523438 -10.125 11.550781 -9.234375 10.375 -8.390625 C 9.863281 -8.023438 9.210938 -7.628906 8.421875 -7.203125 C 7.628906 -6.773438 6.898438 -6.5625 6.234375 -6.5625 C 6.085938 -6.5625 5.957031 -6.570312 5.84375 -6.59375 C 5.738281 -6.613281 5.613281 -6.640625 5.46875 -6.671875 C 5.351562 -6.710938 5.1875 -6.734375 4.96875 -6.734375 L 4.6875 -6.734375 L 4.75 -6.453125 C 4.9375 -5.648438 5.25 -4.890625 5.6875 -4.171875 C 6.125 -3.453125 6.769531 -2.960938 7.625 -2.703125 C 7.769531 -2.671875 7.953125 -2.644531 8.171875 -2.625 C 8.390625 -2.601562 8.679688 -2.59375 9.046875 -2.59375 C 10.453125 -2.59375 11.625 -2.800781 12.5625 -3.21875 C 13.5 -3.644531 14.519531 -4.285156 15.625 -5.140625 C 16.582031 -5.910156 17.316406 -6.296875 17.828125 -6.296875 C 18.160156 -6.296875 18.398438 -6.1875 18.546875 -5.96875 C 18.660156 -5.738281 18.671875 -5.492188 18.578125 -5.234375 C 18.484375 -4.984375 18.21875 -4.597656 17.78125 -4.078125 C 17.226562 -3.453125 16.59375 -2.878906 15.875 -2.359375 C 15.15625 -1.847656 14.390625 -1.398438 13.578125 -1.015625 C 12.765625 -0.628906 11.925781 -0.328125 11.0625 -0.109375 C 10.195312 0.109375 9.34375 0.21875 8.5 0.21875 C 7.0625 0.21875 5.851562 -0.226562 4.875 -1.125 C 3.90625 -2.03125 3.128906 -3.109375 2.546875 -4.359375 C 2.171875 -5.128906 1.945312 -6.304688 1.875 -7.890625 C 1.800781 -9.835938 2.050781 -11.617188 2.625 -13.234375 C 3.195312 -14.859375 4.085938 -16.316406 5.296875 -17.609375 C 5.847656 -18.234375 6.414062 -18.710938 7 -19.046875 C 7.59375 -19.378906 8.1875 -19.632812 8.78125 -19.8125 Z M 10.484375 -17.21875 C 10.234375 -17.289062 9.90625 -17.289062 9.5 -17.21875 C 8.71875 -17.070312 8.0625 -16.734375 7.53125 -16.203125 C 7 -15.671875 6.539062 -15.046875 6.15625 -14.328125 C 5.769531 -13.609375 5.472656 -12.851562 5.265625 -12.0625 C 5.066406 -11.269531 4.910156 -10.539062 4.796875 -9.875 C 4.578125 -8.445312 4.597656 -7.710938 4.859375 -7.671875 L 4.90625 -7.671875 C 5.3125 -7.671875 5.875 -7.890625 6.59375 -8.328125 C 7.3125 -8.773438 8.035156 -9.300781 8.765625 -9.90625 C 9.503906 -10.507812 10.1875 -11.144531 10.8125 -11.8125 C 11.445312 -12.476562 11.835938 -13.050781 11.984375 -13.53125 C 12.273438 -14.257812 12.347656 -14.921875 12.203125 -15.515625 C 12.054688 -16.023438 11.863281 -16.410156 11.625 -16.671875 C 11.382812 -16.929688 11.003906 -17.113281 10.484375 -17.21875 Z M 10.484375 -17.21875 "/></g></g></g><g fill="#ffffff" fill-opacity="1"><g transform="translate(147.745732, 280.505419)"><g><path d="M 12.46875 -19.8125 C 13.207031 -19.882812 13.816406 -19.757812 14.296875 -19.4375 C 15.035156 -18.914062 15.476562 -18.066406 15.625 -16.890625 C 15.695312 -16.484375 15.738281 -15.773438 15.75 -14.765625 C 15.769531 -13.753906 15.800781 -12.421875 15.84375 -10.765625 C 15.84375 -9.109375 15.851562 -7.679688 15.875 -6.484375 C 15.894531 -5.285156 15.941406 -4.648438 16.015625 -4.578125 C 15.941406 -4.546875 15.976562 -4.566406 16.125 -4.640625 C 16.269531 -4.710938 16.453125 -4.929688 16.671875 -5.296875 C 17.222656 -5.960938 17.703125 -6.296875 18.109375 -6.296875 C 18.367188 -6.296875 18.578125 -6.226562 18.734375 -6.09375 C 18.898438 -5.96875 18.984375 -5.847656 18.984375 -5.734375 C 18.984375 -5.441406 18.789062 -4.945312 18.40625 -4.25 C 18.019531 -3.550781 17.566406 -2.84375 17.046875 -2.125 C 16.535156 -1.40625 16.019531 -0.757812 15.5 -0.1875 C 14.988281 0.375 14.609375 0.675781 14.359375 0.71875 C 14.023438 0.71875 13.765625 0.550781 13.578125 0.21875 L 13.46875 0.0625 L 13.46875 -8.5 C 13.46875 -11 13.457031 -12.898438 13.4375 -14.203125 C 13.425781 -15.515625 13.398438 -16.265625 13.359375 -16.453125 C 13.171875 -17.222656 12.929688 -17.628906 12.640625 -17.671875 C 12.523438 -17.671875 12.414062 -17.628906 12.3125 -17.546875 C 12.125 -17.472656 11.875 -17.195312 11.5625 -16.71875 C 11.25 -16.25 10.914062 -15.65625 10.5625 -14.9375 C 10.21875 -14.21875 9.851562 -13.414062 9.46875 -12.53125 C 9.082031 -11.644531 8.722656 -10.742188 8.390625 -9.828125 C 8.242188 -9.378906 8.097656 -8.867188 7.953125 -8.296875 C 7.804688 -7.734375 7.648438 -7.128906 7.484375 -6.484375 C 7.316406 -5.835938 7.160156 -5.179688 7.015625 -4.515625 C 6.867188 -3.859375 6.71875 -3.238281 6.5625 -2.65625 C 6.414062 -2.132812 6.296875 -1.71875 6.203125 -1.40625 C 6.117188 -1.09375 6.054688 -0.863281 6.015625 -0.71875 C 5.796875 -0.0507812 5.410156 0.28125 4.859375 0.28125 C 4.378906 0.28125 4.046875 0.0546875 3.859375 -0.390625 C 3.828125 -0.460938 3.8125 -0.617188 3.8125 -0.859375 C 3.8125 -1.097656 3.789062 -1.421875 3.75 -1.828125 C 3.75 -2.046875 3.757812 -2.394531 3.78125 -2.875 C 3.800781 -3.351562 3.828125 -3.894531 3.859375 -4.5 C 3.898438 -5.101562 3.9375 -5.753906 3.96875 -6.453125 C 4.007812 -7.148438 4.046875 -7.851562 4.078125 -8.5625 C 4.265625 -11.207031 4.394531 -13.203125 4.46875 -14.546875 C 4.539062 -15.890625 4.5625 -16.632812 4.53125 -16.78125 C 4.457031 -16.894531 4.070312 -16.820312 3.375 -16.5625 C 2.820312 -16.300781 2.46875 -16.15625 2.3125 -16.125 C 1.945312 -16.007812 1.609375 -15.988281 1.296875 -16.0625 C 0.984375 -16.132812 0.828125 -16.265625 0.828125 -16.453125 C 0.828125 -16.859375 1.691406 -17.484375 3.421875 -18.328125 C 4.523438 -18.910156 5.28125 -19.164062 5.6875 -19.09375 C 5.90625 -19.09375 6.035156 -19.039062 6.078125 -18.9375 C 6.398438 -18.675781 6.5625 -17.570312 6.5625 -15.625 C 6.5625 -14.8125 6.5625 -14.15625 6.5625 -13.65625 C 6.5625 -13.164062 6.582031 -12.8125 6.625 -12.59375 L 6.671875 -12.421875 L 6.90625 -12.75 C 7.382812 -13.707031 7.953125 -14.785156 8.609375 -15.984375 C 9.273438 -17.179688 9.972656 -18.144531 10.703125 -18.875 C 11.328125 -19.5 11.914062 -19.8125 12.46875 -19.8125 Z M 12.46875 -19.8125 "/></g></g></g><g fill="#ffffff" fill-opacity="1"><g transform="translate(167.341777, 280.505419)"><g><path d="M 8.78125 -19.8125 C 9.03125 -19.851562 9.421875 -19.875 9.953125 -19.875 C 10.492188 -19.875 10.875 -19.851562 11.09375 -19.8125 C 11.757812 -19.59375 12.441406 -19.113281 13.140625 -18.375 C 13.648438 -17.820312 14 -17.289062 14.1875 -16.78125 C 14.375 -16.269531 14.46875 -15.609375 14.46875 -14.796875 C 14.46875 -13.242188 14.078125 -12 13.296875 -11.0625 C 12.523438 -10.125 11.550781 -9.234375 10.375 -8.390625 C 9.863281 -8.023438 9.210938 -7.628906 8.421875 -7.203125 C 7.628906 -6.773438 6.898438 -6.5625 6.234375 -6.5625 C 6.085938 -6.5625 5.957031 -6.570312 5.84375 -6.59375 C 5.738281 -6.613281 5.613281 -6.640625 5.46875 -6.671875 C 5.351562 -6.710938 5.1875 -6.734375 4.96875 -6.734375 L 4.6875 -6.734375 L 4.75 -6.453125 C 4.9375 -5.648438 5.25 -4.890625 5.6875 -4.171875 C 6.125 -3.453125 6.769531 -2.960938 7.625 -2.703125 C 7.769531 -2.671875 7.953125 -2.644531 8.171875 -2.625 C 8.390625 -2.601562 8.679688 -2.59375 9.046875 -2.59375 C 10.453125 -2.59375 11.625 -2.800781 12.5625 -3.21875 C 13.5 -3.644531 14.519531 -4.285156 15.625 -5.140625 C 16.582031 -5.910156 17.316406 -6.296875 17.828125 -6.296875 C 18.160156 -6.296875 18.398438 -6.1875 18.546875 -5.96875 C 18.660156 -5.738281 18.671875 -5.492188 18.578125 -5.234375 C 18.484375 -4.984375 18.21875 -4.597656 17.78125 -4.078125 C 17.226562 -3.453125 16.59375 -2.878906 15.875 -2.359375 C 15.15625 -1.847656 14.390625 -1.398438 13.578125 -1.015625 C 12.765625 -0.628906 11.925781 -0.328125 11.0625 -0.109375 C 10.195312 0.109375 9.34375 0.21875 8.5 0.21875 C 7.0625 0.21875 5.851562 -0.226562 4.875 -1.125 C 3.90625 -2.03125 3.128906 -3.109375 2.546875 -4.359375 C 2.171875 -5.128906 1.945312 -6.304688 1.875 -7.890625 C 1.800781 -9.835938 2.050781 -11.617188 2.625 -13.234375 C 3.195312 -14.859375 4.085938 -16.316406 5.296875 -17.609375 C 5.847656 -18.234375 6.414062 -18.710938 7 -19.046875 C 7.59375 -19.378906 8.1875 -19.632812 8.78125 -19.8125 Z M 10.484375 -17.21875 C 10.234375 -17.289062 9.90625 -17.289062 9.5 -17.21875 C 8.71875 -17.070312 8.0625 -16.734375 7.53125 -16.203125 C 7 -15.671875 6.539062 -15.046875 6.15625 -14.328125 C 5.769531 -13.609375 5.472656 -12.851562 5.265625 -12.0625 C 5.066406 -11.269531 4.910156 -10.539062 4.796875 -9.875 C 4.578125 -8.445312 4.597656 -7.710938 4.859375 -7.671875 L 4.90625 -7.671875 C 5.3125 -7.671875 5.875 -7.890625 6.59375 -8.328125 C 7.3125 -8.773438 8.035156 -9.300781 8.765625 -9.90625 C 9.503906 -10.507812 10.1875 -11.144531 10.8125 -11.8125 C 11.445312 -12.476562 11.835938 -13.050781 11.984375 -13.53125 C 12.273438 -14.257812 12.347656 -14.921875 12.203125 -15.515625 C 12.054688 -16.023438 11.863281 -16.410156 11.625 -16.671875 C 11.382812 -16.929688 11.003906 -17.113281 10.484375 -17.21875 Z M 10.484375 -17.21875 "/></g></g></g><g fill="#ffffff" fill-opacity="1"><g transform="translate(185.061019, 280.505419)"><g><path d="M 3.484375 -20.59375 C 3.703125 -20.8125 3.898438 -20.921875 4.078125 -20.921875 C 4.742188 -20.921875 5.207031 -20.441406 5.46875 -19.484375 C 5.539062 -19.265625 5.601562 -19.015625 5.65625 -18.734375 C 5.707031 -18.460938 5.753906 -18.179688 5.796875 -17.890625 C 5.867188 -16.566406 5.976562 -15.90625 6.125 -15.90625 C 6.238281 -15.90625 6.460938 -16.179688 6.796875 -16.734375 C 7.234375 -17.578125 7.734375 -18.195312 8.296875 -18.59375 C 8.867188 -19 9.632812 -19.203125 10.59375 -19.203125 C 11.039062 -19.203125 11.53125 -19.09375 12.0625 -18.875 C 12.59375 -18.65625 13.097656 -18.367188 13.578125 -18.015625 C 14.054688 -17.671875 14.46875 -17.269531 14.8125 -16.8125 C 15.164062 -16.351562 15.378906 -15.898438 15.453125 -15.453125 C 15.597656 -14.722656 15.472656 -14.15625 15.078125 -13.75 C 14.773438 -13.445312 14.382812 -13.375 13.90625 -13.53125 C 13.726562 -13.601562 13.570312 -13.71875 13.4375 -13.875 C 13.3125 -14.039062 13.03125 -14.476562 12.59375 -15.1875 C 12.289062 -15.625 11.9375 -16.035156 11.53125 -16.421875 C 11.132812 -16.804688 10.640625 -17 10.046875 -17 C 9.535156 -17 9.09375 -16.628906 8.71875 -15.890625 C 8.351562 -15.160156 8.050781 -14.316406 7.8125 -13.359375 C 7.570312 -12.398438 7.382812 -11.453125 7.25 -10.515625 C 7.125 -9.578125 7.046875 -8.90625 7.015625 -8.5 C 6.972656 -8.28125 6.953125 -7.859375 6.953125 -7.234375 C 6.953125 -6.609375 6.9375 -5.757812 6.90625 -4.6875 C 6.863281 -3.625 6.84375 -2.769531 6.84375 -2.125 C 6.84375 -1.476562 6.828125 -1.046875 6.796875 -0.828125 C 6.710938 -0.390625 6.582031 -0.09375 6.40625 0.0625 C 6.03125 0.238281 5.71875 0.328125 5.46875 0.328125 C 4.988281 0.328125 4.691406 0.160156 4.578125 -0.171875 C 4.429688 -0.535156 4.320312 -2.335938 4.25 -5.578125 C 4.25 -5.796875 4.238281 -6.234375 4.21875 -6.890625 C 4.207031 -7.554688 4.179688 -8.332031 4.140625 -9.21875 C 4.097656 -10.101562 4.054688 -11.03125 4.015625 -12 C 3.984375 -12.976562 3.941406 -13.890625 3.890625 -14.734375 C 3.835938 -15.585938 3.78125 -16.296875 3.71875 -16.859375 C 3.664062 -17.429688 3.601562 -17.753906 3.53125 -17.828125 C 3.382812 -17.828125 2.832031 -17.332031 1.875 -16.34375 C 0.882812 -15.238281 0.332031 -14.6875 0.21875 -14.6875 C 0 -14.6875 -0.128906 -14.832031 -0.171875 -15.125 C -0.203125 -15.382812 -0.109375 -15.71875 0.109375 -16.125 C 0.253906 -16.414062 0.460938 -16.769531 0.734375 -17.1875 C 1.015625 -17.613281 1.320312 -18.046875 1.65625 -18.484375 C 1.988281 -18.929688 2.316406 -19.347656 2.640625 -19.734375 C 2.972656 -20.117188 3.253906 -20.40625 3.484375 -20.59375 Z M 3.484375 -20.59375 "/></g></g></g><g fill="#ffffff" fill-opacity="1"><g transform="translate(201.124256, 280.505419)"><g><path d="M 10.65625 -19.875 C 11.164062 -19.945312 11.660156 -19.945312 12.140625 -19.875 C 12.585938 -19.757812 13.085938 -19.59375 13.640625 -19.375 C 14.890625 -18.707031 15.566406 -18.117188 15.671875 -17.609375 C 15.742188 -17.273438 15.820312 -14.644531 15.90625 -9.71875 L 15.953125 -2.484375 L 16.734375 -3.3125 C 17.203125 -3.75 17.507812 -4.023438 17.65625 -4.140625 C 17.8125 -4.253906 17.960938 -4.253906 18.109375 -4.140625 C 18.585938 -3.878906 18.585938 -3.289062 18.109375 -2.375 C 17.890625 -1.851562 17.546875 -1.316406 17.078125 -0.765625 C 16.617188 -0.210938 16.242188 0.148438 15.953125 0.328125 C 15.660156 0.441406 15.3125 0.460938 14.90625 0.390625 C 14.5 0.316406 14.203125 0.164062 14.015625 -0.0625 C 13.796875 -0.382812 13.671875 -0.734375 13.640625 -1.109375 C 13.597656 -1.515625 13.539062 -2.5625 13.46875 -4.25 C 13.4375 -5.0625 13.421875 -5.707031 13.421875 -6.1875 C 13.421875 -6.664062 13.421875 -6.992188 13.421875 -7.171875 C 13.421875 -7.242188 13.398438 -7.300781 13.359375 -7.34375 L 13.296875 -7.625 C 13.265625 -7.582031 13.101562 -7.304688 12.8125 -6.796875 C 12.769531 -6.640625 12.710938 -6.523438 12.640625 -6.453125 C 12.273438 -5.722656 11.859375 -4.960938 11.390625 -4.171875 C 10.929688 -3.378906 10.40625 -2.648438 9.8125 -1.984375 C 9.226562 -1.328125 8.566406 -0.785156 7.828125 -0.359375 C 7.097656 0.0664062 6.253906 0.28125 5.296875 0.28125 C 4.265625 0.28125 3.445312 -0.0390625 2.84375 -0.6875 C 2.238281 -1.332031 1.804688 -2.132812 1.546875 -3.09375 C 1.472656 -3.351562 1.425781 -3.765625 1.40625 -4.328125 C 1.382812 -4.898438 1.410156 -5.316406 1.484375 -5.578125 C 1.816406 -7.410156 2.679688 -8.992188 4.078125 -10.328125 C 4.785156 -11.023438 5.53125 -11.546875 6.3125 -11.890625 C 7.101562 -12.242188 8.203125 -12.566406 9.609375 -12.859375 C 10.640625 -13.078125 11.421875 -13.242188 11.953125 -13.359375 C 12.484375 -13.472656 12.785156 -13.566406 12.859375 -13.640625 C 12.929688 -13.710938 12.992188 -13.875 13.046875 -14.125 C 13.109375 -14.382812 13.15625 -14.660156 13.1875 -14.953125 C 13.226562 -15.253906 13.25 -15.5625 13.25 -15.875 C 13.25 -16.1875 13.226562 -16.429688 13.1875 -16.609375 C 13.113281 -17.128906 12.546875 -17.390625 11.484375 -17.390625 C 10.265625 -17.390625 9.03125 -17.1875 7.78125 -16.78125 C 6.53125 -16.375 5.351562 -15.914062 4.25 -15.40625 C 3.738281 -15.101562 3.328125 -14.878906 3.015625 -14.734375 C 2.703125 -14.585938 2.46875 -14.5 2.3125 -14.46875 C 2.238281 -14.46875 2.15625 -14.519531 2.0625 -14.625 C 1.976562 -14.738281 1.9375 -14.832031 1.9375 -14.90625 C 1.96875 -15.164062 2.203125 -15.539062 2.640625 -16.03125 C 3.085938 -16.53125 3.585938 -16.960938 4.140625 -17.328125 C 5.941406 -18.691406 8.113281 -19.539062 10.65625 -19.875 Z M 12.09375 -10.703125 C 11.976562 -10.773438 11.585938 -10.773438 10.921875 -10.703125 C 10.265625 -10.628906 9.675781 -10.539062 9.15625 -10.4375 C 7.875 -10.132812 6.753906 -9.550781 5.796875 -8.6875 C 4.835938 -7.820312 4.25 -6.726562 4.03125 -5.40625 C 3.84375 -4.375 3.914062 -3.492188 4.25 -2.765625 C 4.46875 -2.285156 4.851562 -2.046875 5.40625 -2.046875 C 6.03125 -2.046875 6.617188 -2.238281 7.171875 -2.625 C 7.722656 -3.007812 8.21875 -3.476562 8.65625 -4.03125 C 9.101562 -4.582031 9.507812 -5.171875 9.875 -5.796875 C 10.25 -6.421875 10.546875 -6.953125 10.765625 -7.390625 C 11.867188 -9.453125 12.3125 -10.554688 12.09375 -10.703125 Z M 12.09375 -10.703125 "/></g></g></g><g fill="#ffffff" fill-opacity="1"><g transform="translate(220.499501, 280.505419)"><g><path d="M 6.953125 -24.84375 C 7.210938 -24.988281 7.488281 -24.96875 7.78125 -24.78125 C 8.257812 -24.457031 8.5 -23.410156 8.5 -21.640625 C 8.5 -20.492188 8.535156 -19.832031 8.609375 -19.65625 C 8.648438 -19.582031 8.757812 -19.507812 8.9375 -19.4375 C 9.164062 -19.363281 9.5 -19.328125 9.9375 -19.328125 C 10.375 -19.328125 10.941406 -19.363281 11.640625 -19.4375 C 12.671875 -19.4375 13.242188 -19.414062 13.359375 -19.375 C 13.546875 -19.257812 13.691406 -19.082031 13.796875 -18.84375 C 13.910156 -18.613281 13.96875 -18.40625 13.96875 -18.21875 C 13.925781 -17.925781 13.757812 -17.640625 13.46875 -17.359375 C 13.175781 -17.085938 12.769531 -16.914062 12.25 -16.84375 C 11.957031 -16.769531 11.332031 -16.769531 10.375 -16.84375 C 9.53125 -16.875 9.039062 -16.867188 8.90625 -16.828125 C 8.78125 -16.796875 8.679688 -16.6875 8.609375 -16.5 C 8.578125 -16.394531 8.523438 -15.644531 8.453125 -14.25 C 8.453125 -13.914062 8.441406 -13.472656 8.421875 -12.921875 C 8.398438 -12.367188 8.367188 -11.796875 8.328125 -11.203125 C 8.296875 -10.617188 8.269531 -10.066406 8.25 -9.546875 C 8.226562 -9.035156 8.21875 -8.648438 8.21875 -8.390625 C 8.21875 -4.960938 8.332031 -3.175781 8.5625 -3.03125 C 8.632812 -3.03125 8.6875 -3.050781 8.71875 -3.09375 C 8.789062 -3.164062 8.972656 -3.382812 9.265625 -3.75 C 9.566406 -4.125 9.9375 -4.660156 10.375 -5.359375 C 11.664062 -7.304688 12.601562 -8.484375 13.1875 -8.890625 C 13.257812 -8.960938 13.335938 -8.941406 13.421875 -8.828125 C 13.597656 -8.753906 13.6875 -8.390625 13.6875 -7.734375 C 13.65625 -7.210938 13.453125 -6.546875 13.078125 -5.734375 C 12.710938 -4.929688 12.269531 -4.125 11.75 -3.3125 C 11.238281 -2.5 10.675781 -1.757812 10.0625 -1.09375 C 9.457031 -0.4375 8.921875 0 8.453125 0.21875 C 8.296875 0.332031 8.09375 0.390625 7.84375 0.390625 C 7.394531 0.316406 7.046875 0.148438 6.796875 -0.109375 C 6.390625 -0.585938 6.09375 -1.234375 5.90625 -2.046875 C 5.6875 -3.109375 5.59375 -5.203125 5.625 -8.328125 C 5.625 -9.109375 5.613281 -9.898438 5.59375 -10.703125 C 5.582031 -11.515625 5.578125 -12.28125 5.578125 -13 C 5.578125 -13.71875 5.578125 -14.316406 5.578125 -14.796875 C 5.578125 -15.273438 5.554688 -15.566406 5.515625 -15.671875 C 5.441406 -16.046875 5.273438 -16.285156 5.015625 -16.390625 C 4.765625 -16.503906 4.269531 -16.597656 3.53125 -16.671875 C 2.164062 -16.785156 1.320312 -17.003906 1 -17.328125 C 0.59375 -17.734375 0.59375 -18.066406 1 -18.328125 C 1.175781 -18.441406 1.484375 -18.5625 1.921875 -18.6875 C 2.367188 -18.8125 2.90625 -18.910156 3.53125 -18.984375 C 4.488281 -19.054688 5.09375 -19.128906 5.34375 -19.203125 C 5.601562 -19.285156 5.769531 -19.4375 5.84375 -19.65625 C 5.882812 -19.726562 5.914062 -19.925781 5.9375 -20.25 C 5.957031 -20.582031 6.003906 -21.007812 6.078125 -21.53125 C 6.148438 -22.269531 6.203125 -22.875 6.234375 -23.34375 C 6.273438 -23.820312 6.347656 -24.15625 6.453125 -24.34375 C 6.523438 -24.488281 6.609375 -24.585938 6.703125 -24.640625 C 6.796875 -24.703125 6.878906 -24.769531 6.953125 -24.84375 Z M 6.953125 -24.84375 "/></g></g></g><g fill="#ffffff" fill-opacity="1"><g transform="translate(236.065936, 280.505419)"><g><path d="M 9.984375 -19.8125 C 11.679688 -20.039062 13.082031 -19.726562 14.1875 -18.875 C 14.851562 -18.363281 15.488281 -17.628906 16.09375 -16.671875 C 16.695312 -15.710938 17.09375 -14.753906 17.28125 -13.796875 C 17.570312 -12.691406 17.695312 -11.476562 17.65625 -10.15625 C 17.625 -8.832031 17.460938 -7.65625 17.171875 -6.625 C 16.910156 -5.78125 16.53125 -4.953125 16.03125 -4.140625 C 15.539062 -3.328125 14.941406 -2.597656 14.234375 -1.953125 C 13.535156 -1.316406 12.765625 -0.800781 11.921875 -0.40625 C 11.078125 -0.0195312 10.195312 0.171875 9.28125 0.171875 C 8.644531 0.171875 8.015625 0.109375 7.390625 -0.015625 C 6.765625 -0.148438 6.195312 -0.421875 5.6875 -0.828125 C 4.875 -1.304688 4.179688 -1.941406 3.609375 -2.734375 C 3.046875 -3.523438 2.613281 -4.34375 2.3125 -5.1875 C 2.238281 -5.550781 2.164062 -6.007812 2.09375 -6.5625 C 2.019531 -7.113281 1.960938 -7.675781 1.921875 -8.25 C 1.890625 -8.820312 1.875 -9.375 1.875 -9.90625 C 1.875 -10.4375 1.910156 -10.890625 1.984375 -11.265625 C 2.203125 -12.546875 2.773438 -13.90625 3.703125 -15.34375 C 3.878906 -15.601562 4.179688 -15.988281 4.609375 -16.5 C 5.035156 -17.019531 5.394531 -17.410156 5.6875 -17.671875 C 6.164062 -18.109375 6.535156 -18.328125 6.796875 -18.328125 C 6.867188 -18.359375 6.992188 -18.421875 7.171875 -18.515625 C 7.359375 -18.609375 7.597656 -18.75 7.890625 -18.9375 C 8.515625 -19.445312 9.210938 -19.738281 9.984375 -19.8125 Z M 10.328125 -17.5 C 9.179688 -17.5 8.210938 -17.234375 7.421875 -16.703125 C 6.628906 -16.171875 5.984375 -15.476562 5.484375 -14.625 C 4.992188 -13.78125 4.644531 -12.851562 4.4375 -11.84375 C 4.238281 -10.832031 4.140625 -9.847656 4.140625 -8.890625 C 4.140625 -8.078125 4.226562 -7.285156 4.40625 -6.515625 C 4.59375 -5.742188 4.878906 -5.050781 5.265625 -4.4375 C 5.648438 -3.832031 6.15625 -3.335938 6.78125 -2.953125 C 7.414062 -2.566406 8.191406 -2.375 9.109375 -2.375 C 10.242188 -2.375 11.21875 -2.640625 12.03125 -3.171875 C 12.84375 -3.703125 13.503906 -4.390625 14.015625 -5.234375 C 14.535156 -6.085938 14.914062 -7.03125 15.15625 -8.0625 C 15.394531 -9.09375 15.515625 -10.101562 15.515625 -11.09375 C 15.515625 -11.613281 15.457031 -12.148438 15.34375 -12.703125 C 15.238281 -13.253906 15.070312 -13.796875 14.84375 -14.328125 C 14.625 -14.859375 14.347656 -15.34375 14.015625 -15.78125 C 13.691406 -16.226562 13.304688 -16.582031 12.859375 -16.84375 C 12.523438 -17.0625 12.117188 -17.222656 11.640625 -17.328125 C 11.171875 -17.441406 10.734375 -17.5 10.328125 -17.5 Z M 10.328125 -17.5 "/></g></g></g><g fill="#ffffff" fill-opacity="1"><g transform="translate(255.551568, 280.505419)"><g><path d="M 3.484375 -20.59375 C 3.703125 -20.8125 3.898438 -20.921875 4.078125 -20.921875 C 4.742188 -20.921875 5.207031 -20.441406 5.46875 -19.484375 C 5.539062 -19.265625 5.601562 -19.015625 5.65625 -18.734375 C 5.707031 -18.460938 5.753906 -18.179688 5.796875 -17.890625 C 5.867188 -16.566406 5.976562 -15.90625 6.125 -15.90625 C 6.238281 -15.90625 6.460938 -16.179688 6.796875 -16.734375 C 7.234375 -17.578125 7.734375 -18.195312 8.296875 -18.59375 C 8.867188 -19 9.632812 -19.203125 10.59375 -19.203125 C 11.039062 -19.203125 11.53125 -19.09375 12.0625 -18.875 C 12.59375 -18.65625 13.097656 -18.367188 13.578125 -18.015625 C 14.054688 -17.671875 14.46875 -17.269531 14.8125 -16.8125 C 15.164062 -16.351562 15.378906 -15.898438 15.453125 -15.453125 C 15.597656 -14.722656 15.472656 -14.15625 15.078125 -13.75 C 14.773438 -13.445312 14.382812 -13.375 13.90625 -13.53125 C 13.726562 -13.601562 13.570312 -13.71875 13.4375 -13.875 C 13.3125 -14.039062 13.03125 -14.476562 12.59375 -15.1875 C 12.289062 -15.625 11.9375 -16.035156 11.53125 -16.421875 C 11.132812 -16.804688 10.640625 -17 10.046875 -17 C 9.535156 -17 9.09375 -16.628906 8.71875 -15.890625 C 8.351562 -15.160156 8.050781 -14.316406 7.8125 -13.359375 C 7.570312 -12.398438 7.382812 -11.453125 7.25 -10.515625 C 7.125 -9.578125 7.046875 -8.90625 7.015625 -8.5 C 6.972656 -8.28125 6.953125 -7.859375 6.953125 -7.234375 C 6.953125 -6.609375 6.9375 -5.757812 6.90625 -4.6875 C 6.863281 -3.625 6.84375 -2.769531 6.84375 -2.125 C 6.84375 -1.476562 6.828125 -1.046875 6.796875 -0.828125 C 6.710938 -0.390625 6.582031 -0.09375 6.40625 0.0625 C 6.03125 0.238281 5.71875 0.328125 5.46875 0.328125 C 4.988281 0.328125 4.691406 0.160156 4.578125 -0.171875 C 4.429688 -0.535156 4.320312 -2.335938 4.25 -5.578125 C 4.25 -5.796875 4.238281 -6.234375 4.21875 -6.890625 C 4.207031 -7.554688 4.179688 -8.332031 4.140625 -9.21875 C 4.097656 -10.101562 4.054688 -11.03125 4.015625 -12 C 3.984375 -12.976562 3.941406 -13.890625 3.890625 -14.734375 C 3.835938 -15.585938 3.78125 -16.296875 3.71875 -16.859375 C 3.664062 -17.429688 3.601562 -17.753906 3.53125 -17.828125 C 3.382812 -17.828125 2.832031 -17.332031 1.875 -16.34375 C 0.882812 -15.238281 0.332031 -14.6875 0.21875 -14.6875 C 0 -14.6875 -0.128906 -14.832031 -0.171875 -15.125 C -0.203125 -15.382812 -0.109375 -15.71875 0.109375 -16.125 C 0.253906 -16.414062 0.460938 -16.769531 0.734375 -17.1875 C 1.015625 -17.613281 1.320312 -18.046875 1.65625 -18.484375 C 1.988281 -18.929688 2.316406 -19.347656 2.640625 -19.734375 C 2.972656 -20.117188 3.253906 -20.40625 3.484375 -20.59375 Z M 3.484375 -20.59375 "/></g></g></g></svg>