<svg xmlns="http://www.w3.org/2000/svg" xmlns:xlink="http://www.w3.org/1999/xlink" width="500" zoomAndPan="magnify" viewBox="0 0 375 374.999991" height="500" preserveAspectRatio="xMidYMid meet" version="1.0"><defs><g/><radialGradient gradientTransform="matrix(1, 0, 0, 1, 0.0000045, 0)" gradientUnits="userSpaceOnUse" r="265.164751" cx="187.499996" id="195f8881c9" cy="187.499996" fx="187.499996" fy="187.499996"><stop stop-opacity="1" stop-color="rgb(54.80957%, 32.159424%, 99.824524%)" offset="0"/><stop stop-opacity="1" stop-color="rgb(54.629517%, 32.080078%, 99.473572%)" offset="0.00390625"/><stop stop-opacity="1" stop-color="rgb(54.450989%, 31.999207%, 99.12262%)" offset="0.0078125"/><stop stop-opacity="1" stop-color="rgb(54.270935%, 31.919861%, 98.771667%)" offset="0.0117188"/><stop stop-opacity="1" stop-color="rgb(54.092407%, 31.840515%, 98.420715%)" offset="0.015625"/><stop stop-opacity="1" stop-color="rgb(53.912354%, 31.761169%, 98.069763%)" offset="0.0195312"/><stop stop-opacity="1" stop-color="rgb(53.733826%, 31.681824%, 97.718811%)" offset="0.0234375"/><stop stop-opacity="1" stop-color="rgb(53.553772%, 31.600952%, 97.367859%)" offset="0.0273438"/><stop stop-opacity="1" stop-color="rgb(53.375244%, 31.521606%, 97.016907%)" offset="0.03125"/><stop stop-opacity="1" stop-color="rgb(53.19519%, 31.442261%, 96.66748%)" offset="0.0351562"/><stop stop-opacity="1" stop-color="rgb(53.016663%, 31.362915%, 96.316528%)" offset="0.0390625"/><stop stop-opacity="1" stop-color="rgb(52.836609%, 31.282043%, 95.965576%)" offset="0.0429688"/><stop stop-opacity="1" stop-color="rgb(52.658081%, 31.202698%, 95.614624%)" offset="0.046875"/><stop stop-opacity="1" stop-color="rgb(52.478027%, 31.123352%, 95.263672%)" offset="0.0507812"/><stop stop-opacity="1" stop-color="rgb(52.2995%, 31.044006%, 94.91272%)" offset="0.0546875"/><stop stop-opacity="1" stop-color="rgb(52.119446%, 30.964661%, 94.561768%)" offset="0.0585938"/><stop stop-opacity="1" stop-color="rgb(51.940918%, 30.883789%, 94.210815%)" offset="0.0625"/><stop stop-opacity="1" stop-color="rgb(51.760864%, 30.804443%, 93.859863%)" offset="0.0664062"/><stop stop-opacity="1" stop-color="rgb(51.582336%, 30.725098%, 93.510437%)" offset="0.0703125"/><stop stop-opacity="1" stop-color="rgb(51.402283%, 30.645752%, 93.159485%)" offset="0.0742188"/><stop stop-opacity="1" stop-color="rgb(51.223755%, 30.56488%, 92.808533%)" offset="0.078125"/><stop stop-opacity="1" stop-color="rgb(51.043701%, 30.485535%, 92.457581%)" offset="0.0820312"/><stop stop-opacity="1" stop-color="rgb(50.865173%, 30.406189%, 92.106628%)" offset="0.0859375"/><stop stop-opacity="1" stop-color="rgb(50.68512%, 30.326843%, 91.755676%)" offset="0.0898438"/><stop stop-opacity="1" stop-color="rgb(50.506592%, 30.245972%, 91.404724%)" offset="0.09375"/><stop stop-opacity="1" stop-color="rgb(50.326538%, 30.166626%, 91.053772%)" offset="0.0976562"/><stop stop-opacity="1" stop-color="rgb(50.14801%, 30.08728%, 90.70282%)" offset="0.101562"/><stop stop-opacity="1" stop-color="rgb(49.967957%, 30.007935%, 90.353394%)" offset="0.105469"/><stop stop-opacity="1" stop-color="rgb(49.789429%, 29.928589%, 90.002441%)" offset="0.109375"/><stop stop-opacity="1" stop-color="rgb(49.609375%, 29.847717%, 89.651489%)" offset="0.113281"/><stop stop-opacity="1" stop-color="rgb(49.430847%, 29.768372%, 89.300537%)" offset="0.117188"/><stop stop-opacity="1" stop-color="rgb(49.250793%, 29.689026%, 88.949585%)" offset="0.121094"/><stop stop-opacity="1" stop-color="rgb(49.072266%, 29.60968%, 88.598633%)" offset="0.125"/><stop stop-opacity="1" stop-color="rgb(48.892212%, 29.528809%, 88.247681%)" offset="0.128906"/><stop stop-opacity="1" stop-color="rgb(48.713684%, 29.449463%, 87.896729%)" offset="0.132812"/><stop stop-opacity="1" stop-color="rgb(48.53363%, 29.370117%, 87.545776%)" offset="0.136719"/><stop stop-opacity="1" stop-color="rgb(48.355103%, 29.290771%, 87.19635%)" offset="0.140625"/><stop stop-opacity="1" stop-color="rgb(48.175049%, 29.211426%, 86.845398%)" offset="0.144531"/><stop stop-opacity="1" stop-color="rgb(47.996521%, 29.130554%, 86.494446%)" offset="0.148438"/><stop stop-opacity="1" stop-color="rgb(47.816467%, 29.051208%, 86.143494%)" offset="0.152344"/><stop stop-opacity="1" stop-color="rgb(47.637939%, 28.971863%, 85.792542%)" offset="0.15625"/><stop stop-opacity="1" stop-color="rgb(47.457886%, 28.892517%, 85.441589%)" offset="0.160156"/><stop stop-opacity="1" stop-color="rgb(47.279358%, 28.811646%, 85.090637%)" offset="0.164062"/><stop stop-opacity="1" stop-color="rgb(47.099304%, 28.7323%, 84.739685%)" offset="0.167969"/><stop stop-opacity="1" stop-color="rgb(46.920776%, 28.652954%, 84.388733%)" offset="0.171875"/><stop stop-opacity="1" stop-color="rgb(46.740723%, 28.573608%, 84.039307%)" offset="0.175781"/><stop stop-opacity="1" stop-color="rgb(46.562195%, 28.494263%, 83.688354%)" offset="0.179688"/><stop stop-opacity="1" stop-color="rgb(46.382141%, 28.413391%, 83.337402%)" offset="0.183594"/><stop stop-opacity="1" stop-color="rgb(46.203613%, 28.334045%, 82.98645%)" offset="0.1875"/><stop stop-opacity="1" stop-color="rgb(46.02356%, 28.2547%, 82.635498%)" offset="0.191406"/><stop stop-opacity="1" stop-color="rgb(45.845032%, 28.175354%, 82.284546%)" offset="0.195312"/><stop stop-opacity="1" stop-color="rgb(45.664978%, 28.094482%, 81.933594%)" offset="0.199219"/><stop stop-opacity="1" stop-color="rgb(45.48645%, 28.015137%, 81.582642%)" offset="0.203125"/><stop stop-opacity="1" stop-color="rgb(45.306396%, 27.935791%, 81.231689%)" offset="0.207031"/><stop stop-opacity="1" stop-color="rgb(45.127869%, 27.856445%, 80.882263%)" offset="0.210938"/><stop stop-opacity="1" stop-color="rgb(44.947815%, 27.7771%, 80.531311%)" offset="0.214844"/><stop stop-opacity="1" stop-color="rgb(44.769287%, 27.696228%, 80.180359%)" offset="0.21875"/><stop stop-opacity="1" stop-color="rgb(44.589233%, 27.616882%, 79.829407%)" offset="0.222656"/><stop stop-opacity="1" stop-color="rgb(44.410706%, 27.537537%, 79.478455%)" offset="0.226562"/><stop stop-opacity="1" stop-color="rgb(44.230652%, 27.458191%, 79.127502%)" offset="0.230469"/><stop stop-opacity="1" stop-color="rgb(44.052124%, 27.377319%, 78.77655%)" offset="0.234375"/><stop stop-opacity="1" stop-color="rgb(43.87207%, 27.297974%, 78.425598%)" offset="0.238281"/><stop stop-opacity="1" stop-color="rgb(43.693542%, 27.218628%, 78.074646%)" offset="0.242188"/><stop stop-opacity="1" stop-color="rgb(43.513489%, 27.139282%, 77.72522%)" offset="0.246094"/><stop stop-opacity="1" stop-color="rgb(43.334961%, 27.059937%, 77.374268%)" offset="0.25"/><stop stop-opacity="1" stop-color="rgb(43.154907%, 26.979065%, 77.023315%)" offset="0.253906"/><stop stop-opacity="1" stop-color="rgb(42.976379%, 26.899719%, 76.672363%)" offset="0.257812"/><stop stop-opacity="1" stop-color="rgb(42.796326%, 26.820374%, 76.321411%)" offset="0.261719"/><stop stop-opacity="1" stop-color="rgb(42.616272%, 26.741028%, 75.970459%)" offset="0.265625"/><stop stop-opacity="1" stop-color="rgb(42.437744%, 26.660156%, 75.619507%)" offset="0.269531"/><stop stop-opacity="1" stop-color="rgb(42.25769%, 26.580811%, 75.268555%)" offset="0.273438"/><stop stop-opacity="1" stop-color="rgb(42.079163%, 26.501465%, 74.917603%)" offset="0.277344"/><stop stop-opacity="1" stop-color="rgb(41.899109%, 26.422119%, 74.568176%)" offset="0.28125"/><stop stop-opacity="1" stop-color="rgb(41.720581%, 26.342773%, 74.217224%)" offset="0.285156"/><stop stop-opacity="1" stop-color="rgb(41.540527%, 26.261902%, 73.866272%)" offset="0.289062"/><stop stop-opacity="1" stop-color="rgb(41.362%, 26.182556%, 73.51532%)" offset="0.292969"/><stop stop-opacity="1" stop-color="rgb(41.181946%, 26.10321%, 73.164368%)" offset="0.296875"/><stop stop-opacity="1" stop-color="rgb(41.003418%, 26.023865%, 72.813416%)" offset="0.300781"/><stop stop-opacity="1" stop-color="rgb(40.823364%, 25.942993%, 72.462463%)" offset="0.304688"/><stop stop-opacity="1" stop-color="rgb(40.644836%, 25.863647%, 72.111511%)" offset="0.308594"/><stop stop-opacity="1" stop-color="rgb(40.464783%, 25.784302%, 71.760559%)" offset="0.3125"/><stop stop-opacity="1" stop-color="rgb(40.286255%, 25.704956%, 71.411133%)" offset="0.316406"/><stop stop-opacity="1" stop-color="rgb(40.106201%, 25.62561%, 71.060181%)" offset="0.320312"/><stop stop-opacity="1" stop-color="rgb(39.927673%, 25.544739%, 70.709229%)" offset="0.324219"/><stop stop-opacity="1" stop-color="rgb(39.74762%, 25.465393%, 70.358276%)" offset="0.328125"/><stop stop-opacity="1" stop-color="rgb(39.569092%, 25.386047%, 70.007324%)" offset="0.332031"/><stop stop-opacity="1" stop-color="rgb(39.389038%, 25.306702%, 69.656372%)" offset="0.335938"/><stop stop-opacity="1" stop-color="rgb(39.21051%, 25.22583%, 69.30542%)" offset="0.339844"/><stop stop-opacity="1" stop-color="rgb(39.030457%, 25.146484%, 68.954468%)" offset="0.34375"/><stop stop-opacity="1" stop-color="rgb(38.851929%, 25.067139%, 68.603516%)" offset="0.347656"/><stop stop-opacity="1" stop-color="rgb(38.671875%, 24.987793%, 68.254089%)" offset="0.351562"/><stop stop-opacity="1" stop-color="rgb(38.493347%, 24.906921%, 67.903137%)" offset="0.355469"/><stop stop-opacity="1" stop-color="rgb(38.313293%, 24.827576%, 67.552185%)" offset="0.359375"/><stop stop-opacity="1" stop-color="rgb(38.134766%, 24.74823%, 67.201233%)" offset="0.363281"/><stop stop-opacity="1" stop-color="rgb(37.954712%, 24.668884%, 66.850281%)" offset="0.367188"/><stop stop-opacity="1" stop-color="rgb(37.776184%, 24.589539%, 66.499329%)" offset="0.371094"/><stop stop-opacity="1" stop-color="rgb(37.59613%, 24.508667%, 66.148376%)" offset="0.375"/><stop stop-opacity="1" stop-color="rgb(37.417603%, 24.429321%, 65.797424%)" offset="0.378906"/><stop stop-opacity="1" stop-color="rgb(37.237549%, 24.349976%, 65.446472%)" offset="0.382812"/><stop stop-opacity="1" stop-color="rgb(37.059021%, 24.27063%, 65.097046%)" offset="0.386719"/><stop stop-opacity="1" stop-color="rgb(36.878967%, 24.189758%, 64.746094%)" offset="0.390625"/><stop stop-opacity="1" stop-color="rgb(36.700439%, 24.110413%, 64.395142%)" offset="0.394531"/><stop stop-opacity="1" stop-color="rgb(36.520386%, 24.031067%, 64.044189%)" offset="0.398438"/><stop stop-opacity="1" stop-color="rgb(36.341858%, 23.951721%, 63.693237%)" offset="0.402344"/><stop stop-opacity="1" stop-color="rgb(36.161804%, 23.872375%, 63.342285%)" offset="0.40625"/><stop stop-opacity="1" stop-color="rgb(35.983276%, 23.791504%, 62.991333%)" offset="0.410156"/><stop stop-opacity="1" stop-color="rgb(35.803223%, 23.712158%, 62.640381%)" offset="0.414062"/><stop stop-opacity="1" stop-color="rgb(35.624695%, 23.632812%, 62.289429%)" offset="0.417969"/><stop stop-opacity="1" stop-color="rgb(35.444641%, 23.553467%, 61.940002%)" offset="0.421875"/><stop stop-opacity="1" stop-color="rgb(35.266113%, 23.472595%, 61.58905%)" offset="0.425781"/><stop stop-opacity="1" stop-color="rgb(35.08606%, 23.39325%, 61.238098%)" offset="0.429688"/><stop stop-opacity="1" stop-color="rgb(34.907532%, 23.313904%, 60.887146%)" offset="0.433594"/><stop stop-opacity="1" stop-color="rgb(34.727478%, 23.234558%, 60.536194%)" offset="0.4375"/><stop stop-opacity="1" stop-color="rgb(34.54895%, 23.155212%, 60.185242%)" offset="0.441406"/><stop stop-opacity="1" stop-color="rgb(34.368896%, 23.074341%, 59.83429%)" offset="0.445312"/><stop stop-opacity="1" stop-color="rgb(34.190369%, 22.994995%, 59.483337%)" offset="0.449219"/><stop stop-opacity="1" stop-color="rgb(34.010315%, 22.915649%, 59.132385%)" offset="0.453125"/><stop stop-opacity="1" stop-color="rgb(33.831787%, 22.836304%, 58.782959%)" offset="0.457031"/><stop stop-opacity="1" stop-color="rgb(33.651733%, 22.755432%, 58.432007%)" offset="0.460938"/><stop stop-opacity="1" stop-color="rgb(33.473206%, 22.676086%, 58.081055%)" offset="0.464844"/><stop stop-opacity="1" stop-color="rgb(33.293152%, 22.596741%, 57.730103%)" offset="0.46875"/><stop stop-opacity="1" stop-color="rgb(33.114624%, 22.517395%, 57.37915%)" offset="0.472656"/><stop stop-opacity="1" stop-color="rgb(32.93457%, 22.438049%, 57.028198%)" offset="0.476562"/><stop stop-opacity="1" stop-color="rgb(32.756042%, 22.357178%, 56.677246%)" offset="0.480469"/><stop stop-opacity="1" stop-color="rgb(32.575989%, 22.277832%, 56.326294%)" offset="0.484375"/><stop stop-opacity="1" stop-color="rgb(32.397461%, 22.198486%, 55.976868%)" offset="0.488281"/><stop stop-opacity="1" stop-color="rgb(32.217407%, 22.119141%, 55.625916%)" offset="0.492188"/><stop stop-opacity="1" stop-color="rgb(32.038879%, 22.038269%, 55.274963%)" offset="0.496094"/><stop stop-opacity="1" stop-color="rgb(31.858826%, 21.958923%, 54.924011%)" offset="0.5"/><stop stop-opacity="1" stop-color="rgb(31.680298%, 21.879578%, 54.573059%)" offset="0.503906"/><stop stop-opacity="1" stop-color="rgb(31.500244%, 21.800232%, 54.222107%)" offset="0.507812"/><stop stop-opacity="1" stop-color="rgb(31.321716%, 21.720886%, 53.871155%)" offset="0.511719"/><stop stop-opacity="1" stop-color="rgb(31.141663%, 21.640015%, 53.520203%)" offset="0.515625"/><stop stop-opacity="1" stop-color="rgb(30.963135%, 21.560669%, 53.16925%)" offset="0.519531"/><stop stop-opacity="1" stop-color="rgb(30.783081%, 21.481323%, 52.819824%)" offset="0.523438"/><stop stop-opacity="1" stop-color="rgb(30.604553%, 21.401978%, 52.468872%)" offset="0.527344"/><stop stop-opacity="1" stop-color="rgb(30.4245%, 21.321106%, 52.11792%)" offset="0.53125"/><stop stop-opacity="1" stop-color="rgb(30.245972%, 21.24176%, 51.766968%)" offset="0.535156"/><stop stop-opacity="1" stop-color="rgb(30.065918%, 21.162415%, 51.416016%)" offset="0.539062"/><stop stop-opacity="1" stop-color="rgb(29.88739%, 21.083069%, 51.065063%)" offset="0.542969"/><stop stop-opacity="1" stop-color="rgb(29.707336%, 21.003723%, 50.714111%)" offset="0.546875"/><stop stop-opacity="1" stop-color="rgb(29.528809%, 20.922852%, 50.363159%)" offset="0.550781"/><stop stop-opacity="1" stop-color="rgb(29.348755%, 20.843506%, 50.012207%)" offset="0.554688"/><stop stop-opacity="1" stop-color="rgb(29.170227%, 20.76416%, 49.662781%)" offset="0.558594"/><stop stop-opacity="1" stop-color="rgb(28.990173%, 20.684814%, 49.311829%)" offset="0.5625"/><stop stop-opacity="1" stop-color="rgb(28.811646%, 20.603943%, 48.960876%)" offset="0.566406"/><stop stop-opacity="1" stop-color="rgb(28.631592%, 20.524597%, 48.609924%)" offset="0.570312"/><stop stop-opacity="1" stop-color="rgb(28.453064%, 20.445251%, 48.258972%)" offset="0.574219"/><stop stop-opacity="1" stop-color="rgb(28.27301%, 20.365906%, 47.90802%)" offset="0.578125"/><stop stop-opacity="1" stop-color="rgb(28.094482%, 20.285034%, 47.557068%)" offset="0.582031"/><stop stop-opacity="1" stop-color="rgb(27.914429%, 20.205688%, 47.206116%)" offset="0.585938"/><stop stop-opacity="1" stop-color="rgb(27.735901%, 20.126343%, 46.855164%)" offset="0.589844"/><stop stop-opacity="1" stop-color="rgb(27.555847%, 20.046997%, 46.505737%)" offset="0.59375"/><stop stop-opacity="1" stop-color="rgb(27.377319%, 19.967651%, 46.154785%)" offset="0.597656"/><stop stop-opacity="1" stop-color="rgb(27.197266%, 19.88678%, 45.803833%)" offset="0.601562"/><stop stop-opacity="1" stop-color="rgb(27.018738%, 19.807434%, 45.452881%)" offset="0.605469"/><stop stop-opacity="1" stop-color="rgb(26.838684%, 19.728088%, 45.101929%)" offset="0.609375"/><stop stop-opacity="1" stop-color="rgb(26.660156%, 19.648743%, 44.750977%)" offset="0.613281"/><stop stop-opacity="1" stop-color="rgb(26.480103%, 19.567871%, 44.400024%)" offset="0.617188"/><stop stop-opacity="1" stop-color="rgb(26.301575%, 19.488525%, 44.049072%)" offset="0.621094"/><stop stop-opacity="1" stop-color="rgb(26.121521%, 19.40918%, 43.69812%)" offset="0.625"/><stop stop-opacity="1" stop-color="rgb(25.942993%, 19.329834%, 43.348694%)" offset="0.628906"/><stop stop-opacity="1" stop-color="rgb(25.762939%, 19.250488%, 42.997742%)" offset="0.632812"/><stop stop-opacity="1" stop-color="rgb(25.584412%, 19.169617%, 42.64679%)" offset="0.636719"/><stop stop-opacity="1" stop-color="rgb(25.404358%, 19.090271%, 42.295837%)" offset="0.640625"/><stop stop-opacity="1" stop-color="rgb(25.22583%, 19.010925%, 41.944885%)" offset="0.644531"/><stop stop-opacity="1" stop-color="rgb(25.045776%, 18.93158%, 41.593933%)" offset="0.648438"/><stop stop-opacity="1" stop-color="rgb(24.867249%, 18.850708%, 41.242981%)" offset="0.652344"/><stop stop-opacity="1" stop-color="rgb(24.687195%, 18.771362%, 40.892029%)" offset="0.65625"/><stop stop-opacity="1" stop-color="rgb(24.508667%, 18.692017%, 40.541077%)" offset="0.660156"/><stop stop-opacity="1" stop-color="rgb(24.328613%, 18.612671%, 40.19165%)" offset="0.664062"/><stop stop-opacity="1" stop-color="rgb(24.150085%, 18.533325%, 39.840698%)" offset="0.667969"/><stop stop-opacity="1" stop-color="rgb(23.970032%, 18.452454%, 39.489746%)" offset="0.671875"/><stop stop-opacity="1" stop-color="rgb(23.791504%, 18.373108%, 39.138794%)" offset="0.675781"/><stop stop-opacity="1" stop-color="rgb(23.61145%, 18.293762%, 38.787842%)" offset="0.679688"/><stop stop-opacity="1" stop-color="rgb(23.432922%, 18.214417%, 38.43689%)" offset="0.683594"/><stop stop-opacity="1" stop-color="rgb(23.252869%, 18.133545%, 38.085938%)" offset="0.6875"/><stop stop-opacity="1" stop-color="rgb(23.074341%, 18.054199%, 37.734985%)" offset="0.691406"/><stop stop-opacity="1" stop-color="rgb(22.894287%, 17.974854%, 37.384033%)" offset="0.695312"/><stop stop-opacity="1" stop-color="rgb(22.715759%, 17.895508%, 37.034607%)" offset="0.699219"/><stop stop-opacity="1" stop-color="rgb(22.535706%, 17.816162%, 36.683655%)" offset="0.703125"/><stop stop-opacity="1" stop-color="rgb(22.357178%, 17.735291%, 36.332703%)" offset="0.707031"/><stop stop-opacity="1" stop-color="rgb(22.177124%, 17.655945%, 35.98175%)" offset="0.710938"/><stop stop-opacity="1" stop-color="rgb(21.998596%, 17.576599%, 35.630798%)" offset="0.714844"/><stop stop-opacity="1" stop-color="rgb(21.818542%, 17.497253%, 35.279846%)" offset="0.71875"/><stop stop-opacity="1" stop-color="rgb(21.640015%, 17.416382%, 34.928894%)" offset="0.722656"/><stop stop-opacity="1" stop-color="rgb(21.459961%, 17.337036%, 34.577942%)" offset="0.726562"/><stop stop-opacity="1" stop-color="rgb(21.281433%, 17.25769%, 34.22699%)" offset="0.730469"/><stop stop-opacity="1" stop-color="rgb(21.101379%, 17.178345%, 33.877563%)" offset="0.734375"/><stop stop-opacity="1" stop-color="rgb(20.922852%, 17.098999%, 33.526611%)" offset="0.738281"/><stop stop-opacity="1" stop-color="rgb(20.742798%, 17.018127%, 33.175659%)" offset="0.742188"/><stop stop-opacity="1" stop-color="rgb(20.56427%, 16.938782%, 32.824707%)" offset="0.746094"/><stop stop-opacity="1" stop-color="rgb(20.384216%, 16.859436%, 32.473755%)" offset="0.75"/><stop stop-opacity="1" stop-color="rgb(20.204163%, 16.78009%, 32.122803%)" offset="0.753906"/><stop stop-opacity="1" stop-color="rgb(20.025635%, 16.699219%, 31.771851%)" offset="0.757812"/><stop stop-opacity="1" stop-color="rgb(19.845581%, 16.619873%, 31.420898%)" offset="0.761719"/><stop stop-opacity="1" stop-color="rgb(19.667053%, 16.540527%, 31.069946%)" offset="0.765625"/><stop stop-opacity="1" stop-color="rgb(19.487%, 16.461182%, 30.72052%)" offset="0.769531"/><stop stop-opacity="1" stop-color="rgb(19.308472%, 16.381836%, 30.369568%)" offset="0.773438"/><stop stop-opacity="1" stop-color="rgb(19.128418%, 16.300964%, 30.018616%)" offset="0.777344"/><stop stop-opacity="1" stop-color="rgb(18.94989%, 16.221619%, 29.667664%)" offset="0.78125"/><stop stop-opacity="1" stop-color="rgb(18.769836%, 16.142273%, 29.316711%)" offset="0.785156"/><stop stop-opacity="1" stop-color="rgb(18.591309%, 16.062927%, 28.965759%)" offset="0.789062"/><stop stop-opacity="1" stop-color="rgb(18.411255%, 15.982056%, 28.614807%)" offset="0.792969"/><stop stop-opacity="1" stop-color="rgb(18.232727%, 15.90271%, 28.263855%)" offset="0.796875"/><stop stop-opacity="1" stop-color="rgb(18.052673%, 15.823364%, 27.912903%)" offset="0.800781"/><stop stop-opacity="1" stop-color="rgb(17.874146%, 15.744019%, 27.563477%)" offset="0.804688"/><stop stop-opacity="1" stop-color="rgb(17.694092%, 15.664673%, 27.212524%)" offset="0.808594"/><stop stop-opacity="1" stop-color="rgb(17.515564%, 15.583801%, 26.861572%)" offset="0.8125"/><stop stop-opacity="1" stop-color="rgb(17.33551%, 15.504456%, 26.51062%)" offset="0.816406"/><stop stop-opacity="1" stop-color="rgb(17.156982%, 15.42511%, 26.159668%)" offset="0.820312"/><stop stop-opacity="1" stop-color="rgb(16.976929%, 15.345764%, 25.808716%)" offset="0.824219"/><stop stop-opacity="1" stop-color="rgb(16.798401%, 15.264893%, 25.457764%)" offset="0.828125"/><stop stop-opacity="1" stop-color="rgb(16.618347%, 15.185547%, 25.106812%)" offset="0.832031"/><stop stop-opacity="1" stop-color="rgb(16.439819%, 15.106201%, 24.755859%)" offset="0.835938"/><stop stop-opacity="1" stop-color="rgb(16.259766%, 15.026855%, 24.406433%)" offset="0.839844"/><stop stop-opacity="1" stop-color="rgb(16.081238%, 14.945984%, 24.055481%)" offset="0.84375"/><stop stop-opacity="1" stop-color="rgb(15.901184%, 14.866638%, 23.704529%)" offset="0.847656"/><stop stop-opacity="1" stop-color="rgb(15.722656%, 14.787292%, 23.353577%)" offset="0.851562"/><stop stop-opacity="1" stop-color="rgb(15.542603%, 14.707947%, 23.002625%)" offset="0.855469"/><stop stop-opacity="1" stop-color="rgb(15.364075%, 14.628601%, 22.651672%)" offset="0.859375"/><stop stop-opacity="1" stop-color="rgb(15.184021%, 14.547729%, 22.30072%)" offset="0.863281"/><stop stop-opacity="1" stop-color="rgb(15.005493%, 14.468384%, 21.949768%)" offset="0.867188"/><stop stop-opacity="1" stop-color="rgb(14.825439%, 14.389038%, 21.598816%)" offset="0.871094"/><stop stop-opacity="1" stop-color="rgb(14.646912%, 14.309692%, 21.24939%)" offset="0.875"/><stop stop-opacity="1" stop-color="rgb(14.466858%, 14.228821%, 20.898438%)" offset="0.878906"/><stop stop-opacity="1" stop-color="rgb(14.28833%, 14.149475%, 20.547485%)" offset="0.882812"/><stop stop-opacity="1" stop-color="rgb(14.108276%, 14.070129%, 20.196533%)" offset="0.886719"/><stop stop-opacity="1" stop-color="rgb(13.929749%, 13.990784%, 19.845581%)" offset="0.890625"/><stop stop-opacity="1" stop-color="rgb(13.749695%, 13.911438%, 19.494629%)" offset="0.894531"/><stop stop-opacity="1" stop-color="rgb(13.571167%, 13.830566%, 19.143677%)" offset="0.898438"/><stop stop-opacity="1" stop-color="rgb(13.391113%, 13.751221%, 18.792725%)" offset="0.902344"/><stop stop-opacity="1" stop-color="rgb(13.212585%, 13.671875%, 18.441772%)" offset="0.90625"/><stop stop-opacity="1" stop-color="rgb(13.032532%, 13.592529%, 18.092346%)" offset="0.910156"/><stop stop-opacity="1" stop-color="rgb(12.854004%, 13.511658%, 17.741394%)" offset="0.914062"/><stop stop-opacity="1" stop-color="rgb(12.67395%, 13.432312%, 17.390442%)" offset="0.917969"/><stop stop-opacity="1" stop-color="rgb(12.495422%, 13.352966%, 17.03949%)" offset="0.921875"/><stop stop-opacity="1" stop-color="rgb(12.315369%, 13.273621%, 16.688538%)" offset="0.925781"/><stop stop-opacity="1" stop-color="rgb(12.136841%, 13.194275%, 16.337585%)" offset="0.929688"/><stop stop-opacity="1" stop-color="rgb(11.956787%, 13.113403%, 15.986633%)" offset="0.933594"/><stop stop-opacity="1" stop-color="rgb(11.778259%, 13.034058%, 15.635681%)" offset="0.9375"/><stop stop-opacity="1" stop-color="rgb(11.598206%, 12.954712%, 15.284729%)" offset="0.941406"/><stop stop-opacity="1" stop-color="rgb(11.419678%, 12.875366%, 14.935303%)" offset="0.945312"/><stop stop-opacity="1" stop-color="rgb(11.239624%, 12.794495%, 14.584351%)" offset="0.949219"/><stop stop-opacity="1" stop-color="rgb(11.061096%, 12.715149%, 14.233398%)" offset="0.953125"/><stop stop-opacity="1" stop-color="rgb(10.881042%, 12.635803%, 13.882446%)" offset="0.957031"/><stop stop-opacity="1" stop-color="rgb(10.702515%, 12.556458%, 13.531494%)" offset="0.960938"/><stop stop-opacity="1" stop-color="rgb(10.522461%, 12.477112%, 13.180542%)" offset="0.964844"/><stop stop-opacity="1" stop-color="rgb(10.343933%, 12.39624%, 12.82959%)" offset="0.96875"/><stop stop-opacity="1" stop-color="rgb(10.163879%, 12.316895%, 12.478638%)" offset="0.972656"/><stop stop-opacity="1" stop-color="rgb(9.985352%, 12.237549%, 12.129211%)" offset="0.976562"/><stop stop-opacity="1" stop-color="rgb(9.805298%, 12.158203%, 11.778259%)" offset="0.980469"/><stop stop-opacity="1" stop-color="rgb(9.62677%, 12.077332%, 11.427307%)" offset="0.984375"/><stop stop-opacity="1" stop-color="rgb(9.446716%, 11.997986%, 11.076355%)" offset="0.988281"/><stop stop-opacity="1" stop-color="rgb(9.268188%, 11.91864%, 10.725403%)" offset="0.992188"/><stop stop-opacity="1" stop-color="rgb(9.088135%, 11.839294%, 10.374451%)" offset="0.996094"/><stop stop-opacity="1" stop-color="rgb(8.999634%, 11.799622%, 10.198975%)" offset="1"/></radialGradient></defs><rect x="-37.5" width="450" fill="#ffffff" y="-37.499999" height="449.999989" fill-opacity="1"/><rect x="-37.5" fill="url(#195f8881c9)" width="450" y="-37.499999" height="449.999989"/><path fill="#ffffff" d="M 154.09375 174.175781 C 163.007812 168.898438 154.28125 157.4375 146.925781 156.21875 C 140.007812 155.078125 133.171875 157.433594 126.257812 155.339844 C 118.636719 153.027344 112.25 147.15625 108.714844 140.097656 C 94.496094 111.703125 116.355469 76.097656 143.078125 64.78125 C 158.769531 58.136719 176.652344 57.390625 193.484375 57.179688 C 207.351562 57.007812 221.667969 58.074219 234.945312 62.324219 C 247.203125 66.253906 258.65625 73.230469 265.570312 84.375 C 273.371094 96.941406 274.511719 113.410156 268.4375 126.890625 C 261.015625 143.367188 245.660156 151.28125 228.570312 153.691406 C 221.476562 154.691406 213.246094 157.773438 209.171875 164.066406 C 205.9375 169.054688 205.5 175.421875 209.613281 179.984375 C 210.027344 178.371094 210.441406 176.757812 210.851562 175.144531 C 204.941406 177.554688 195.597656 180.726562 190.753906 174.792969 C 189.328125 173.042969 186.691406 173.519531 185.777344 175.503906 C 183.734375 179.949219 177.5625 179.917969 174.9375 176.140625 C 174.003906 174.800781 172.195312 174.90625 170.976562 175.679688 C 168.003906 177.566406 164.152344 179.839844 160.457031 179.410156 C 157.164062 179.027344 153.46875 175.191406 155.910156 171.820312 C 157.9375 169.023438 153.910156 166.140625 151.671875 168.652344 C 147.613281 173.207031 149.648438 179.90625 154.433594 183.148438 C 160.878906 187.511719 168.730469 183.769531 174.476562 180.105469 C 173.15625 179.949219 171.832031 179.796875 170.511719 179.640625 C 175.71875 187.109375 187.296875 185.582031 191.167969 177.6875 C 189.511719 177.925781 187.851562 178.164062 186.195312 178.402344 C 192.882812 187.019531 204.484375 184.125 213.300781 180.925781 C 215.199219 180.238281 215.796875 177.597656 214.539062 176.085938 C 211.71875 172.699219 213.816406 167.785156 217.171875 165.511719 C 220.960938 162.941406 227.375 163.8125 231.828125 163.386719 C 239.351562 162.675781 246.628906 160.769531 253.316406 157.171875 C 266.1875 150.25 276.5625 138.5625 280.789062 124.449219 C 289.402344 95.6875 274.015625 67.105469 247.390625 55 C 234.476562 49.128906 220.070312 46.945312 205.996094 46.386719 C 189.859375 45.746094 173.152344 46.441406 157.359375 49.941406 C 127.148438 56.632812 102.5 78.53125 97.574219 109.914062 C 94.996094 126.335938 98.664062 144.625 112.113281 155.492188 C 117.601562 159.929688 124.675781 163.003906 131.808594 162.957031 C 135.789062 162.929688 139.644531 161.898438 143.609375 161.710938 C 146.480469 161.578125 149.824219 161.753906 151.847656 164.09375 C 153.625 166.152344 154.121094 169.40625 151.609375 171.035156 C 149.417969 172.457031 151.933594 175.453125 154.09375 174.175781 " fill-opacity="1" fill-rule="nonzero"/><path fill="#ffffff" d="M 158.054688 118.03125 C 159.925781 115.789062 161.375 113.332031 162.074219 110.847656 C 162.15625 113.613281 160.445312 116.023438 158.054688 118.03125 Z M 157.332031 97.164062 C 155.867188 96.796875 154.453125 96.640625 153.082031 96.644531 C 142.214844 92.605469 128.421875 98.878906 122.882812 108.585938 C 119.949219 113.726562 118.511719 120.394531 120.730469 126.09375 C 123.273438 132.625 129.449219 134.40625 135.90625 133.917969 C 147.820312 133.011719 171.445312 124.964844 168.796875 109.101562 C 167.832031 103.324219 162.90625 98.554688 157.332031 97.164062 " fill-opacity="1" fill-rule="nonzero"/><path fill="#ffffff" d="M 251.84375 109.820312 C 248.050781 101.820312 235.496094 96.320312 226.988281 97.347656 C 225.273438 97.554688 223.507812 97.941406 221.738281 98.421875 C 214.546875 99.058594 207.332031 101.8125 203.4375 108.007812 C 198.761719 115.441406 201.019531 124.300781 208.390625 128.910156 C 217.492188 134.601562 229.578125 134.285156 239.136719 130.042969 C 247.660156 126.265625 256.886719 120.457031 251.84375 109.820312 " fill-opacity="1" fill-rule="nonzero"/><path fill="#ffffff" d="M 181.296875 136.101562 C 179.539062 140.265625 178.34375 144.691406 177.015625 149.011719 C 176.222656 151.574219 173.988281 155.660156 174.71875 158.449219 C 176.097656 163.722656 181.9375 160.421875 183.410156 157.21875 C 182.414062 157.363281 181.421875 157.503906 180.425781 157.648438 C 181.738281 158.960938 182.40625 161.226562 184.566406 161.398438 C 186.21875 161.53125 187.425781 160.355469 187.941406 158.90625 C 188.953125 156.078125 187.730469 152.285156 187.207031 149.476562 C 186.476562 145.574219 185.488281 141.730469 184.402344 137.917969 C 183.910156 136.191406 180.984375 136.648438 180.917969 138.394531 C 180.699219 144.246094 180.480469 150.101562 180.25 155.953125 C 181.421875 155.953125 182.59375 155.949219 183.761719 155.949219 C 183.535156 153.578125 183.3125 151.203125 183.085938 148.832031 C 182.914062 147.03125 180.382812 146.84375 179.714844 148.398438 C 178.8125 150.496094 177.910156 152.585938 177.007812 154.683594 C 176.117188 156.746094 179.347656 158.054688 180.238281 155.992188 C 180.824219 154.632812 181.414062 153.277344 181.996094 151.917969 C 182.792969 150.078125 180.203125 148.699219 179 150.226562 C 177.492188 152.140625 176.628906 153.984375 176.1875 156.378906 C 175.863281 158.152344 178.726562 158.945312 179.273438 157.1875 C 179.839844 155.371094 180.585938 153.804688 181.78125 152.304688 C 180.78125 151.742188 179.78125 151.179688 178.78125 150.617188 C 178.191406 151.96875 177.597656 153.328125 177.007812 154.683594 C 178.085938 155.117188 179.164062 155.554688 180.238281 155.992188 C 181.152344 153.902344 182.0625 151.8125 182.972656 149.71875 C 181.847656 149.578125 180.726562 149.433594 179.601562 149.289062 C 179.816406 151.667969 180.035156 154.039062 180.25 156.414062 C 180.433594 158.382812 183.675781 158.433594 183.761719 156.410156 C 184.015625 150.558594 184.273438 144.710938 184.53125 138.859375 C 183.371094 139.019531 182.207031 139.179688 181.046875 139.335938 C 182.175781 143.367188 183.105469 147.441406 183.847656 151.558594 C 184.113281 153.03125 184.625 154.886719 184.625 156.386719 C 184.628906 158.820312 184.257812 156.554688 183.160156 155.480469 C 182.230469 154.574219 180.757812 154.601562 180.175781 155.910156 C 178.195312 155.75 177.699219 154.898438 178.6875 153.351562 C 178.832031 152.796875 178.976562 152.246094 179.125 151.695312 C 179.578125 149.992188 180.035156 148.285156 180.480469 146.574219 C 181.351562 143.242188 182.308594 139.914062 182.851562 136.511719 C 183 135.585938 181.652344 135.265625 181.296875 136.101562 " fill-opacity="1" fill-rule="nonzero"/><g fill="#ffffff" fill-opacity="1"><g transform="translate(37.163376, 237.703932)"><g><path d="M 28.984375 -45.3125 C 22.078125 -44.757812 18.003906 -44.359375 16.765625 -44.109375 C 15.523438 -43.859375 14.484375 -43.957031 13.640625 -44.40625 C 12.796875 -44.851562 11.9375 -45.125 11.0625 -45.21875 C 10.195312 -45.320312 9.539062 -45.3125 9.09375 -45.1875 C 8.644531 -45.0625 8.070312 -44.925781 7.375 -44.78125 L 7.078125 -44.484375 L 7.234375 -43.96875 C 7.523438 -43.664062 7.757812 -43.460938 7.9375 -43.359375 C 8.113281 -43.265625 8.347656 -43.179688 8.640625 -43.109375 C 8.941406 -43.035156 9.238281 -42.820312 9.53125 -42.46875 C 9.832031 -42.125 10.359375 -41.65625 11.109375 -41.0625 C 11.753906 -40.113281 12.472656 -39.289062 13.265625 -38.59375 C 13.660156 -38.445312 13.957031 -38.335938 14.15625 -38.265625 C 14.351562 -38.191406 14.675781 -38.15625 15.125 -38.15625 C 15.570312 -38.15625 16.269531 -38.101562 17.21875 -38 C 17.21875 -37.800781 17.226562 -37.640625 17.25 -37.515625 C 17.269531 -37.390625 16.96875 -36.644531 16.34375 -35.28125 C 15.726562 -33.914062 15.082031 -32.300781 14.40625 -30.4375 C 13.738281 -28.570312 13.316406 -27.316406 13.140625 -26.671875 C 12.972656 -26.023438 12.738281 -25.179688 12.4375 -24.140625 C 12.289062 -23.992188 11.519531 -23.722656 10.125 -23.328125 C 8.738281 -22.929688 7.847656 -22.628906 7.453125 -22.421875 C 7.054688 -22.222656 6.609375 -22.003906 6.109375 -21.765625 L 5.96875 -21.453125 C 6.957031 -20.410156 8.046875 -19.519531 9.234375 -18.78125 L 10.734375 -17.0625 C 10.628906 -16.21875 10.550781 -14.789062 10.5 -12.78125 C 10.457031 -10.769531 10.535156 -9.34375 10.734375 -8.5 C 10.929688 -7.65625 11.101562 -7.117188 11.25 -6.890625 C 11.394531 -6.671875 11.644531 -6.363281 12 -5.96875 C 12.394531 -5.71875 12.789062 -5.515625 13.1875 -5.359375 C 13.582031 -5.210938 13.941406 -5.015625 14.265625 -4.765625 C 14.585938 -4.515625 15.097656 -4.019531 15.796875 -3.28125 L 17.734375 -1.046875 L 18.484375 -1.046875 C 18.523438 -1.191406 18.597656 -1.300781 18.703125 -1.375 C 18.804688 -1.445312 18.832031 -1.914062 18.78125 -2.78125 C 18.726562 -3.65625 18.539062 -4.675781 18.21875 -5.84375 C 17.894531 -7.007812 17.519531 -8.023438 17.09375 -8.890625 C 16.675781 -9.765625 16.53125 -10.632812 16.65625 -11.5 C 16.78125 -12.375 16.988281 -13.65625 17.28125 -15.34375 C 17.582031 -17.039062 17.882812 -18.382812 18.1875 -19.375 C 18.332031 -19.425781 18.425781 -19.515625 18.46875 -19.640625 C 18.519531 -19.765625 19.226562 -20 20.59375 -20.34375 C 21.96875 -20.6875 23.507812 -21.144531 25.21875 -21.71875 C 26.9375 -22.289062 30.351562 -23.472656 35.46875 -25.265625 L 35.625 -25.40625 C 35.914062 -25.65625 36.285156 -25.851562 36.734375 -26 C 31.066406 -26.25 25.476562 -26.078125 19.96875 -25.484375 C 19.96875 -25.734375 19.96875 -25.96875 19.96875 -26.1875 C 19.96875 -26.414062 20.523438 -28.15625 21.640625 -31.40625 C 22.765625 -34.664062 23.347656 -36.539062 23.390625 -37.03125 C 23.441406 -37.53125 23.546875 -38.050781 23.703125 -38.59375 C 24.191406 -38.695312 24.6875 -38.8125 25.1875 -38.9375 C 25.6875 -39.0625 27.148438 -39.234375 29.578125 -39.453125 C 32.015625 -39.679688 33.800781 -39.804688 34.9375 -39.828125 C 36.082031 -39.847656 37.175781 -40.007812 38.21875 -40.3125 C 39.269531 -40.613281 39.84375 -40.8125 39.9375 -40.90625 C 40.039062 -41.007812 40.140625 -41.082031 40.234375 -41.125 C 40.179688 -41.375 40.15625 -41.5625 40.15625 -41.6875 C 40.15625 -41.8125 40.046875 -41.972656 39.828125 -42.171875 C 39.609375 -42.367188 39.320312 -42.691406 38.96875 -43.140625 C 38.425781 -43.535156 38.015625 -43.84375 37.734375 -44.0625 C 37.460938 -44.289062 37.050781 -44.503906 36.5 -44.703125 C 35.957031 -44.898438 35.226562 -45.050781 34.3125 -45.15625 C 33.394531 -45.257812 32.585938 -45.296875 31.890625 -45.265625 C 31.191406 -45.242188 30.222656 -45.257812 28.984375 -45.3125 Z M 28.984375 -45.3125 "/></g></g></g><g fill="#ffffff" fill-opacity="1"><g transform="translate(77.398322, 237.703932)"><g><path d="M 7.15625 -34.125 C 7.050781 -34.03125 6.988281 -33.894531 6.96875 -33.71875 C 6.945312 -33.539062 7.046875 -33.253906 7.265625 -32.859375 C 7.484375 -32.460938 7.53125 -31.804688 7.40625 -30.890625 C 7.289062 -29.972656 7.03125 -28.332031 6.625 -25.96875 C 6.226562 -23.601562 5.90625 -21.191406 5.65625 -18.734375 C 5.414062 -16.273438 5.269531 -14.140625 5.21875 -12.328125 C 5.164062 -10.515625 5.164062 -8.910156 5.21875 -7.515625 C 5.269531 -6.128906 5.304688 -5.335938 5.328125 -5.140625 C 5.347656 -4.941406 5.410156 -4.742188 5.515625 -4.546875 C 5.765625 -4.441406 5.9375 -4.363281 6.03125 -4.3125 C 6.132812 -4.269531 6.3125 -4.210938 6.5625 -4.140625 C 6.8125 -4.066406 7.109375 -3.867188 7.453125 -3.546875 C 7.796875 -3.222656 8.34375 -2.660156 9.09375 -1.859375 L 10.8125 0 C 11.050781 -1.144531 11.21875 -2.023438 11.3125 -2.640625 C 11.414062 -3.265625 11.53125 -4.296875 11.65625 -5.734375 C 11.78125 -7.179688 12.066406 -8.796875 12.515625 -10.578125 C 12.960938 -12.367188 13.210938 -14.007812 13.265625 -15.5 C 13.316406 -16.988281 13.328125 -18.128906 13.296875 -18.921875 C 13.273438 -19.722656 13.328125 -20.195312 13.453125 -20.34375 C 13.578125 -20.488281 13.738281 -20.660156 13.9375 -20.859375 C 14.925781 -21.160156 15.679688 -21.375 16.203125 -21.5 C 16.722656 -21.625 17.234375 -21.847656 17.734375 -22.171875 C 18.234375 -22.492188 18.664062 -22.835938 19.03125 -23.203125 C 19.40625 -23.578125 19.96875 -24.113281 20.71875 -24.8125 C 21.257812 -25.65625 21.65625 -26.25 21.90625 -26.59375 C 22.15625 -26.945312 22.390625 -27.429688 22.609375 -28.046875 C 22.835938 -28.671875 22.953125 -29.378906 22.953125 -30.171875 C 22.953125 -30.972656 22.875 -31.507812 22.71875 -31.78125 C 22.570312 -32.050781 22.453125 -32.363281 22.359375 -32.71875 L 21.6875 -32.78125 C 20.738281 -31.894531 19.953125 -31.1875 19.328125 -30.65625 C 18.710938 -30.132812 17.894531 -29.414062 16.875 -28.5 C 15.851562 -27.582031 15.253906 -27.0625 15.078125 -26.9375 C 14.910156 -26.8125 14.675781 -26.597656 14.375 -26.296875 L 14.078125 -26.375 C 14.035156 -26.96875 14.023438 -27.398438 14.046875 -27.671875 C 14.066406 -27.953125 13.953125 -28.351562 13.703125 -28.875 C 13.460938 -29.394531 13.140625 -29.828125 12.734375 -30.171875 C 12.335938 -30.523438 11.796875 -31.125 11.109375 -31.96875 C 10.359375 -32.507812 9.785156 -32.90625 9.390625 -33.15625 C 8.992188 -33.40625 8.570312 -33.640625 8.125 -33.859375 C 7.675781 -34.085938 7.414062 -34.1875 7.34375 -34.15625 C 7.269531 -34.132812 7.207031 -34.125 7.15625 -34.125 Z M 7.15625 -34.125 "/></g></g></g><g fill="#ffffff" fill-opacity="1"><g transform="translate(100.347147, 237.703932)"><g><path d="M 7.90625 -46.71875 C 7.75 -46.425781 7.617188 -46.175781 7.515625 -45.96875 C 7.421875 -45.769531 7.25 -45.148438 7 -44.109375 C 6.75 -43.066406 6.613281 -42.097656 6.59375 -41.203125 C 6.570312 -40.304688 6.679688 -39.535156 6.921875 -38.890625 C 7.171875 -38.242188 7.457031 -37.695312 7.78125 -37.25 C 8.101562 -36.8125 8.273438 -36.550781 8.296875 -36.46875 C 8.328125 -36.394531 8.367188 -36.3125 8.421875 -36.21875 L 9.09375 -35.625 C 9.6875 -35.71875 10.257812 -36.015625 10.8125 -36.515625 C 11.101562 -37.160156 11.382812 -37.644531 11.65625 -37.96875 C 11.9375 -38.289062 12.175781 -38.910156 12.375 -39.828125 C 12.570312 -40.742188 12.671875 -41.535156 12.671875 -42.203125 C 12.671875 -42.878906 12.519531 -43.414062 12.21875 -43.8125 C 11.925781 -44.207031 11.65625 -44.476562 11.40625 -44.625 C 11.15625 -44.78125 10.832031 -45.109375 10.4375 -45.609375 C 9.882812 -45.953125 9.492188 -46.195312 9.265625 -46.34375 C 9.046875 -46.5 8.835938 -46.578125 8.640625 -46.578125 C 8.441406 -46.578125 8.195312 -46.625 7.90625 -46.71875 Z M 5.359375 -34.125 C 5.265625 -34.03125 5.15625 -33.347656 5.03125 -32.078125 C 4.90625 -30.804688 4.644531 -28.988281 4.25 -26.625 C 3.851562 -24.269531 3.539062 -21.972656 3.3125 -19.734375 C 3.09375 -17.503906 2.992188 -15.59375 3.015625 -14 C 3.046875 -12.414062 3.132812 -10.941406 3.28125 -9.578125 C 3.425781 -8.210938 3.632812 -7.03125 3.90625 -6.03125 C 4.1875 -5.039062 4.472656 -4.332031 4.765625 -3.90625 C 5.066406 -3.488281 5.253906 -3.179688 5.328125 -2.984375 C 5.398438 -2.785156 5.507812 -2.609375 5.65625 -2.453125 C 5.863281 -2.109375 6.140625 -1.9375 6.484375 -1.9375 C 6.679688 -2.1875 6.816406 -2.375 6.890625 -2.5 C 6.960938 -2.625 7.148438 -3.054688 7.453125 -3.796875 C 7.753906 -4.546875 8.101562 -5.960938 8.5 -8.046875 C 8.894531 -10.128906 9.226562 -12.6875 9.5 -15.71875 C 9.769531 -18.75 10.128906 -21.492188 10.578125 -23.953125 C 11.023438 -26.410156 11.234375 -27.988281 11.203125 -28.6875 C 11.179688 -29.382812 11.046875 -29.832031 10.796875 -30.03125 C 10.554688 -30.226562 10.1875 -30.675781 9.6875 -31.375 C 9.1875 -31.914062 8.800781 -32.3125 8.53125 -32.5625 C 8.257812 -32.8125 7.875 -33.070312 7.375 -33.34375 C 6.875 -33.613281 6.460938 -33.796875 6.140625 -33.890625 C 5.816406 -33.992188 5.554688 -34.070312 5.359375 -34.125 Z M 5.359375 -34.125 "/></g></g></g><g fill="#ffffff" fill-opacity="1"><g transform="translate(114.503889, 237.703932)"><g><path d="M 26.375 -34.203125 C 25.582031 -34.097656 24.960938 -34.019531 24.515625 -33.96875 C 24.066406 -33.925781 23.367188 -33.71875 22.421875 -33.34375 C 21.484375 -32.96875 20.550781 -32.46875 19.625 -31.84375 C 18.707031 -31.226562 17.988281 -30.671875 17.46875 -30.171875 C 16.945312 -29.679688 16.191406 -28.9375 15.203125 -27.9375 C 11.867188 -24.5625 9.410156 -20.738281 7.828125 -16.46875 C 7.429688 -16.320312 6.644531 -16.109375 5.46875 -15.828125 C 4.300781 -15.554688 3.34375 -15.421875 2.59375 -15.421875 C 1.851562 -15.421875 1.222656 -15.492188 0.703125 -15.640625 C 0.179688 -15.796875 -0.546875 -16.046875 -1.484375 -16.390625 L -1.421875 -15.953125 C -0.972656 -15.648438 -0.648438 -15.4375 -0.453125 -15.3125 C -0.253906 -15.1875 -0.03125 -15.0625 0.21875 -14.9375 C 0.46875 -14.8125 0.703125 -14.660156 0.921875 -14.484375 C 1.148438 -14.316406 1.5625 -13.957031 2.15625 -13.40625 L 4.328125 -10.953125 C 5.421875 -10.210938 6.613281 -9.816406 7.90625 -9.765625 C 8.195312 -8.867188 8.617188 -8.097656 9.171875 -7.453125 C 10.015625 -6.460938 11.082031 -5.71875 12.375 -5.21875 L 14.90625 -2.6875 C 15.351562 -2.382812 15.710938 -2.144531 15.984375 -1.96875 C 16.253906 -1.800781 16.710938 -1.664062 17.359375 -1.5625 C 18.003906 -1.46875 18.738281 -1.441406 19.5625 -1.484375 C 20.382812 -1.535156 21.363281 -1.757812 22.5 -2.15625 C 23.644531 -2.550781 24.898438 -3.144531 26.265625 -3.9375 C 27.628906 -4.738281 28.597656 -5.382812 29.171875 -5.875 C 29.742188 -6.375 30.476562 -7.070312 31.375 -7.96875 L 31.96875 -8.640625 L 31.8125 -8.71875 L 32.046875 -9.09375 L 31.8125 -9.53125 C 31.519531 -9.488281 31.257812 -9.453125 31.03125 -9.421875 C 30.8125 -9.398438 29.609375 -8.925781 27.421875 -8 C 25.234375 -7.082031 23.421875 -6.472656 21.984375 -6.171875 C 20.546875 -5.878906 19.34375 -5.671875 18.375 -5.546875 C 17.40625 -5.421875 16.492188 -5.367188 15.640625 -5.390625 C 14.796875 -5.421875 14.25 -5.484375 14 -5.578125 C 13.757812 -5.679688 13.414062 -5.785156 12.96875 -5.890625 C 12.414062 -7.378906 12.265625 -8.894531 12.515625 -10.4375 C 14.109375 -10.925781 15.375 -11.320312 16.3125 -11.625 C 17.257812 -11.925781 18.664062 -12.484375 20.53125 -13.296875 C 22.394531 -14.117188 24.09375 -14.925781 25.625 -15.71875 C 27.164062 -16.519531 28.46875 -17.289062 29.53125 -18.03125 C 30.601562 -18.78125 31.363281 -19.351562 31.8125 -19.75 C 32.257812 -20.144531 32.90625 -20.691406 33.75 -21.390625 C 34.351562 -22.128906 34.765625 -22.644531 34.984375 -22.9375 C 35.210938 -23.238281 35.445312 -23.613281 35.6875 -24.0625 C 35.9375 -24.507812 36.097656 -24.992188 36.171875 -25.515625 C 36.253906 -26.035156 36.234375 -26.609375 36.109375 -27.234375 C 35.984375 -27.859375 35.769531 -28.414062 35.46875 -28.90625 C 35.164062 -29.40625 34.828125 -29.800781 34.453125 -30.09375 C 34.085938 -30.394531 33.554688 -30.921875 32.859375 -31.671875 C 32.160156 -32.265625 31.578125 -32.6875 31.109375 -32.9375 C 30.640625 -33.1875 30.09375 -33.429688 29.46875 -33.671875 C 28.851562 -33.921875 28.222656 -34.082031 27.578125 -34.15625 C 26.929688 -34.238281 26.53125 -34.253906 26.375 -34.203125 Z M 29.875 -31.59375 C 30.769531 -31.539062 31.59375 -31.316406 32.34375 -30.921875 C 32.34375 -30.671875 32.351562 -30.445312 32.375 -30.25 C 32.40625 -30.050781 32.296875 -29.71875 32.046875 -29.25 C 31.796875 -28.78125 31.445312 -28.359375 31 -27.984375 C 30.550781 -27.609375 29.851562 -26.925781 28.90625 -25.9375 C 27.570312 -24.789062 26.476562 -23.957031 25.625 -23.4375 C 24.78125 -22.914062 23.675781 -22.269531 22.3125 -21.5 C 20.945312 -20.726562 19.457031 -20.03125 17.84375 -19.40625 C 16.226562 -18.789062 15.347656 -18.484375 15.203125 -18.484375 C 15.054688 -18.484375 14.878906 -18.484375 14.671875 -18.484375 C 16.117188 -21.710938 18.132812 -24.59375 20.71875 -27.125 C 21.65625 -27.914062 22.347656 -28.519531 22.796875 -28.9375 C 23.242188 -29.363281 23.828125 -29.785156 24.546875 -30.203125 C 25.273438 -30.628906 25.972656 -30.96875 26.640625 -31.21875 C 27.304688 -31.46875 27.835938 -31.59375 28.234375 -31.59375 C 28.640625 -31.59375 29.164062 -31.617188 29.8125 -31.671875 Z M 29.875 -31.59375 "/></g></g></g><g fill="#ffffff" fill-opacity="1"><g transform="translate(151.460423, 237.703932)"><g><path d="M 12 -33.078125 C 11.695312 -32.679688 11.429688 -32.359375 11.203125 -32.109375 C 10.984375 -31.867188 10.578125 -31.25 9.984375 -30.25 C 9.390625 -29.257812 8.769531 -27.941406 8.125 -26.296875 C 7.476562 -24.660156 6.804688 -22.710938 6.109375 -20.453125 C 5.410156 -18.191406 4.800781 -16.03125 4.28125 -13.96875 C 3.757812 -11.90625 3.398438 -10.316406 3.203125 -9.203125 C 3.003906 -8.085938 2.929688 -7.226562 2.984375 -6.625 C 3.035156 -6.03125 3.097656 -5.671875 3.171875 -5.546875 C 3.242188 -5.421875 3.351562 -5.257812 3.5 -5.0625 C 3.851562 -4.914062 4.140625 -4.816406 4.359375 -4.765625 C 4.578125 -4.710938 4.875 -4.535156 5.25 -4.234375 C 5.625 -3.941406 6.257812 -3.425781 7.15625 -2.6875 L 9.171875 -0.296875 C 9.460938 -0.148438 9.671875 -0.0625 9.796875 -0.03125 C 9.921875 -0.0078125 10.09375 -0.0351562 10.3125 -0.109375 C 10.539062 -0.179688 10.726562 -0.28125 10.875 -0.40625 C 11.03125 -0.53125 11.253906 -0.71875 11.546875 -0.96875 C 12.097656 -1.957031 12.519531 -2.625 12.8125 -2.96875 C 13.113281 -3.320312 13.4375 -3.820312 13.78125 -4.46875 C 14.132812 -5.113281 14.484375 -6.117188 14.828125 -7.484375 C 15.171875 -8.847656 15.539062 -10.75 15.9375 -13.1875 C 16.34375 -15.625 16.71875 -17.5 17.0625 -18.8125 C 17.40625 -20.132812 17.726562 -21.21875 18.03125 -22.0625 C 18.332031 -22.90625 18.644531 -23.648438 18.96875 -24.296875 C 19.289062 -24.941406 19.660156 -25.4375 20.078125 -25.78125 C 20.503906 -26.125 21.113281 -26.742188 21.90625 -27.640625 C 22.695312 -28.191406 23.289062 -28.601562 23.6875 -28.875 C 24.09375 -29.144531 24.578125 -29.40625 25.140625 -29.65625 C 25.710938 -29.90625 26.085938 -30.015625 26.265625 -29.984375 C 26.441406 -29.960938 26.65625 -29.953125 26.90625 -29.953125 C 27.050781 -28.960938 27.207031 -28.15625 27.375 -27.53125 C 27.550781 -26.914062 27.703125 -25.695312 27.828125 -23.875 C 27.953125 -22.0625 28 -20.3125 27.96875 -18.625 C 27.945312 -16.9375 27.984375 -15.210938 28.078125 -13.453125 C 28.179688 -11.691406 28.332031 -10.25 28.53125 -9.125 C 28.738281 -8.007812 28.953125 -7.140625 29.171875 -6.515625 C 29.398438 -5.898438 29.597656 -5.441406 29.765625 -5.140625 C 29.941406 -4.835938 30.226562 -4.390625 30.625 -3.796875 C 31.375 -3.003906 32.144531 -2.359375 32.9375 -1.859375 L 33.75 -0.890625 C 34.394531 -0.597656 35.066406 -0.5 35.765625 -0.59375 L 36.140625 -0.96875 L 35.84375 -1.34375 C 34.75 -1.394531 33.78125 -1.71875 32.9375 -2.3125 C 32.789062 -2.90625 32.675781 -3.375 32.59375 -3.71875 C 32.519531 -4.070312 32.421875 -5.019531 32.296875 -6.5625 C 32.171875 -8.101562 32.117188 -10.5625 32.140625 -13.9375 C 32.171875 -17.3125 32.097656 -19.953125 31.921875 -21.859375 C 31.753906 -23.773438 31.546875 -25.179688 31.296875 -26.078125 C 31.046875 -26.972656 30.757812 -27.789062 30.4375 -28.53125 C 30.113281 -29.28125 29.789062 -29.800781 29.46875 -30.09375 C 29.144531 -30.394531 28.6875 -30.867188 28.09375 -31.515625 C 27.445312 -31.910156 26.960938 -32.257812 26.640625 -32.5625 C 26.316406 -32.863281 25.929688 -33.085938 25.484375 -33.234375 C 25.035156 -33.378906 24.488281 -33.398438 23.84375 -33.296875 C 23.195312 -33.203125 22.425781 -32.941406 21.53125 -32.515625 C 20.632812 -32.097656 19.691406 -31.566406 18.703125 -30.921875 C 17.710938 -30.273438 17.15625 -29.898438 17.03125 -29.796875 C 16.90625 -29.703125 16.742188 -29.582031 16.546875 -29.4375 C 16.546875 -29.582031 16.546875 -29.703125 16.546875 -29.796875 C 16.546875 -29.898438 16.59375 -30.023438 16.6875 -30.171875 C 16.789062 -30.328125 16.753906 -30.578125 16.578125 -30.921875 C 16.398438 -31.273438 16.195312 -31.535156 15.96875 -31.703125 C 15.75 -31.878906 15.421875 -32.21875 14.984375 -32.71875 C 14.429688 -32.957031 14.066406 -33.164062 13.890625 -33.34375 C 13.722656 -33.519531 13.550781 -33.59375 13.375 -33.5625 C 13.195312 -33.539062 13.007812 -33.554688 12.8125 -33.609375 Z M 12 -33.078125 "/></g></g></g><g fill="#ffffff" fill-opacity="1"><g transform="translate(189.087538, 237.703932)"><g><path d="M 27.71875 -47.6875 C 27.625 -47.632812 27.5625 -47.554688 27.53125 -47.453125 C 27.507812 -47.359375 27.296875 -46.863281 26.890625 -45.96875 C 26.492188 -45.082031 26 -43.566406 25.40625 -41.421875 C 24.8125 -39.285156 24.191406 -36.738281 23.546875 -33.78125 C 22.898438 -30.832031 22.503906 -28.8125 22.359375 -27.71875 C 22.304688 -27.71875 22.242188 -27.71875 22.171875 -27.71875 C 22.097656 -27.71875 21.738281 -27.960938 21.09375 -28.453125 C 20.445312 -28.953125 19.820312 -29.328125 19.21875 -29.578125 C 18.625 -29.828125 18.066406 -29.976562 17.546875 -30.03125 C 17.023438 -30.082031 16.515625 -30.09375 16.015625 -30.0625 C 15.523438 -30.039062 14.992188 -29.914062 14.421875 -29.6875 C 13.847656 -29.46875 13.285156 -29.195312 12.734375 -28.875 C 12.191406 -28.550781 11.695312 -28.203125 11.25 -27.828125 C 10.800781 -27.453125 10.253906 -26.894531 9.609375 -26.15625 C 8.765625 -25.007812 8.144531 -24.1875 7.75 -23.6875 C 7.351562 -23.195312 6.867188 -22.453125 6.296875 -21.453125 C 5.722656 -20.460938 5.1875 -19.347656 4.6875 -18.109375 C 4.195312 -16.867188 3.800781 -15.613281 3.5 -14.34375 C 3.207031 -13.070312 3.035156 -11.890625 2.984375 -10.796875 C 2.929688 -9.710938 2.96875 -8.859375 3.09375 -8.234375 C 3.21875 -7.609375 3.414062 -7.125 3.6875 -6.78125 C 3.957031 -6.4375 4.15625 -6.160156 4.28125 -5.953125 C 4.40625 -5.753906 4.617188 -5.535156 4.921875 -5.296875 C 5.515625 -5.046875 5.945312 -4.859375 6.21875 -4.734375 C 6.488281 -4.609375 6.734375 -4.445312 6.953125 -4.25 C 7.179688 -4.050781 7.546875 -3.753906 8.046875 -3.359375 L 10.203125 -0.96875 C 10.648438 -0.820312 11.007812 -0.671875 11.28125 -0.515625 C 11.5625 -0.367188 12.046875 -0.296875 12.734375 -0.296875 C 13.429688 -0.296875 14.066406 -0.378906 14.640625 -0.546875 C 15.210938 -0.722656 15.671875 -0.921875 16.015625 -1.140625 C 16.367188 -1.367188 16.816406 -1.6875 17.359375 -2.09375 C 17.953125 -2.632812 18.769531 -3.660156 19.8125 -5.171875 C 20.863281 -6.691406 21.6875 -8.046875 22.28125 -9.234375 C 22.375 -8.941406 22.484375 -8.71875 22.609375 -8.5625 C 22.734375 -8.414062 22.882812 -8.082031 23.0625 -7.5625 C 23.238281 -7.039062 23.507812 -6.46875 23.875 -5.84375 C 24.25 -5.226562 24.609375 -4.71875 24.953125 -4.3125 C 25.304688 -3.914062 25.804688 -3.296875 26.453125 -2.453125 C 27.691406 -1.316406 28.632812 -0.5 29.28125 0 C 29.925781 0.5 30.273438 0.75 30.328125 0.75 C 30.378906 0.75 30.429688 0.75 30.484375 0.75 C 29.734375 -0.144531 29.179688 -0.765625 28.828125 -1.109375 C 28.484375 -1.460938 28.1875 -1.972656 27.9375 -2.640625 C 27.695312 -3.316406 27.523438 -4.0625 27.421875 -4.875 C 27.316406 -5.695312 27.238281 -6.726562 27.1875 -7.96875 C 27.144531 -9.21875 27.171875 -10.769531 27.265625 -12.625 C 27.367188 -14.488281 27.566406 -16.695312 27.859375 -19.25 C 28.160156 -21.8125 28.570312 -24.375 29.09375 -26.9375 C 29.613281 -29.5 30.1875 -31.910156 30.8125 -34.171875 C 31.4375 -36.429688 31.921875 -38.164062 32.265625 -39.375 C 32.609375 -40.59375 32.867188 -41.550781 33.046875 -42.25 C 33.222656 -42.945312 33.132812 -43.519531 32.78125 -43.96875 C 32.4375 -44.414062 32.128906 -44.773438 31.859375 -45.046875 C 31.585938 -45.316406 31.128906 -45.75 30.484375 -46.34375 C 29.835938 -46.789062 29.398438 -47.101562 29.171875 -47.28125 C 28.953125 -47.457031 28.726562 -47.546875 28.5 -47.546875 C 28.28125 -47.546875 28.019531 -47.59375 27.71875 -47.6875 Z M 21.609375 -25.03125 C 21.660156 -24.4375 21.734375 -23.941406 21.828125 -23.546875 C 21.929688 -23.148438 21.882812 -22.019531 21.6875 -20.15625 C 21.488281 -18.289062 21.507812 -16.625 21.75 -15.15625 C 22 -13.695312 21.898438 -12.707031 21.453125 -12.1875 C 21.015625 -11.664062 20.394531 -10.78125 19.59375 -9.53125 C 18.851562 -8.84375 18.304688 -8.3125 17.953125 -7.9375 C 17.609375 -7.5625 17.125 -7.210938 16.5 -6.890625 C 15.882812 -6.566406 15.113281 -6.207031 14.1875 -5.8125 C 13.269531 -5.414062 12.476562 -5.15625 11.8125 -5.03125 C 11.144531 -4.90625 10.648438 -4.84375 10.328125 -4.84375 C 10.003906 -4.84375 9.519531 -4.867188 8.875 -4.921875 C 8.914062 -5.910156 8.925781 -6.628906 8.90625 -7.078125 C 8.882812 -7.523438 8.984375 -8.28125 9.203125 -9.34375 C 9.421875 -10.414062 9.78125 -11.582031 10.28125 -12.84375 C 10.78125 -14.113281 11.328125 -15.320312 11.921875 -16.46875 C 12.515625 -17.613281 13.132812 -18.617188 13.78125 -19.484375 C 14.425781 -20.359375 14.945312 -20.992188 15.34375 -21.390625 C 15.75 -21.785156 16.347656 -22.378906 17.140625 -23.171875 C 17.878906 -23.671875 18.4375 -24.046875 18.8125 -24.296875 C 19.1875 -24.546875 19.660156 -24.753906 20.234375 -24.921875 C 20.804688 -25.097656 21.140625 -25.160156 21.234375 -25.109375 C 21.335938 -25.054688 21.460938 -25.03125 21.609375 -25.03125 Z M 21.609375 -25.03125 "/></g></g></g><g fill="#ffffff" fill-opacity="1"><g transform="translate(222.244113, 237.703932)"><g><path d="M 15.046875 -34.28125 C 14.597656 -34.175781 14.222656 -34.097656 13.921875 -34.046875 C 13.628906 -34.003906 13.25 -33.867188 12.78125 -33.640625 C 12.3125 -33.421875 11.898438 -33.160156 11.546875 -32.859375 C 11.203125 -32.566406 10.632812 -32.117188 9.84375 -31.515625 C 9.039062 -30.671875 8.453125 -30.035156 8.078125 -29.609375 C 7.710938 -29.191406 7.242188 -28.484375 6.671875 -27.484375 C 6.097656 -26.492188 5.535156 -25.414062 4.984375 -24.25 C 4.441406 -23.082031 3.929688 -21.816406 3.453125 -20.453125 C 2.984375 -19.085938 2.675781 -17.769531 2.53125 -16.5 C 2.382812 -15.238281 2.285156 -13.960938 2.234375 -12.671875 C 2.179688 -11.378906 2.265625 -10.382812 2.484375 -9.6875 C 2.710938 -8.988281 2.9375 -8.488281 3.15625 -8.1875 C 3.382812 -7.894531 3.695312 -7.425781 4.09375 -6.78125 C 4.9375 -5.882812 5.957031 -5.210938 7.15625 -4.765625 C 8 -3.828125 8.867188 -2.859375 9.765625 -1.859375 C 10.210938 -1.515625 10.582031 -1.265625 10.875 -1.109375 C 11.175781 -0.960938 11.625 -0.789062 12.21875 -0.59375 C 12.8125 -0.394531 13.59375 -0.296875 14.5625 -0.296875 C 15.53125 -0.296875 16.472656 -0.421875 17.390625 -0.671875 C 18.316406 -0.921875 19.125 -1.226562 19.8125 -1.59375 C 20.507812 -1.96875 21.082031 -2.328125 21.53125 -2.671875 C 21.976562 -3.023438 22.578125 -3.523438 23.328125 -4.171875 C 23.773438 -4.765625 24.109375 -5.171875 24.328125 -5.390625 C 24.554688 -5.617188 24.78125 -5.941406 25 -6.359375 C 25.21875 -6.785156 25.328125 -7.132812 25.328125 -7.40625 C 25.328125 -7.6875 25.300781 -7.847656 25.25 -7.890625 C 25.207031 -7.941406 25.160156 -8.019531 25.109375 -8.125 L 24.296875 -7.828125 L 24.296875 -8.125 C 23.003906 -7.476562 21.910156 -6.976562 21.015625 -6.625 C 20.117188 -6.28125 19.160156 -5.984375 18.140625 -5.734375 C 17.117188 -5.484375 16.023438 -5.269531 14.859375 -5.09375 C 13.691406 -4.925781 12.425781 -4.890625 11.0625 -4.984375 C 9.695312 -5.085938 8.925781 -5.148438 8.75 -5.171875 C 8.582031 -5.203125 8.421875 -5.242188 8.265625 -5.296875 C 8.171875 -6.335938 8.097656 -7.09375 8.046875 -7.5625 C 7.992188 -8.03125 7.976562 -8.695312 8 -9.5625 C 8.03125 -10.4375 8.144531 -11.503906 8.34375 -12.765625 C 8.539062 -14.035156 8.890625 -15.425781 9.390625 -16.9375 C 9.890625 -18.457031 10.410156 -19.828125 10.953125 -21.046875 C 11.503906 -22.265625 11.988281 -23.207031 12.40625 -23.875 C 12.832031 -24.550781 13.191406 -25.070312 13.484375 -25.4375 C 13.785156 -25.8125 14.234375 -26.445312 14.828125 -27.34375 C 15.523438 -27.894531 16.070312 -28.316406 16.46875 -28.609375 C 16.863281 -28.910156 17.367188 -29.195312 17.984375 -29.46875 C 18.609375 -29.738281 19.191406 -29.898438 19.734375 -29.953125 C 20.285156 -30.003906 20.671875 -30.003906 20.890625 -29.953125 C 21.117188 -29.898438 21.457031 -29.875 21.90625 -29.875 C 22.25 -29.03125 22.375 -28.1875 22.28125 -27.34375 C 22.375 -27.59375 22.472656 -27.890625 22.578125 -28.234375 C 22.722656 -27.796875 22.695312 -27.425781 22.5 -27.125 C 23.050781 -26.332031 23.722656 -26.207031 24.515625 -26.75 C 24.710938 -27.050781 24.835938 -27.25 24.890625 -27.34375 C 24.941406 -27.445312 24.953125 -27.617188 24.921875 -27.859375 C 24.898438 -28.109375 24.789062 -28.34375 24.59375 -28.5625 C 24.394531 -28.789062 24.171875 -29.15625 23.921875 -29.65625 C 23.171875 -30.40625 22.609375 -30.976562 22.234375 -31.375 C 21.867188 -31.769531 21.273438 -32.210938 20.453125 -32.703125 C 19.628906 -33.203125 18.859375 -33.585938 18.140625 -33.859375 C 17.421875 -34.140625 16.882812 -34.265625 16.53125 -34.234375 C 16.1875 -34.210938 15.691406 -34.226562 15.046875 -34.28125 Z M 15.046875 -34.28125 "/></g></g></g><g fill="#ffffff" fill-opacity="1"><g transform="translate(249.812492, 237.703932)"><g><path d="M 19.21875 -34.28125 C 18.769531 -34.226562 18.382812 -34.148438 18.0625 -34.046875 C 17.738281 -33.953125 17.28125 -33.71875 16.6875 -33.34375 C 16.09375 -32.96875 15.582031 -32.59375 15.15625 -32.21875 C 14.738281 -31.851562 14.132812 -31.296875 13.34375 -30.546875 C 12.394531 -29.359375 11.679688 -28.503906 11.203125 -27.984375 C 10.734375 -27.460938 10.1875 -26.640625 9.5625 -25.515625 C 8.945312 -24.398438 8.300781 -23.195312 7.625 -21.90625 C 6.957031 -20.613281 6.226562 -18.960938 5.4375 -16.953125 C 4.644531 -14.941406 4.171875 -13.425781 4.015625 -12.40625 C 3.867188 -11.382812 3.78125 -10.488281 3.75 -9.71875 C 3.726562 -8.945312 3.78125 -8.425781 3.90625 -8.15625 C 4.03125 -7.882812 4.242188 -7.453125 4.546875 -6.859375 C 4.941406 -6.503906 5.25 -6.253906 5.46875 -6.109375 C 5.695312 -5.960938 5.957031 -5.835938 6.25 -5.734375 C 6.550781 -5.640625 6.828125 -5.441406 7.078125 -5.140625 C 7.328125 -4.835938 7.773438 -4.363281 8.421875 -3.71875 L 9.90625 -1.71875 C 10.300781 -1.46875 10.648438 -1.265625 10.953125 -1.109375 C 11.253906 -0.960938 11.710938 -0.890625 12.328125 -0.890625 C 12.953125 -0.890625 13.472656 -0.976562 13.890625 -1.15625 C 14.316406 -1.332031 14.851562 -1.59375 15.5 -1.9375 L 15.640625 -2.234375 L 16.390625 -2.609375 C 16.941406 -3.253906 17.363281 -3.785156 17.65625 -4.203125 C 17.957031 -4.628906 18.46875 -5.472656 19.1875 -6.734375 C 19.90625 -8.003906 20.390625 -8.800781 20.640625 -9.125 C 20.890625 -9.445312 21.140625 -9.832031 21.390625 -10.28125 C 21.878906 -8.050781 22.820312 -6.1875 24.21875 -4.6875 L 26.296875 -2.90625 L 27.203125 -1.78125 C 27.796875 -1.4375 28.226562 -1.1875 28.5 -1.03125 C 28.769531 -0.882812 29.03125 -0.8125 29.28125 -0.8125 C 29.53125 -0.8125 29.851562 -0.835938 30.25 -0.890625 L 30.40625 -1.1875 C 30.25 -1.238281 30.132812 -1.3125 30.0625 -1.40625 C 29.988281 -1.507812 29.65625 -1.671875 29.0625 -1.890625 C 28.46875 -2.117188 28.007812 -2.332031 27.6875 -2.53125 C 27.363281 -2.726562 26.925781 -3.003906 26.375 -3.359375 C 26.125 -3.703125 25.9375 -3.972656 25.8125 -4.171875 C 25.695312 -4.367188 25.5 -4.878906 25.21875 -5.703125 C 24.945312 -6.523438 24.773438 -7.476562 24.703125 -8.5625 C 24.628906 -9.65625 24.613281 -10.859375 24.65625 -12.171875 C 24.707031 -13.492188 24.984375 -15.257812 25.484375 -17.46875 C 25.984375 -19.6875 26.378906 -21.316406 26.671875 -22.359375 C 26.972656 -23.398438 27.160156 -23.992188 27.234375 -24.140625 C 27.304688 -24.285156 27.367188 -24.410156 27.421875 -24.515625 L 26.828125 -25.40625 C 26.273438 -26.101562 25.628906 -26.625 24.890625 -26.96875 L 24.59375 -26.75 C 24.34375 -26.207031 24.101562 -25.773438 23.875 -25.453125 C 23.65625 -25.128906 23.410156 -24.492188 23.140625 -23.546875 C 22.867188 -22.597656 22.507812 -21.15625 22.0625 -19.21875 C 21.613281 -17.28125 20.925781 -15.640625 20 -14.296875 C 19.082031 -12.960938 18.410156 -12.054688 17.984375 -11.578125 C 17.566406 -11.109375 17.007812 -10.503906 16.3125 -9.765625 C 15.570312 -9.210938 14.953125 -8.785156 14.453125 -8.484375 C 13.953125 -8.191406 13.128906 -7.75 11.984375 -7.15625 C 10.847656 -6.5625 10.191406 -6.265625 10.015625 -6.265625 C 9.847656 -6.265625 9.664062 -6.265625 9.46875 -6.265625 C 9.46875 -6.710938 9.488281 -7.097656 9.53125 -7.421875 C 9.582031 -7.742188 9.832031 -8.597656 10.28125 -9.984375 C 10.726562 -11.378906 11.300781 -12.820312 12 -14.3125 C 12.695312 -15.800781 13.578125 -17.523438 14.640625 -19.484375 C 15.710938 -21.441406 16.507812 -22.679688 17.03125 -23.203125 C 17.550781 -23.734375 18.28125 -24.566406 19.21875 -25.703125 C 20.3125 -26.703125 21.53125 -27.546875 22.875 -28.234375 L 23.03125 -27.640625 L 23.25 -27.640625 L 23.390625 -27.5 C 23.742188 -27.5 24.03125 -27.5 24.25 -27.5 C 24.476562 -27.5 24.675781 -27.519531 24.84375 -27.5625 C 25.019531 -27.613281 25.179688 -27.640625 25.328125 -27.640625 C 25.484375 -27.640625 25.660156 -27.59375 25.859375 -27.5 L 26.078125 -27.875 C 25.828125 -28.46875 25.628906 -28.9375 25.484375 -29.28125 C 25.335938 -29.632812 25.085938 -29.972656 24.734375 -30.296875 C 24.390625 -30.617188 23.820312 -31.25 23.03125 -32.1875 C 22.28125 -32.738281 21.753906 -33.148438 21.453125 -33.421875 C 21.160156 -33.691406 20.800781 -33.898438 20.375 -34.046875 C 19.957031 -34.203125 19.707031 -34.265625 19.625 -34.234375 C 19.550781 -34.210938 19.414062 -34.226562 19.21875 -34.28125 Z M 19.21875 -34.28125 "/></g></g></g><g fill="#ffffff" fill-opacity="1"><g transform="translate(281.702414, 237.703932)"><g><path d="M 7.15625 -34.125 C 7.050781 -34.03125 6.988281 -33.894531 6.96875 -33.71875 C 6.945312 -33.539062 7.046875 -33.253906 7.265625 -32.859375 C 7.484375 -32.460938 7.53125 -31.804688 7.40625 -30.890625 C 7.289062 -29.972656 7.03125 -28.332031 6.625 -25.96875 C 6.226562 -23.601562 5.90625 -21.191406 5.65625 -18.734375 C 5.414062 -16.273438 5.269531 -14.140625 5.21875 -12.328125 C 5.164062 -10.515625 5.164062 -8.910156 5.21875 -7.515625 C 5.269531 -6.128906 5.304688 -5.335938 5.328125 -5.140625 C 5.347656 -4.941406 5.410156 -4.742188 5.515625 -4.546875 C 5.765625 -4.441406 5.9375 -4.363281 6.03125 -4.3125 C 6.132812 -4.269531 6.3125 -4.210938 6.5625 -4.140625 C 6.8125 -4.066406 7.109375 -3.867188 7.453125 -3.546875 C 7.796875 -3.222656 8.34375 -2.660156 9.09375 -1.859375 L 10.8125 0 C 11.050781 -1.144531 11.21875 -2.023438 11.3125 -2.640625 C 11.414062 -3.265625 11.53125 -4.296875 11.65625 -5.734375 C 11.78125 -7.179688 12.066406 -8.796875 12.515625 -10.578125 C 12.960938 -12.367188 13.210938 -14.007812 13.265625 -15.5 C 13.316406 -16.988281 13.328125 -18.128906 13.296875 -18.921875 C 13.273438 -19.722656 13.328125 -20.195312 13.453125 -20.34375 C 13.578125 -20.488281 13.738281 -20.660156 13.9375 -20.859375 C 14.925781 -21.160156 15.679688 -21.375 16.203125 -21.5 C 16.722656 -21.625 17.234375 -21.847656 17.734375 -22.171875 C 18.234375 -22.492188 18.664062 -22.835938 19.03125 -23.203125 C 19.40625 -23.578125 19.96875 -24.113281 20.71875 -24.8125 C 21.257812 -25.65625 21.65625 -26.25 21.90625 -26.59375 C 22.15625 -26.945312 22.390625 -27.429688 22.609375 -28.046875 C 22.835938 -28.671875 22.953125 -29.378906 22.953125 -30.171875 C 22.953125 -30.972656 22.875 -31.507812 22.71875 -31.78125 C 22.570312 -32.050781 22.453125 -32.363281 22.359375 -32.71875 L 21.6875 -32.78125 C 20.738281 -31.894531 19.953125 -31.1875 19.328125 -30.65625 C 18.710938 -30.132812 17.894531 -29.414062 16.875 -28.5 C 15.851562 -27.582031 15.253906 -27.0625 15.078125 -26.9375 C 14.910156 -26.8125 14.675781 -26.597656 14.375 -26.296875 L 14.078125 -26.375 C 14.035156 -26.96875 14.023438 -27.398438 14.046875 -27.671875 C 14.066406 -27.953125 13.953125 -28.351562 13.703125 -28.875 C 13.460938 -29.394531 13.140625 -29.828125 12.734375 -30.171875 C 12.335938 -30.523438 11.796875 -31.125 11.109375 -31.96875 C 10.359375 -32.507812 9.785156 -32.90625 9.390625 -33.15625 C 8.992188 -33.40625 8.570312 -33.640625 8.125 -33.859375 C 7.675781 -34.085938 7.414062 -34.1875 7.34375 -34.15625 C 7.269531 -34.132812 7.207031 -34.125 7.15625 -34.125 Z M 7.15625 -34.125 "/></g></g></g><g fill="#ffffff" fill-opacity="1"><g transform="translate(304.65124, 237.703932)"><g><path d="M 27.71875 -47.6875 C 27.625 -47.632812 27.5625 -47.554688 27.53125 -47.453125 C 27.507812 -47.359375 27.296875 -46.863281 26.890625 -45.96875 C 26.492188 -45.082031 26 -43.566406 25.40625 -41.421875 C 24.8125 -39.285156 24.191406 -36.738281 23.546875 -33.78125 C 22.898438 -30.832031 22.503906 -28.8125 22.359375 -27.71875 C 22.304688 -27.71875 22.242188 -27.71875 22.171875 -27.71875 C 22.097656 -27.71875 21.738281 -27.960938 21.09375 -28.453125 C 20.445312 -28.953125 19.820312 -29.328125 19.21875 -29.578125 C 18.625 -29.828125 18.066406 -29.976562 17.546875 -30.03125 C 17.023438 -30.082031 16.515625 -30.09375 16.015625 -30.0625 C 15.523438 -30.039062 14.992188 -29.914062 14.421875 -29.6875 C 13.847656 -29.46875 13.285156 -29.195312 12.734375 -28.875 C 12.191406 -28.550781 11.695312 -28.203125 11.25 -27.828125 C 10.800781 -27.453125 10.253906 -26.894531 9.609375 -26.15625 C 8.765625 -25.007812 8.144531 -24.1875 7.75 -23.6875 C 7.351562 -23.195312 6.867188 -22.453125 6.296875 -21.453125 C 5.722656 -20.460938 5.1875 -19.347656 4.6875 -18.109375 C 4.195312 -16.867188 3.800781 -15.613281 3.5 -14.34375 C 3.207031 -13.070312 3.035156 -11.890625 2.984375 -10.796875 C 2.929688 -9.710938 2.96875 -8.859375 3.09375 -8.234375 C 3.21875 -7.609375 3.414062 -7.125 3.6875 -6.78125 C 3.957031 -6.4375 4.15625 -6.160156 4.28125 -5.953125 C 4.40625 -5.753906 4.617188 -5.535156 4.921875 -5.296875 C 5.515625 -5.046875 5.945312 -4.859375 6.21875 -4.734375 C 6.488281 -4.609375 6.734375 -4.445312 6.953125 -4.25 C 7.179688 -4.050781 7.546875 -3.753906 8.046875 -3.359375 L 10.203125 -0.96875 C 10.648438 -0.820312 11.007812 -0.671875 11.28125 -0.515625 C 11.5625 -0.367188 12.046875 -0.296875 12.734375 -0.296875 C 13.429688 -0.296875 14.066406 -0.378906 14.640625 -0.546875 C 15.210938 -0.722656 15.671875 -0.921875 16.015625 -1.140625 C 16.367188 -1.367188 16.816406 -1.6875 17.359375 -2.09375 C 17.953125 -2.632812 18.769531 -3.660156 19.8125 -5.171875 C 20.863281 -6.691406 21.6875 -8.046875 22.28125 -9.234375 C 22.375 -8.941406 22.484375 -8.71875 22.609375 -8.5625 C 22.734375 -8.414062 22.882812 -8.082031 23.0625 -7.5625 C 23.238281 -7.039062 23.507812 -6.46875 23.875 -5.84375 C 24.25 -5.226562 24.609375 -4.71875 24.953125 -4.3125 C 25.304688 -3.914062 25.804688 -3.296875 26.453125 -2.453125 C 27.691406 -1.316406 28.632812 -0.5 29.28125 0 C 29.925781 0.5 30.273438 0.75 30.328125 0.75 C 30.378906 0.75 30.429688 0.75 30.484375 0.75 C 29.734375 -0.144531 29.179688 -0.765625 28.828125 -1.109375 C 28.484375 -1.460938 28.1875 -1.972656 27.9375 -2.640625 C 27.695312 -3.316406 27.523438 -4.0625 27.421875 -4.875 C 27.316406 -5.695312 27.238281 -6.726562 27.1875 -7.96875 C 27.144531 -9.21875 27.171875 -10.769531 27.265625 -12.625 C 27.367188 -14.488281 27.566406 -16.695312 27.859375 -19.25 C 28.160156 -21.8125 28.570312 -24.375 29.09375 -26.9375 C 29.613281 -29.5 30.1875 -31.910156 30.8125 -34.171875 C 31.4375 -36.429688 31.921875 -38.164062 32.265625 -39.375 C 32.609375 -40.59375 32.867188 -41.550781 33.046875 -42.25 C 33.222656 -42.945312 33.132812 -43.519531 32.78125 -43.96875 C 32.4375 -44.414062 32.128906 -44.773438 31.859375 -45.046875 C 31.585938 -45.316406 31.128906 -45.75 30.484375 -46.34375 C 29.835938 -46.789062 29.398438 -47.101562 29.171875 -47.28125 C 28.953125 -47.457031 28.726562 -47.546875 28.5 -47.546875 C 28.28125 -47.546875 28.019531 -47.59375 27.71875 -47.6875 Z M 21.609375 -25.03125 C 21.660156 -24.4375 21.734375 -23.941406 21.828125 -23.546875 C 21.929688 -23.148438 21.882812 -22.019531 21.6875 -20.15625 C 21.488281 -18.289062 21.507812 -16.625 21.75 -15.15625 C 22 -13.695312 21.898438 -12.707031 21.453125 -12.1875 C 21.015625 -11.664062 20.394531 -10.78125 19.59375 -9.53125 C 18.851562 -8.84375 18.304688 -8.3125 17.953125 -7.9375 C 17.609375 -7.5625 17.125 -7.210938 16.5 -6.890625 C 15.882812 -6.566406 15.113281 -6.207031 14.1875 -5.8125 C 13.269531 -5.414062 12.476562 -5.15625 11.8125 -5.03125 C 11.144531 -4.90625 10.648438 -4.84375 10.328125 -4.84375 C 10.003906 -4.84375 9.519531 -4.867188 8.875 -4.921875 C 8.914062 -5.910156 8.925781 -6.628906 8.90625 -7.078125 C 8.882812 -7.523438 8.984375 -8.28125 9.203125 -9.34375 C 9.421875 -10.414062 9.78125 -11.582031 10.28125 -12.84375 C 10.78125 -14.113281 11.328125 -15.320312 11.921875 -16.46875 C 12.515625 -17.613281 13.132812 -18.617188 13.78125 -19.484375 C 14.425781 -20.359375 14.945312 -20.992188 15.34375 -21.390625 C 15.75 -21.785156 16.347656 -22.378906 17.140625 -23.171875 C 17.878906 -23.671875 18.4375 -24.046875 18.8125 -24.296875 C 19.1875 -24.546875 19.660156 -24.753906 20.234375 -24.921875 C 20.804688 -25.097656 21.140625 -25.160156 21.234375 -25.109375 C 21.335938 -25.054688 21.460938 -25.03125 21.609375 -25.03125 Z M 21.609375 -25.03125 "/></g></g></g><g fill="#ffffff" fill-opacity="1"><g transform="translate(77.720937, 292.050455)"><g><path d="M 20.40625 -43.140625 C 21.570312 -43.046875 22.664062 -42.851562 23.6875 -42.5625 C 24.707031 -42.269531 25.703125 -41.734375 26.671875 -40.953125 C 28.078125 -39.785156 28.804688 -38.597656 28.859375 -37.390625 C 28.953125 -36.953125 28.90625 -36.734375 28.71875 -36.734375 C 28.613281 -36.734375 28.425781 -36.78125 28.15625 -36.875 C 27.894531 -36.96875 27.570312 -37.140625 27.1875 -37.390625 C 26.019531 -38.117188 24.9375 -38.664062 23.9375 -39.03125 C 22.945312 -39.394531 21.769531 -39.578125 20.40625 -39.578125 C 18.894531 -39.578125 17.554688 -39.304688 16.390625 -38.765625 C 15.222656 -38.234375 14.191406 -37.503906 13.296875 -36.578125 C 12.398438 -35.660156 11.609375 -34.617188 10.921875 -33.453125 C 10.242188 -32.285156 9.640625 -31.070312 9.109375 -29.8125 C 9.109375 -29.664062 9.054688 -29.492188 8.953125 -29.296875 C 8.859375 -29.097656 8.789062 -29 8.75 -29 C 8.644531 -28.757812 8.554688 -28.503906 8.484375 -28.234375 C 8.410156 -27.972656 8.328125 -27.695312 8.234375 -27.40625 C 7.703125 -25.507812 7.289062 -23.625 7 -21.75 C 6.707031 -19.882812 6.5625 -17.929688 6.5625 -15.890625 C 6.5625 -15.253906 6.609375 -14.289062 6.703125 -13 C 6.796875 -11.71875 7.015625 -10.421875 7.359375 -9.109375 C 7.703125 -7.796875 8.164062 -6.65625 8.75 -5.6875 C 9.332031 -4.71875 10.082031 -4.234375 11 -4.234375 C 12.019531 -4.234375 13.0625 -4.664062 14.125 -5.53125 C 15.195312 -6.40625 16.207031 -7.460938 17.15625 -8.703125 C 18.101562 -9.941406 18.941406 -11.21875 19.671875 -12.53125 C 20.398438 -13.84375 20.960938 -14.910156 21.359375 -15.734375 C 22.515625 -18.359375 23.019531 -20.0625 22.875 -20.84375 C 22.832031 -20.988281 21.742188 -21.109375 19.609375 -21.203125 C 18.484375 -21.253906 17.519531 -21.289062 16.71875 -21.3125 C 15.914062 -21.34375 15.273438 -21.40625 14.796875 -21.5 C 12.992188 -21.789062 12.992188 -22.273438 14.796875 -22.953125 C 15.378906 -23.242188 16.15625 -23.484375 17.125 -23.671875 C 18.09375 -23.867188 19.125 -24.03125 20.21875 -24.15625 C 21.3125 -24.28125 22.390625 -24.363281 23.453125 -24.40625 C 24.523438 -24.457031 25.453125 -24.484375 26.234375 -24.484375 C 27.597656 -24.484375 28.59375 -24.410156 29.21875 -24.265625 C 29.800781 -24.117188 30.09375 -23.65625 30.09375 -22.875 C 30.09375 -22.445312 30.070312 -22.179688 30.03125 -22.078125 C 29.78125 -21.691406 29.460938 -21.425781 29.078125 -21.28125 C 28.734375 -21.1875 28.175781 -21.160156 27.40625 -21.203125 C 26.675781 -21.203125 26.257812 -21.082031 26.15625 -20.84375 C 26.0625 -20.644531 26.085938 -19.625 26.234375 -17.78125 C 26.328125 -16.8125 26.398438 -15.835938 26.453125 -14.859375 C 26.503906 -13.890625 26.550781 -12.992188 26.59375 -12.171875 C 26.644531 -11.878906 26.679688 -11.332031 26.703125 -10.53125 C 26.734375 -9.726562 26.769531 -8.695312 26.8125 -7.4375 C 26.8125 -4.03125 26.71875 -2.109375 26.53125 -1.671875 C 26.1875 -0.941406 25.578125 -0.648438 24.703125 -0.796875 C 23.921875 -0.847656 23.457031 -1.191406 23.3125 -1.828125 C 23.21875 -2.210938 23.144531 -2.925781 23.09375 -3.96875 C 23.050781 -5.007812 23.003906 -6.457031 22.953125 -8.3125 L 22.875 -13.125 L 22.296875 -11.953125 C 21.671875 -10.734375 21.085938 -9.6875 20.546875 -8.8125 C 20.015625 -7.9375 19.515625 -7.160156 19.046875 -6.484375 C 18.585938 -5.804688 18.140625 -5.210938 17.703125 -4.703125 C 17.265625 -4.191406 16.804688 -3.691406 16.328125 -3.203125 C 15.253906 -2.234375 14.328125 -1.585938 13.546875 -1.265625 C 12.773438 -0.953125 11.757812 -0.796875 10.5 -0.796875 C 9.1875 -0.796875 8.257812 -1.015625 7.71875 -1.453125 C 6.601562 -2.179688 5.707031 -3.25 5.03125 -4.65625 C 4.351562 -6.070312 3.867188 -7.382812 3.578125 -8.59375 C 3.472656 -8.988281 3.394531 -9.367188 3.34375 -9.734375 C 3.300781 -10.097656 3.28125 -10.425781 3.28125 -10.71875 C 3.226562 -11.007812 3.15625 -11.554688 3.0625 -12.359375 C 2.96875 -13.160156 2.921875 -14.238281 2.921875 -15.59375 C 2.921875 -17.632812 3.050781 -19.820312 3.3125 -22.15625 C 3.582031 -24.488281 4.054688 -26.757812 4.734375 -28.96875 C 5.410156 -31.175781 6.320312 -33.25 7.46875 -35.1875 C 8.613281 -37.132812 10.082031 -38.765625 11.875 -40.078125 C 13.332031 -41.046875 14.664062 -41.796875 15.875 -42.328125 C 17.09375 -42.867188 18.601562 -43.140625 20.40625 -43.140625 Z M 20.40625 -43.140625 "/></g></g></g><g fill="#ffffff" fill-opacity="1"><g transform="translate(110.365694, 292.050455)"><g><path d="M 11.59375 -26.15625 C 11.925781 -26.207031 12.441406 -26.234375 13.140625 -26.234375 C 13.847656 -26.234375 14.347656 -26.207031 14.640625 -26.15625 C 15.515625 -25.863281 16.414062 -25.234375 17.34375 -24.265625 C 18.019531 -23.535156 18.476562 -22.832031 18.71875 -22.15625 C 18.96875 -21.476562 19.09375 -20.601562 19.09375 -19.53125 C 19.09375 -17.488281 18.582031 -15.847656 17.5625 -14.609375 C 16.539062 -13.367188 15.253906 -12.191406 13.703125 -11.078125 C 13.023438 -10.585938 12.160156 -10.0625 11.109375 -9.5 C 10.066406 -8.945312 9.109375 -8.671875 8.234375 -8.671875 C 8.035156 -8.671875 7.863281 -8.679688 7.71875 -8.703125 C 7.570312 -8.734375 7.40625 -8.769531 7.21875 -8.8125 C 7.070312 -8.863281 6.851562 -8.890625 6.5625 -8.890625 L 6.1875 -8.890625 L 6.265625 -8.53125 C 6.503906 -7.457031 6.914062 -6.445312 7.5 -5.5 C 8.082031 -4.550781 8.9375 -3.910156 10.0625 -3.578125 C 10.25 -3.523438 10.488281 -3.484375 10.78125 -3.453125 C 11.070312 -3.429688 11.460938 -3.421875 11.953125 -3.421875 C 13.796875 -3.421875 15.335938 -3.695312 16.578125 -4.25 C 17.816406 -4.8125 19.164062 -5.65625 20.625 -6.78125 C 21.882812 -7.800781 22.851562 -8.3125 23.53125 -8.3125 C 23.96875 -8.3125 24.285156 -8.164062 24.484375 -7.875 C 24.628906 -7.582031 24.640625 -7.265625 24.515625 -6.921875 C 24.398438 -6.578125 24.050781 -6.066406 23.46875 -5.390625 C 22.738281 -4.566406 21.898438 -3.8125 20.953125 -3.125 C 20.003906 -2.445312 18.992188 -1.851562 17.921875 -1.34375 C 16.859375 -0.832031 15.753906 -0.429688 14.609375 -0.140625 C 13.472656 0.148438 12.34375 0.296875 11.21875 0.296875 C 9.320312 0.296875 7.726562 -0.296875 6.4375 -1.484375 C 5.15625 -2.679688 4.128906 -4.101562 3.359375 -5.75 C 2.867188 -6.769531 2.578125 -8.328125 2.484375 -10.421875 C 2.378906 -12.992188 2.703125 -15.347656 3.453125 -17.484375 C 4.210938 -19.628906 5.394531 -21.550781 7 -23.25 C 7.726562 -24.070312 8.476562 -24.703125 9.25 -25.140625 C 10.03125 -25.578125 10.8125 -25.914062 11.59375 -26.15625 Z M 13.84375 -22.734375 C 13.507812 -22.828125 13.070312 -22.828125 12.53125 -22.734375 C 11.507812 -22.546875 10.644531 -22.097656 9.9375 -21.390625 C 9.238281 -20.679688 8.632812 -19.851562 8.125 -18.90625 C 7.613281 -17.957031 7.222656 -16.960938 6.953125 -15.921875 C 6.691406 -14.878906 6.488281 -13.921875 6.34375 -13.046875 C 6.050781 -11.148438 6.070312 -10.175781 6.40625 -10.125 L 6.484375 -10.125 C 7.015625 -10.125 7.753906 -10.414062 8.703125 -11 C 9.648438 -11.582031 10.609375 -12.273438 11.578125 -13.078125 C 12.554688 -13.878906 13.457031 -14.71875 14.28125 -15.59375 C 15.101562 -16.46875 15.613281 -17.222656 15.8125 -17.859375 C 16.195312 -18.828125 16.296875 -19.703125 16.109375 -20.484375 C 15.910156 -21.160156 15.648438 -21.664062 15.328125 -22 C 15.015625 -22.34375 14.519531 -22.585938 13.84375 -22.734375 Z M 13.84375 -22.734375 "/></g></g></g><g fill="#ffffff" fill-opacity="1"><g transform="translate(133.756248, 292.050455)"><g><path d="M 16.46875 -26.15625 C 17.4375 -26.257812 18.238281 -26.09375 18.875 -25.65625 C 19.84375 -24.96875 20.425781 -23.847656 20.625 -22.296875 C 20.71875 -21.765625 20.773438 -20.828125 20.796875 -19.484375 C 20.828125 -18.148438 20.867188 -16.390625 20.921875 -14.203125 C 20.921875 -12.023438 20.929688 -10.144531 20.953125 -8.5625 C 20.972656 -6.976562 21.035156 -6.140625 21.140625 -6.046875 C 21.035156 -5.992188 21.082031 -6.015625 21.28125 -6.109375 C 21.476562 -6.210938 21.722656 -6.507812 22.015625 -7 C 22.734375 -7.875 23.363281 -8.3125 23.90625 -8.3125 C 24.238281 -8.3125 24.515625 -8.222656 24.734375 -8.046875 C 24.953125 -7.878906 25.0625 -7.722656 25.0625 -7.578125 C 25.0625 -7.191406 24.804688 -6.535156 24.296875 -5.609375 C 23.785156 -4.691406 23.191406 -3.757812 22.515625 -2.8125 C 21.835938 -1.863281 21.15625 -1.007812 20.46875 -0.25 C 19.789062 0.5 19.285156 0.898438 18.953125 0.953125 C 18.515625 0.953125 18.171875 0.734375 17.921875 0.296875 L 17.78125 0.078125 L 17.78125 -11.21875 C 17.78125 -14.519531 17.765625 -17.035156 17.734375 -18.765625 C 17.710938 -20.492188 17.679688 -21.476562 17.640625 -21.71875 C 17.390625 -22.738281 17.070312 -23.269531 16.6875 -23.3125 C 16.539062 -23.3125 16.394531 -23.265625 16.25 -23.171875 C 16.007812 -23.078125 15.679688 -22.710938 15.265625 -22.078125 C 14.847656 -21.453125 14.410156 -20.664062 13.953125 -19.71875 C 13.492188 -18.769531 13.007812 -17.710938 12.5 -16.546875 C 11.988281 -15.378906 11.515625 -14.1875 11.078125 -12.96875 C 10.878906 -12.382812 10.679688 -11.71875 10.484375 -10.96875 C 10.296875 -10.21875 10.09375 -9.414062 9.875 -8.5625 C 9.65625 -7.707031 9.445312 -6.84375 9.25 -5.96875 C 9.0625 -5.09375 8.867188 -4.269531 8.671875 -3.5 C 8.472656 -2.820312 8.3125 -2.273438 8.1875 -1.859375 C 8.070312 -1.441406 7.988281 -1.140625 7.9375 -0.953125 C 7.644531 -0.078125 7.132812 0.359375 6.40625 0.359375 C 5.78125 0.359375 5.34375 0.0664062 5.09375 -0.515625 C 5.050781 -0.609375 5.03125 -0.8125 5.03125 -1.125 C 5.03125 -1.445312 5.003906 -1.875 4.953125 -2.40625 C 4.953125 -2.695312 4.960938 -3.15625 4.984375 -3.78125 C 5.015625 -4.414062 5.050781 -5.132812 5.09375 -5.9375 C 5.144531 -6.738281 5.191406 -7.597656 5.234375 -8.515625 C 5.285156 -9.441406 5.335938 -10.367188 5.390625 -11.296875 C 5.628906 -14.796875 5.796875 -17.429688 5.890625 -19.203125 C 5.992188 -20.972656 6.019531 -21.957031 5.96875 -22.15625 C 5.875 -22.300781 5.367188 -22.203125 4.453125 -21.859375 C 3.722656 -21.523438 3.257812 -21.332031 3.0625 -21.28125 C 2.570312 -21.132812 2.117188 -21.109375 1.703125 -21.203125 C 1.296875 -21.304688 1.09375 -21.476562 1.09375 -21.71875 C 1.09375 -22.25 2.234375 -23.070312 4.515625 -24.1875 C 5.972656 -24.96875 6.96875 -25.3125 7.5 -25.21875 C 7.789062 -25.21875 7.960938 -25.144531 8.015625 -25 C 8.453125 -24.65625 8.671875 -23.195312 8.671875 -20.625 C 8.671875 -19.550781 8.671875 -18.6875 8.671875 -18.03125 C 8.671875 -17.375 8.695312 -16.898438 8.75 -16.609375 L 8.8125 -16.390625 L 9.109375 -16.828125 C 9.742188 -18.097656 10.5 -19.519531 11.375 -21.09375 C 12.25 -22.675781 13.171875 -23.953125 14.140625 -24.921875 C 14.960938 -25.742188 15.738281 -26.15625 16.46875 -26.15625 Z M 16.46875 -26.15625 "/></g></g></g><g fill="#ffffff" fill-opacity="1"><g transform="translate(159.624306, 292.050455)"><g><path d="M 11.59375 -26.15625 C 11.925781 -26.207031 12.441406 -26.234375 13.140625 -26.234375 C 13.847656 -26.234375 14.347656 -26.207031 14.640625 -26.15625 C 15.515625 -25.863281 16.414062 -25.234375 17.34375 -24.265625 C 18.019531 -23.535156 18.476562 -22.832031 18.71875 -22.15625 C 18.96875 -21.476562 19.09375 -20.601562 19.09375 -19.53125 C 19.09375 -17.488281 18.582031 -15.847656 17.5625 -14.609375 C 16.539062 -13.367188 15.253906 -12.191406 13.703125 -11.078125 C 13.023438 -10.585938 12.160156 -10.0625 11.109375 -9.5 C 10.066406 -8.945312 9.109375 -8.671875 8.234375 -8.671875 C 8.035156 -8.671875 7.863281 -8.679688 7.71875 -8.703125 C 7.570312 -8.734375 7.40625 -8.769531 7.21875 -8.8125 C 7.070312 -8.863281 6.851562 -8.890625 6.5625 -8.890625 L 6.1875 -8.890625 L 6.265625 -8.53125 C 6.503906 -7.457031 6.914062 -6.445312 7.5 -5.5 C 8.082031 -4.550781 8.9375 -3.910156 10.0625 -3.578125 C 10.25 -3.523438 10.488281 -3.484375 10.78125 -3.453125 C 11.070312 -3.429688 11.460938 -3.421875 11.953125 -3.421875 C 13.796875 -3.421875 15.335938 -3.695312 16.578125 -4.25 C 17.816406 -4.8125 19.164062 -5.65625 20.625 -6.78125 C 21.882812 -7.800781 22.851562 -8.3125 23.53125 -8.3125 C 23.96875 -8.3125 24.285156 -8.164062 24.484375 -7.875 C 24.628906 -7.582031 24.640625 -7.265625 24.515625 -6.921875 C 24.398438 -6.578125 24.050781 -6.066406 23.46875 -5.390625 C 22.738281 -4.566406 21.898438 -3.8125 20.953125 -3.125 C 20.003906 -2.445312 18.992188 -1.851562 17.921875 -1.34375 C 16.859375 -0.832031 15.753906 -0.429688 14.609375 -0.140625 C 13.472656 0.148438 12.34375 0.296875 11.21875 0.296875 C 9.320312 0.296875 7.726562 -0.296875 6.4375 -1.484375 C 5.15625 -2.679688 4.128906 -4.101562 3.359375 -5.75 C 2.867188 -6.769531 2.578125 -8.328125 2.484375 -10.421875 C 2.378906 -12.992188 2.703125 -15.347656 3.453125 -17.484375 C 4.210938 -19.628906 5.394531 -21.550781 7 -23.25 C 7.726562 -24.070312 8.476562 -24.703125 9.25 -25.140625 C 10.03125 -25.578125 10.8125 -25.914062 11.59375 -26.15625 Z M 13.84375 -22.734375 C 13.507812 -22.828125 13.070312 -22.828125 12.53125 -22.734375 C 11.507812 -22.546875 10.644531 -22.097656 9.9375 -21.390625 C 9.238281 -20.679688 8.632812 -19.851562 8.125 -18.90625 C 7.613281 -17.957031 7.222656 -16.960938 6.953125 -15.921875 C 6.691406 -14.878906 6.488281 -13.921875 6.34375 -13.046875 C 6.050781 -11.148438 6.070312 -10.175781 6.40625 -10.125 L 6.484375 -10.125 C 7.015625 -10.125 7.753906 -10.414062 8.703125 -11 C 9.648438 -11.582031 10.609375 -12.273438 11.578125 -13.078125 C 12.554688 -13.878906 13.457031 -14.71875 14.28125 -15.59375 C 15.101562 -16.46875 15.613281 -17.222656 15.8125 -17.859375 C 16.195312 -18.828125 16.296875 -19.703125 16.109375 -20.484375 C 15.910156 -21.160156 15.648438 -21.664062 15.328125 -22 C 15.015625 -22.34375 14.519531 -22.585938 13.84375 -22.734375 Z M 13.84375 -22.734375 "/></g></g></g><g fill="#ffffff" fill-opacity="1"><g transform="translate(183.01486, 292.050455)"><g><path d="M 4.59375 -27.1875 C 4.882812 -27.476562 5.148438 -27.625 5.390625 -27.625 C 6.265625 -27.625 6.875 -26.988281 7.21875 -25.71875 C 7.3125 -25.425781 7.394531 -25.097656 7.46875 -24.734375 C 7.539062 -24.367188 7.601562 -23.992188 7.65625 -23.609375 C 7.75 -21.859375 7.894531 -20.984375 8.09375 -20.984375 C 8.238281 -20.984375 8.53125 -21.347656 8.96875 -22.078125 C 9.550781 -23.191406 10.21875 -24.015625 10.96875 -24.546875 C 11.71875 -25.085938 12.722656 -25.359375 13.984375 -25.359375 C 14.566406 -25.359375 15.210938 -25.210938 15.921875 -24.921875 C 16.628906 -24.628906 17.296875 -24.25 17.921875 -23.78125 C 18.554688 -23.320312 19.101562 -22.789062 19.5625 -22.1875 C 20.03125 -21.582031 20.3125 -20.988281 20.40625 -20.40625 C 20.601562 -19.4375 20.429688 -18.679688 19.890625 -18.140625 C 19.503906 -17.753906 18.992188 -17.660156 18.359375 -17.859375 C 18.117188 -17.953125 17.910156 -18.109375 17.734375 -18.328125 C 17.566406 -18.546875 17.191406 -19.117188 16.609375 -20.046875 C 16.222656 -20.628906 15.757812 -21.175781 15.21875 -21.6875 C 14.6875 -22.195312 14.035156 -22.453125 13.265625 -22.453125 C 12.585938 -22.453125 12.003906 -21.960938 11.515625 -20.984375 C 11.023438 -20.015625 10.625 -18.894531 10.3125 -17.625 C 10 -16.363281 9.753906 -15.113281 9.578125 -13.875 C 9.410156 -12.644531 9.300781 -11.757812 9.25 -11.21875 C 9.207031 -10.925781 9.1875 -10.367188 9.1875 -9.546875 C 9.1875 -8.722656 9.160156 -7.601562 9.109375 -6.1875 C 9.054688 -4.78125 9.03125 -3.648438 9.03125 -2.796875 C 9.03125 -1.953125 9.007812 -1.382812 8.96875 -1.09375 C 8.863281 -0.507812 8.691406 -0.117188 8.453125 0.078125 C 7.960938 0.316406 7.550781 0.4375 7.21875 0.4375 C 6.582031 0.4375 6.191406 0.21875 6.046875 -0.21875 C 5.847656 -0.707031 5.703125 -3.085938 5.609375 -7.359375 C 5.609375 -7.648438 5.59375 -8.234375 5.5625 -9.109375 C 5.539062 -9.984375 5.503906 -11.003906 5.453125 -12.171875 C 5.410156 -13.335938 5.363281 -14.5625 5.3125 -15.84375 C 5.269531 -17.132812 5.210938 -18.335938 5.140625 -19.453125 C 5.066406 -20.578125 4.992188 -21.515625 4.921875 -22.265625 C 4.847656 -23.015625 4.757812 -23.4375 4.65625 -23.53125 C 4.46875 -23.53125 3.742188 -22.878906 2.484375 -21.578125 C 1.171875 -20.117188 0.441406 -19.390625 0.296875 -19.390625 C 0.00390625 -19.390625 -0.164062 -19.582031 -0.21875 -19.96875 C -0.269531 -20.3125 -0.148438 -20.75 0.140625 -21.28125 C 0.335938 -21.664062 0.617188 -22.132812 0.984375 -22.6875 C 1.347656 -23.25 1.75 -23.820312 2.1875 -24.40625 C 2.625 -24.988281 3.0625 -25.535156 3.5 -26.046875 C 3.9375 -26.554688 4.300781 -26.9375 4.59375 -27.1875 Z M 4.59375 -27.1875 "/></g></g></g><g fill="#ffffff" fill-opacity="1"><g transform="translate(204.219381, 292.050455)"><g><path d="M 14.0625 -26.234375 C 14.738281 -26.328125 15.394531 -26.328125 16.03125 -26.234375 C 16.613281 -26.085938 17.269531 -25.867188 18 -25.578125 C 19.65625 -24.703125 20.554688 -23.925781 20.703125 -23.25 C 20.796875 -22.8125 20.890625 -19.335938 20.984375 -12.828125 L 21.0625 -3.28125 L 22.078125 -4.375 C 22.710938 -4.957031 23.125 -5.320312 23.3125 -5.46875 C 23.507812 -5.613281 23.707031 -5.613281 23.90625 -5.46875 C 24.53125 -5.125 24.53125 -4.347656 23.90625 -3.140625 C 23.613281 -2.453125 23.160156 -1.742188 22.546875 -1.015625 C 21.941406 -0.285156 21.445312 0.195312 21.0625 0.4375 C 20.675781 0.582031 20.210938 0.601562 19.671875 0.5 C 19.140625 0.40625 18.753906 0.210938 18.515625 -0.078125 C 18.222656 -0.515625 18.050781 -0.972656 18 -1.453125 C 17.945312 -1.992188 17.875 -3.378906 17.78125 -5.609375 C 17.726562 -6.679688 17.703125 -7.53125 17.703125 -8.15625 C 17.703125 -8.789062 17.703125 -9.226562 17.703125 -9.46875 C 17.703125 -9.570312 17.679688 -9.644531 17.640625 -9.6875 L 17.5625 -10.0625 C 17.507812 -10.007812 17.289062 -9.644531 16.90625 -8.96875 C 16.851562 -8.769531 16.78125 -8.625 16.6875 -8.53125 C 16.195312 -7.550781 15.648438 -6.539062 15.046875 -5.5 C 14.441406 -4.457031 13.75 -3.5 12.96875 -2.625 C 12.195312 -1.75 11.320312 -1.03125 10.34375 -0.46875 C 9.375 0.0820312 8.257812 0.359375 7 0.359375 C 5.632812 0.359375 4.550781 -0.0625 3.75 -0.90625 C 2.945312 -1.757812 2.378906 -2.816406 2.046875 -4.078125 C 1.941406 -4.421875 1.878906 -4.96875 1.859375 -5.71875 C 1.835938 -6.46875 1.875 -7.015625 1.96875 -7.359375 C 2.40625 -9.785156 3.546875 -11.875 5.390625 -13.625 C 6.316406 -14.550781 7.300781 -15.242188 8.34375 -15.703125 C 9.382812 -16.160156 10.832031 -16.585938 12.6875 -16.984375 C 14.039062 -17.273438 15.066406 -17.492188 15.765625 -17.640625 C 16.472656 -17.785156 16.878906 -17.90625 16.984375 -18 C 17.078125 -18.09375 17.160156 -18.3125 17.234375 -18.65625 C 17.304688 -19 17.363281 -19.363281 17.40625 -19.75 C 17.457031 -20.132812 17.484375 -20.535156 17.484375 -20.953125 C 17.484375 -21.367188 17.460938 -21.695312 17.421875 -21.9375 C 17.316406 -22.613281 16.5625 -22.953125 15.15625 -22.953125 C 13.550781 -22.953125 11.921875 -22.6875 10.265625 -22.15625 C 8.617188 -21.625 7.066406 -21.015625 5.609375 -20.328125 C 4.929688 -19.941406 4.382812 -19.648438 3.96875 -19.453125 C 3.5625 -19.265625 3.257812 -19.144531 3.0625 -19.09375 C 2.96875 -19.09375 2.859375 -19.164062 2.734375 -19.3125 C 2.609375 -19.457031 2.546875 -19.578125 2.546875 -19.671875 C 2.597656 -20.015625 2.914062 -20.515625 3.5 -21.171875 C 4.082031 -21.828125 4.738281 -22.394531 5.46875 -22.875 C 7.84375 -24.675781 10.707031 -25.796875 14.0625 -26.234375 Z M 15.953125 -14.140625 C 15.804688 -14.234375 15.296875 -14.226562 14.421875 -14.125 C 13.554688 -14.03125 12.78125 -13.910156 12.09375 -13.765625 C 10.394531 -13.378906 8.910156 -12.613281 7.640625 -11.46875 C 6.378906 -10.332031 5.601562 -8.890625 5.3125 -7.140625 C 5.070312 -5.773438 5.171875 -4.609375 5.609375 -3.640625 C 5.898438 -3.015625 6.410156 -2.703125 7.140625 -2.703125 C 7.960938 -2.703125 8.738281 -2.957031 9.46875 -3.46875 C 10.195312 -3.976562 10.851562 -4.59375 11.4375 -5.3125 C 12.019531 -6.039062 12.550781 -6.816406 13.03125 -7.640625 C 13.519531 -8.472656 13.910156 -9.179688 14.203125 -9.765625 C 15.660156 -12.484375 16.242188 -13.941406 15.953125 -14.140625 Z M 15.953125 -14.140625 "/></g></g></g><g fill="#ffffff" fill-opacity="1"><g transform="translate(229.795969, 292.050455)"><g><path d="M 9.1875 -32.796875 C 9.519531 -32.984375 9.882812 -32.957031 10.28125 -32.71875 C 10.90625 -32.28125 11.21875 -30.894531 11.21875 -28.5625 C 11.21875 -27.0625 11.269531 -26.1875 11.375 -25.9375 C 11.414062 -25.84375 11.5625 -25.75 11.8125 -25.65625 C 12.101562 -25.550781 12.535156 -25.5 13.109375 -25.5 C 13.691406 -25.5 14.445312 -25.550781 15.375 -25.65625 C 16.738281 -25.65625 17.492188 -25.628906 17.640625 -25.578125 C 17.878906 -25.429688 18.070312 -25.195312 18.21875 -24.875 C 18.363281 -24.5625 18.4375 -24.285156 18.4375 -24.046875 C 18.382812 -23.660156 18.164062 -23.285156 17.78125 -22.921875 C 17.394531 -22.554688 16.859375 -22.328125 16.171875 -22.234375 C 15.785156 -22.128906 14.960938 -22.128906 13.703125 -22.234375 C 12.585938 -22.273438 11.941406 -22.269531 11.765625 -22.21875 C 11.597656 -22.175781 11.46875 -22.035156 11.375 -21.796875 C 11.320312 -21.648438 11.25 -20.648438 11.15625 -18.796875 C 11.15625 -18.359375 11.140625 -17.773438 11.109375 -17.046875 C 11.085938 -16.316406 11.050781 -15.5625 11 -14.78125 C 10.957031 -14.007812 10.921875 -13.285156 10.890625 -12.609375 C 10.867188 -11.929688 10.859375 -11.421875 10.859375 -11.078125 C 10.859375 -6.554688 11.003906 -4.203125 11.296875 -4.015625 C 11.390625 -4.015625 11.460938 -4.035156 11.515625 -4.078125 C 11.609375 -4.179688 11.847656 -4.472656 12.234375 -4.953125 C 12.628906 -5.441406 13.117188 -6.144531 13.703125 -7.0625 C 15.398438 -9.644531 16.640625 -11.203125 17.421875 -11.734375 C 17.515625 -11.828125 17.609375 -11.800781 17.703125 -11.65625 C 17.953125 -11.5625 18.078125 -11.078125 18.078125 -10.203125 C 18.023438 -9.523438 17.753906 -8.648438 17.265625 -7.578125 C 16.785156 -6.503906 16.203125 -5.429688 15.515625 -4.359375 C 14.835938 -3.296875 14.097656 -2.328125 13.296875 -1.453125 C 12.492188 -0.578125 11.78125 0.00390625 11.15625 0.296875 C 10.957031 0.441406 10.6875 0.515625 10.34375 0.515625 C 9.757812 0.410156 9.300781 0.191406 8.96875 -0.140625 C 8.425781 -0.773438 8.035156 -1.628906 7.796875 -2.703125 C 7.503906 -4.109375 7.382812 -6.875 7.4375 -11 C 7.4375 -12.019531 7.421875 -13.0625 7.390625 -14.125 C 7.367188 -15.195312 7.359375 -16.207031 7.359375 -17.15625 C 7.359375 -18.101562 7.359375 -18.894531 7.359375 -19.53125 C 7.359375 -20.164062 7.332031 -20.554688 7.28125 -20.703125 C 7.1875 -21.179688 6.96875 -21.492188 6.625 -21.640625 C 6.289062 -21.785156 5.632812 -21.910156 4.65625 -22.015625 C 2.863281 -22.160156 1.75 -22.445312 1.3125 -22.875 C 0.78125 -23.414062 0.78125 -23.851562 1.3125 -24.1875 C 1.550781 -24.332031 1.960938 -24.488281 2.546875 -24.65625 C 3.128906 -24.832031 3.832031 -24.96875 4.65625 -25.0625 C 5.925781 -25.164062 6.726562 -25.265625 7.0625 -25.359375 C 7.40625 -25.453125 7.625 -25.644531 7.71875 -25.9375 C 7.769531 -26.039062 7.804688 -26.3125 7.828125 -26.75 C 7.859375 -27.1875 7.921875 -27.742188 8.015625 -28.421875 C 8.109375 -29.390625 8.179688 -30.191406 8.234375 -30.828125 C 8.285156 -31.460938 8.382812 -31.898438 8.53125 -32.140625 C 8.625 -32.328125 8.726562 -32.457031 8.84375 -32.53125 C 8.96875 -32.601562 9.082031 -32.691406 9.1875 -32.796875 Z M 9.1875 -32.796875 "/></g></g></g><g fill="#ffffff" fill-opacity="1"><g transform="translate(250.344678, 292.050455)"><g><path d="M 13.1875 -26.15625 C 15.425781 -26.445312 17.273438 -26.035156 18.734375 -24.921875 C 19.609375 -24.242188 20.445312 -23.269531 21.25 -22 C 22.050781 -20.738281 22.570312 -19.476562 22.8125 -18.21875 C 23.195312 -16.757812 23.363281 -15.15625 23.3125 -13.40625 C 23.269531 -11.65625 23.054688 -10.101562 22.671875 -8.75 C 22.328125 -7.625 21.828125 -6.523438 21.171875 -5.453125 C 20.515625 -4.390625 19.722656 -3.429688 18.796875 -2.578125 C 17.878906 -1.734375 16.859375 -1.054688 15.734375 -0.546875 C 14.617188 -0.0351562 13.457031 0.21875 12.25 0.21875 C 11.414062 0.21875 10.585938 0.132812 9.765625 -0.03125 C 8.941406 -0.207031 8.1875 -0.5625 7.5 -1.09375 C 6.4375 -1.726562 5.523438 -2.566406 4.765625 -3.609375 C 4.015625 -4.648438 3.445312 -5.726562 3.0625 -6.84375 C 2.96875 -7.332031 2.867188 -7.941406 2.765625 -8.671875 C 2.671875 -9.398438 2.597656 -10.140625 2.546875 -10.890625 C 2.503906 -11.648438 2.484375 -12.378906 2.484375 -13.078125 C 2.484375 -13.785156 2.53125 -14.378906 2.625 -14.859375 C 2.914062 -16.566406 3.664062 -18.367188 4.875 -20.265625 C 5.125 -20.597656 5.523438 -21.101562 6.078125 -21.78125 C 6.640625 -22.46875 7.113281 -22.976562 7.5 -23.3125 C 8.132812 -23.894531 8.625 -24.1875 8.96875 -24.1875 C 9.0625 -24.238281 9.226562 -24.320312 9.46875 -24.4375 C 9.71875 -24.5625 10.035156 -24.75 10.421875 -25 C 11.242188 -25.675781 12.164062 -26.0625 13.1875 -26.15625 Z M 13.625 -23.09375 C 12.125 -23.09375 10.847656 -22.738281 9.796875 -22.03125 C 8.753906 -21.332031 7.90625 -20.425781 7.25 -19.3125 C 6.59375 -18.195312 6.128906 -16.96875 5.859375 -15.625 C 5.597656 -14.289062 5.46875 -12.992188 5.46875 -11.734375 C 5.46875 -10.660156 5.585938 -9.613281 5.828125 -8.59375 C 6.066406 -7.570312 6.441406 -6.660156 6.953125 -5.859375 C 7.460938 -5.054688 8.128906 -4.398438 8.953125 -3.890625 C 9.785156 -3.390625 10.8125 -3.140625 12.03125 -3.140625 C 13.53125 -3.140625 14.8125 -3.488281 15.875 -4.1875 C 16.945312 -4.894531 17.820312 -5.804688 18.5 -6.921875 C 19.1875 -8.035156 19.6875 -9.273438 20 -10.640625 C 20.320312 -12.003906 20.484375 -13.335938 20.484375 -14.640625 C 20.484375 -15.328125 20.410156 -16.035156 20.265625 -16.765625 C 20.117188 -17.492188 19.898438 -18.207031 19.609375 -18.90625 C 19.316406 -19.613281 18.953125 -20.257812 18.515625 -20.84375 C 18.078125 -21.425781 17.566406 -21.890625 16.984375 -22.234375 C 16.546875 -22.523438 16.007812 -22.738281 15.375 -22.875 C 14.738281 -23.019531 14.15625 -23.09375 13.625 -23.09375 Z M 13.625 -23.09375 "/></g></g></g><g fill="#ffffff" fill-opacity="1"><g transform="translate(276.066983, 292.050455)"><g><path d="M 4.59375 -27.1875 C 4.882812 -27.476562 5.148438 -27.625 5.390625 -27.625 C 6.265625 -27.625 6.875 -26.988281 7.21875 -25.71875 C 7.3125 -25.425781 7.394531 -25.097656 7.46875 -24.734375 C 7.539062 -24.367188 7.601562 -23.992188 7.65625 -23.609375 C 7.75 -21.859375 7.894531 -20.984375 8.09375 -20.984375 C 8.238281 -20.984375 8.53125 -21.347656 8.96875 -22.078125 C 9.550781 -23.191406 10.21875 -24.015625 10.96875 -24.546875 C 11.71875 -25.085938 12.722656 -25.359375 13.984375 -25.359375 C 14.566406 -25.359375 15.210938 -25.210938 15.921875 -24.921875 C 16.628906 -24.628906 17.296875 -24.25 17.921875 -23.78125 C 18.554688 -23.320312 19.101562 -22.789062 19.5625 -22.1875 C 20.03125 -21.582031 20.3125 -20.988281 20.40625 -20.40625 C 20.601562 -19.4375 20.429688 -18.679688 19.890625 -18.140625 C 19.503906 -17.753906 18.992188 -17.660156 18.359375 -17.859375 C 18.117188 -17.953125 17.910156 -18.109375 17.734375 -18.328125 C 17.566406 -18.546875 17.191406 -19.117188 16.609375 -20.046875 C 16.222656 -20.628906 15.757812 -21.175781 15.21875 -21.6875 C 14.6875 -22.195312 14.035156 -22.453125 13.265625 -22.453125 C 12.585938 -22.453125 12.003906 -21.960938 11.515625 -20.984375 C 11.023438 -20.015625 10.625 -18.894531 10.3125 -17.625 C 10 -16.363281 9.753906 -15.113281 9.578125 -13.875 C 9.410156 -12.644531 9.300781 -11.757812 9.25 -11.21875 C 9.207031 -10.925781 9.1875 -10.367188 9.1875 -9.546875 C 9.1875 -8.722656 9.160156 -7.601562 9.109375 -6.1875 C 9.054688 -4.78125 9.03125 -3.648438 9.03125 -2.796875 C 9.03125 -1.953125 9.007812 -1.382812 8.96875 -1.09375 C 8.863281 -0.507812 8.691406 -0.117188 8.453125 0.078125 C 7.960938 0.316406 7.550781 0.4375 7.21875 0.4375 C 6.582031 0.4375 6.191406 0.21875 6.046875 -0.21875 C 5.847656 -0.707031 5.703125 -3.085938 5.609375 -7.359375 C 5.609375 -7.648438 5.59375 -8.234375 5.5625 -9.109375 C 5.539062 -9.984375 5.503906 -11.003906 5.453125 -12.171875 C 5.410156 -13.335938 5.363281 -14.5625 5.3125 -15.84375 C 5.269531 -17.132812 5.210938 -18.335938 5.140625 -19.453125 C 5.066406 -20.578125 4.992188 -21.515625 4.921875 -22.265625 C 4.847656 -23.015625 4.757812 -23.4375 4.65625 -23.53125 C 4.46875 -23.53125 3.742188 -22.878906 2.484375 -21.578125 C 1.171875 -20.117188 0.441406 -19.390625 0.296875 -19.390625 C 0.00390625 -19.390625 -0.164062 -19.582031 -0.21875 -19.96875 C -0.269531 -20.3125 -0.148438 -20.75 0.140625 -21.28125 C 0.335938 -21.664062 0.617188 -22.132812 0.984375 -22.6875 C 1.347656 -23.25 1.75 -23.820312 2.1875 -24.40625 C 2.625 -24.988281 3.0625 -25.535156 3.5 -26.046875 C 3.9375 -26.554688 4.300781 -26.9375 4.59375 -27.1875 Z M 4.59375 -27.1875 "/></g></g></g></svg>